<?xml version="1.0" encoding="UTF-8"?>
<svg version="1.1" xmlns="http://www.w3.org/2000/svg" width="100" height="100">
<path d="M0 0 C1.27230469 0.01804688 2.54460937 0.03609375 3.85546875 0.0546875 C4.83128906 0.07789063 5.80710937 0.10109375 6.8125 0.125 C7.4375 2 7.4375 2 7.8125 4.125 C7.1525 4.785 6.4925 5.445 5.8125 6.125 C4.57306641 5.99931641 4.57306641 5.99931641 3.30859375 5.87109375 C-0.53234202 5.48356639 -2.62162941 5.54887649 -6.1875 7.125 C-10.40921029 12.69394305 -12.79261354 19.61447725 -15.1875 26.125 C-14.07955078 25.63773438 -14.07955078 25.63773438 -12.94921875 25.140625 C-9.08291082 23.71878616 -6.29322417 23.85577219 -2.1875 24.125 C0.67586371 26.98836371 0.11266187 29.07728346 0.125 33.0625 C0.14175781 34.30902344 0.15851563 35.55554688 0.17578125 36.83984375 C-0.1875 40.125 -0.1875 40.125 -1.58203125 42.00390625 C-5.46091479 44.71251836 -8.55047929 44.19979066 -13.1875 44.125 C-13.5175 45.775 -13.8475 47.425 -14.1875 49.125 C-13.56875 48.63 -12.95 48.135 -12.3125 47.625 C-10.1875 46.125 -10.1875 46.125 -8.1875 46.125 C-7.8575 47.115 -7.5275 48.105 -7.1875 49.125 C-6.589375 48.465 -5.99125 47.805 -5.375 47.125 C-3.1875 45.125 -3.1875 45.125 -0.1875 45.125 C-0.5175 46.445 -0.8475 47.765 -1.1875 49.125 C0.4625 48.465 2.1125 47.805 3.8125 47.125 C4.3075 49.105 4.3075 49.105 4.8125 51.125 C6.7925 51.62 6.7925 51.62 8.8125 52.125 C8.8125 53.445 8.8125 54.765 8.8125 56.125 C-20.5575 56.125 -49.9275 56.125 -80.1875 56.125 C-80.1875 53.815 -80.1875 51.505 -80.1875 49.125 C-78.8675 49.125 -77.5475 49.125 -76.1875 49.125 C-76.1875 48.135 -76.1875 47.145 -76.1875 46.125 C-74.5375 46.785 -72.8875 47.445 -71.1875 48.125 C-71.1875 47.465 -71.1875 46.805 -71.1875 46.125 C-70.75803283 41.29349431 -69.848369 38.41039526 -66.1875 35.125 C-64.21484375 34.69921875 -64.21484375 34.69921875 -62.0625 34.5 C-60.78375 34.37625 -59.505 34.2525 -58.1875 34.125 C-57.5275 33.135 -56.8675 32.145 -56.1875 31.125 C-54.0625 30.4375 -54.0625 30.4375 -52.1875 30.125 C-53.5075 29.795 -54.8275 29.465 -56.1875 29.125 C-55.9087025 25.87236244 -55.21514957 24.16356086 -53.296875 21.48828125 C-48.82237574 18.08743696 -45.09779742 18.38762223 -39.625 18.5 C-38.20670898 18.47099609 -38.20670898 18.47099609 -36.75976562 18.44140625 C-29.94798006 18.48954608 -29.94798006 18.48954608 -26.59765625 21.2890625 C-25.10239945 24.29614404 -24.49757495 26.79169425 -24.1875 30.125 C-23.34060872 28.43121744 -22.49377777 26.7374047 -21.6472168 25.04345703 C-20.92055509 23.59078783 -20.19284288 22.13864368 -19.46411133 20.68701172 C-17.76015435 17.28960443 -16.06597301 13.8896514 -14.42578125 10.4609375 C-13.91402344 9.40132812 -13.40226562 8.34171875 -12.875 7.25 C-12.42511719 6.30382813 -11.97523437 5.35765625 -11.51171875 4.3828125 C-8.63146698 -0.52805925 -5.20490522 -0.09550285 0 0 Z M-63.1875 40.125 C-63.8475 40.785 -64.5075 41.445 -65.1875 42.125 C-65.17827298 44.67213404 -65.17827298 44.67213404 -64.1875 47.125 C-62.21991727 48.48520151 -62.21991727 48.48520151 -60.1875 49.125 C-59.1975 48.465 -58.2075 47.805 -57.1875 47.125 C-56.9372843 44.04134129 -56.9372843 44.04134129 -57.1875 41.125 C-60.08823181 40.44698966 -60.08823181 40.44698966 -63.1875 40.125 Z M-23.1875 39.125 C-24.5075 40.445 -25.8275 41.765 -27.1875 43.125 C-26.5275 44.775 -25.8675 46.425 -25.1875 48.125 C-22.77104218 48.29187448 -22.77104218 48.29187448 -20.1875 48.125 C-19.5275 47.465 -18.8675 46.805 -18.1875 46.125 C-18.19672702 43.57786596 -18.19672702 43.57786596 -19.1875 41.125 C-21.15508273 39.76479849 -21.15508273 39.76479849 -23.1875 39.125 Z M-36.1875 45.125 C-38.78995498 45.26721065 -41.27867684 45.31302932 -43.875 45.25 C-44.9278418 45.23646484 -44.9278418 45.23646484 -46.00195312 45.22265625 C-47.73061525 45.19913704 -49.45910145 45.16326713 -51.1875 45.125 C-52.1775 47.105 -53.1675 49.085 -54.1875 51.125 C-51.1043649 49.92600302 -48.12470508 48.64799523 -45.1875 47.125 C-45.5175 48.445 -45.8475 49.765 -46.1875 51.125 C-45.630625 50.83625 -45.07375 50.5475 -44.5 50.25 C-42.10255355 49.0836747 -39.67153061 48.0910119 -37.1875 47.125 C-37.8475 48.445 -38.5075 49.765 -39.1875 51.125 C-38.28 50.939375 -37.3725 50.75375 -36.4375 50.5625 C-33.1875 50.125 -33.1875 50.125 -29.1875 51.125 C-30.1775 48.485 -31.1675 45.845 -32.1875 43.125 C-33.64975016 43.03254997 -33.64975016 43.03254997 -36.1875 45.125 Z " fill="#477B3B" transform="translate(84.1875,35.875)"/>
<path d="M0 0 C-2.33214148 1.20628008 -4.49642139 2.1654738 -7 3 C-7.22331199 4.58129029 -7.42804644 6.16521089 -7.625 7.75 C-7.74101563 8.63171875 -7.85703125 9.5134375 -7.9765625 10.421875 C-8.00207817 13.22859878 -7.44843844 14.63384866 -6 17 C-8.8125 17.625 -8.8125 17.625 -12 18 C-12.99 17.34 -13.98 16.68 -15 16 C-15.33 16.66 -15.66 17.32 -16 18 C-10.31302429 18.91397824 -5.68697571 18.91397824 0 18 C0 17.34 0 16.68 0 16 C0.99 15.67 1.98 15.34 3 15 C3 15.66 3 16.32 3 17 C4.32 17 5.64 17 7 17 C7.99 15.02 8.98 13.04 10 11 C10.66 11 11.32 11 12 11 C12.495 12.485 12.495 12.485 13 14 C13.598125 13.34 14.19625 12.68 14.8125 12 C17 10 17 10 20 10 C19.67 11.32 19.34 12.64 19 14 C20.65 13.34 22.3 12.68 24 12 C24.495 13.98 24.495 13.98 25 16 C26.98 16.495 26.98 16.495 29 17 C29 18.32 29 19.64 29 21 C-0.37 21 -29.74 21 -60 21 C-60 18.69 -60 16.38 -60 14 C-58.68 14 -57.36 14 -56 14 C-56 13.01 -56 12.02 -56 11 C-51.32307692 12.47692308 -51.32307692 12.47692308 -49.6875 15.125 C-49.3471875 16.053125 -49.3471875 16.053125 -49 17 C-49.66 16.67 -50.32 16.34 -51 16 C-51.99 16.99 -52.98 17.98 -54 19 C-52.68 19 -51.36 19 -50 19 C-42.66666667 19 -35.33333333 19 -28 19 C-28.83333333 16.83333333 -28.83333333 16.83333333 -31 16 C-29.6875 14 -29.6875 14 -28 12 C-27.01 12 -26.02 12 -25 12 C-24.505 13.485 -24.505 13.485 -24 15 C-23.5875 14.505 -23.175 14.01 -22.75 13.5 C-21 12 -21 12 -17 12 C-17 12.99 -17 13.98 -17 15 C-16.401875 14.814375 -15.80375 14.62875 -15.1875 14.4375 C-13 14 -13 14 -10 15 C-10.99 13.02 -11.98 11.04 -13 9 C-13.66 9.33 -14.32 9.66 -15 10 C-14.34 7.69 -13.68 5.38 -13 3 C-12.01 3.66 -11.02 4.32 -10 5 C-9.67 4.01 -9.34 3.02 -9 2 C-5.5647952 -0.29013653 -4.014669 -0.17842973 0 0 Z " fill="#507D46" transform="translate(64,71)"/>
<path d="M0 0 C1.25425781 0.04511719 2.50851563 0.09023438 3.80078125 0.13671875 C4.75339844 0.19472656 5.70601562 0.25273438 6.6875 0.3125 C7.3125 2.1875 7.3125 2.1875 7.6875 4.3125 C7.0275 4.9725 6.3675 5.6325 5.6875 6.3125 C3.83258671 6.17649232 1.97851721 6.02886797 0.125 5.875 C-3.18331138 5.87844573 -3.18331138 5.87844573 -6.3125 7.3125 C-11.16486087 12.83647359 -15.3125 20.95227351 -15.3125 28.3125 C-16.3025 28.3125 -17.2925 28.3125 -18.3125 28.3125 C-18.6425 27.9825 -18.9725 27.6525 -19.3125 27.3125 C-19.9725 29.2925 -20.6325 31.2725 -21.3125 33.3125 C-21.9725 33.3125 -22.6325 33.3125 -23.3125 33.3125 C-22.76608081 27.1022357 -20.11850997 21.84588888 -17.5625 16.25 C-17.13195312 15.26966797 -16.70140625 14.28933594 -16.2578125 13.27929688 C-12.50548274 5.00507272 -9.95602901 -0.465235 0 0 Z " fill="#4D7B40" transform="translate(84.3125,35.6875)"/>
<path d="M0 0 C0.33 0.99 0.66 1.98 1 3 C1.515625 2.855625 2.03125 2.71125 2.5625 2.5625 C5.68509571 1.84190099 8.82550692 1.42733561 12 1 C12 1.66 12 2.32 12 3 C13.32 2.67 14.64 2.34 16 2 C15 5 15 5 13 6 C13 6.99 13 7.98 13 9 C11.68 9 10.36 9 9 9 C7.21030974 11.42672567 7.21030974 11.42672567 6 14 C5.67 13.34 5.34 12.68 5 12 C1.04 12 -2.92 12 -7 12 C-8.125 6.375 -8.125 6.375 -7 3 C-7 2.34 -7 1.68 -7 1 C-4 0 -4 0 0 0 Z " fill="#417A33" transform="translate(42,68)"/>
<path d="M0 0 C6.6 0 13.2 0 20 0 C20 1.32 20 2.64 20 4 C20.30404678 5.67225729 20.63128912 7.34080104 21 9 C17.17679443 10.42258812 14.08718695 11.24042276 10 11 C10 10.34 10 9.68 10 9 C5.545 8.01 5.545 8.01 1 7 C0.67 7.66 0.34 8.32 0 9 C-1.65 7.68 -3.3 6.36 -5 5 C2.26 5 9.52 5 17 5 C17 4.01 17 3.02 17 2 C16.34 2 15.68 2 15 2 C15 2.66 15 3.32 15 4 C9.46342706 4.42589023 5.10334017 2.905247 0 1 C0 0.67 0 0.34 0 0 Z " fill="#437B35" transform="translate(37,57)"/>
<path d="M0 0 C-0.33 1.32 -0.66 2.64 -1 4 C0.65 3.34 2.3 2.68 4 2 C3.690625 2.598125 3.38125 3.19625 3.0625 3.8125 C1.89790296 6.08956772 1.89790296 6.08956772 1 9 C-2.6464806 9.8410478 -5.99950907 10.11764968 -9.73828125 10.09765625 C-10.80498047 10.09443359 -11.87167969 10.09121094 -12.97070312 10.08789062 C-14.62489258 10.07532227 -14.62489258 10.07532227 -16.3125 10.0625 C-17.43462891 10.05798828 -18.55675781 10.05347656 -19.71289062 10.04882812 C-22.4753151 10.03707313 -25.23762998 10.02064077 -28 10 C-28 9.67 -28 9.34 -28 9 C-25.36 8.67 -22.72 8.34 -20 8 C-20 7.34 -20 6.68 -20 6 C-19.01 5.67 -18.02 5.34 -17 5 C-17 5.66 -17 6.32 -17 7 C-15.68 7 -14.36 7 -13 7 C-12.01 5.02 -11.02 3.04 -10 1 C-9.34 1 -8.68 1 -8 1 C-7.67 1.99 -7.34 2.98 -7 4 C-6.401875 3.34 -5.80375 2.68 -5.1875 2 C-3 0 -3 0 0 0 Z " fill="#457939" transform="translate(84,81)"/>
<path d="M0 0 C0.495 1.485 0.495 1.485 1 3 C3.01508358 3.73323796 3.01508358 3.73323796 5 4 C5 5.32 5 6.64 5 8 C-13.48 8 -31.96 8 -51 8 C-51 7.67 -51 7.34 -51 7 C-35.16 6.67 -19.32 6.34 -3 6 C-2.67 4.68 -2.34 3.36 -2 2 C-1.34 1.34 -0.68 0.68 0 0 Z " fill="#5B8153" transform="translate(88,84)"/>
<path d="M0 0 C4.455 0.99 4.455 0.99 9 2 C9 2.33 9 2.66 9 3 C6.36 3 3.72 3 1 3 C0.67 4.65 0.34 6.3 0 8 C1.32 7.34 2.64 6.68 4 6 C2.25 10.875 2.25 10.875 0 12 C-1.34246312 11.35191436 -2.67432801 10.68177416 -4 10 C-5.65740715 9.62331656 -7.32345271 9.27942455 -9 9 C-9 8.34 -9 7.68 -9 7 C-8.360625 6.7525 -7.72125 6.505 -7.0625 6.25 C-4.81258459 5.18437567 -4.81258459 5.18437567 -4.25 2.875 C-4.1675 2.25625 -4.085 1.6375 -4 1 C-3.34 1 -2.68 1 -2 1 C-1.67 1.99 -1.34 2.98 -1 4 C-0.67 2.68 -0.34 1.36 0 0 Z " fill="#446D39" transform="translate(70,77)"/>
<path d="M0 0 C1 6.625 1 6.625 1 10 C-1.475 9.01 -1.475 9.01 -4 8 C-5.5833253 9.2488427 -5.5833253 9.2488427 -7 11 C-7 12.32 -7 13.64 -7 15 C-7.99 14.67 -8.98 14.34 -10 14 C-9.55747529 9.13222824 -8.52130856 7.29412737 -5 4 C-5 3.01 -5 2.02 -5 1 C-2 0 -2 0 0 0 Z " fill="#447037" transform="translate(65,68)"/>
<path d="M0 0 C4.62 0 9.24 0 14 0 C14.33 1.32 14.66 2.64 15 4 C13 6 13 6 10.1796875 6.1953125 C9.08914062 6.17210937 7.99859375 6.14890625 6.875 6.125 C5.77929688 6.10695313 4.68359375 6.08890625 3.5546875 6.0703125 C2.71164063 6.04710937 1.86859375 6.02390625 1 6 C0.67 5.34 0.34 4.68 0 4 C3.96 4 7.92 4 12 4 C12 3.34 12 2.68 12 2 C8.37 2.33 4.74 2.66 1 3 C0.67 2.01 0.34 1.02 0 0 Z " fill="#547849" transform="translate(77,36)"/>
<path d="M0 0 C4.67692308 1.47692308 4.67692308 1.47692308 6.3125 4.125 C6.539375 4.74375 6.76625 5.3625 7 6 C6.34 5.67 5.68 5.34 5 5 C4.54625 5.495 4.0925 5.99 3.625 6.5 C2 8 2 8 0 8 C0 8.66 0 9.32 0 10 C-1.32 10 -2.64 10 -4 10 C-4 7.69 -4 5.38 -4 3 C-2.68 3 -1.36 3 0 3 C0 2.01 0 1.02 0 0 Z " fill="#547B48" transform="translate(8,82)"/>
<path d="M0 0 C1.33333333 0.33333333 2.66666667 0.66666667 4 1 C5.74886981 1.06624507 7.50002748 1.08552595 9.25 1.0625 C10.58804688 1.04896484 10.58804688 1.04896484 11.953125 1.03515625 C12.62859375 1.02355469 13.3040625 1.01195312 14 1 C14 1.66 14 2.32 14 3 C12.84371094 3.03867187 12.84371094 3.03867187 11.6640625 3.078125 C10.66117188 3.13484375 9.65828125 3.1915625 8.625 3.25 C7.62726563 3.29640625 6.62953125 3.3428125 5.6015625 3.390625 C2.8473523 3.72160885 2.8473523 3.72160885 1.6484375 6.046875 C1.43445313 6.69140625 1.22046875 7.3359375 1 8 C1 7.34 1 6.68 1 6 C-0.32 6 -1.64 6 -3 6 C-1.125 1.125 -1.125 1.125 0 0 Z " fill="#437234" transform="translate(75,37)"/>
<path d="M0 0 C2.46800047 1.15173355 4.04783565 2.04783565 6 4 C6.125 6.625 6.125 6.625 6 9 C5.01 7.68 4.02 6.36 3 5 C2.34 6.32 1.68 7.64 1 9 C0.67 8.34 0.34 7.68 0 7 C-2.97 7 -5.94 7 -9 7 C-8.67 6.01 -8.34 5.02 -8 4 C-6.02 4 -4.04 4 -2 4 C-1.34 2.68 -0.68 1.36 0 0 Z " fill="#3A6B31" transform="translate(27,70)"/>
<path d="M0 0 C0.33 0.99 0.66 1.98 1 3 C1.99 3.66 2.98 4.32 4 5 C4 5.66 4 6.32 4 7 C0.04 7 -3.92 7 -8 7 C-8 6.67 -8 6.34 -8 6 C-6.35 6 -4.7 6 -3 6 C-2.814375 5.071875 -2.814375 5.071875 -2.625 4.125 C-2 2 -2 2 0 0 Z " fill="#548248" transform="translate(88,84)"/>
<path d="M0 0 C-0.66 2.31 -1.32 4.62 -2 7 C-2.99 7 -3.98 7 -5 7 C-6.33981486 7.3062434 -7.67511887 7.63451555 -9 8 C-9 7.34 -9 6.68 -9 6 C-8.34 6 -7.68 6 -7 6 C-6.896875 5.38125 -6.79375 4.7625 -6.6875 4.125 C-5.52284543 0.52515862 -3.5849033 0 0 0 Z " fill="#56784D" transform="translate(84,81)"/>
<path d="M0 0 C1.65 0 3.3 0 5 0 C4.67 1.98 4.34 3.96 4 6 C3.34 6 2.68 6 2 6 C2.33 4.68 2.66 3.36 3 2 C2.34 2 1.68 2 1 2 C0.80664062 2.63808594 0.61328125 3.27617188 0.4140625 3.93359375 C0.15367188 4.75988281 -0.10671875 5.58617187 -0.375 6.4375 C-0.75785156 7.67306641 -0.75785156 7.67306641 -1.1484375 8.93359375 C-2 11 -2 11 -4 12 C-3.33501617 7.61110675 -1.81242323 4.0188515 0 0 Z " fill="#577F4D" transform="translate(71,43)"/>
<path d="M0 0 C1.65 0.33 3.3 0.66 5 1 C4.67 2.65 4.34 4.3 4 6 C2.35 5.67 0.7 5.34 -1 5 C-0.67 3.35 -0.34 1.7 0 0 Z " fill="#406137" transform="translate(21,77)"/>
<path d="M0 0 C0.99 0 1.98 0 3 0 C3 0.66 3 1.32 3 2 C7.95 2 12.9 2 18 2 C18 1.34 18 0.68 18 0 C18.66 0 19.32 0 20 0 C20 0.99 20 1.98 20 3 C13.4 3 6.8 3 0 3 C0 2.01 0 1.02 0 0 Z " fill="#568A4A" transform="translate(34,59)"/>
<path d="M0 0 C0.33 0.66 0.66 1.32 1 2 C1.99 2 2.98 2 4 2 C4 2.99 4 3.98 4 5 C-0.62 5 -5.24 5 -10 5 C-10 4.67 -10 4.34 -10 4 C-7.36 3.67 -4.72 3.34 -2 3 C-2 2.34 -2 1.68 -2 1 C-1.34 0.67 -0.68 0.34 0 0 Z " fill="#4D8242" transform="translate(66,86)"/>
<path d="M0 0 C2.0625 0.4375 2.0625 0.4375 4 1 C4 2.32 4 3.64 4 5 C2.68 5.33 1.36 5.66 0 6 C-0.38218767 4.34385343 -0.71395102 2.67542976 -1 1 C-0.67 0.67 -0.34 0.34 0 0 Z " fill="#47653D" transform="translate(60,77)"/>
<path d="M0 0 C-2.33214148 1.20628008 -4.49642139 2.1654738 -7 3 C-7.33 5.97 -7.66 8.94 -8 12 C-8.66 12 -9.32 12 -10 12 C-10.61986755 3.78675497 -10.61986755 3.78675497 -8.375 0.9375 C-5.45304074 -0.21590497 -3.11398457 -0.21231713 0 0 Z " fill="#4B7F3F" transform="translate(64,71)"/>
<path d="M0 0 C6.93 0 13.86 0 21 0 C21.33 0.99 21.66 1.98 22 3 C21.01 2.67 20.02 2.34 19 2 C17.51876453 1.9193378 16.03417796 1.89238807 14.55078125 1.90234375 C13.70322266 1.90556641 12.85566406 1.90878906 11.98242188 1.91210938 C10.66081055 1.92467773 10.66081055 1.92467773 9.3125 1.9375 C7.97348633 1.94426758 7.97348633 1.94426758 6.60742188 1.95117188 C4.40488013 1.96295017 2.20247401 1.97939836 0 2 C0 1.34 0 0.68 0 0 Z " fill="#54734E" transform="translate(34,55)"/>
<path d="M0 0 C1.125 1.75 1.125 1.75 2 4 C1.125 6.25 1.125 6.25 0 8 C0 7.34 0 6.68 0 6 C-0.66 6 -1.32 6 -2 6 C-2 6.66 -2 7.32 -2 8 C-3.32 7.34 -4.64 6.68 -6 6 C-5.38125 5.566875 -4.7625 5.13375 -4.125 4.6875 C-1.7802755 3.00259517 -1.7802755 3.00259517 0 0 Z " fill="#407037" transform="translate(30,78)"/>
<path d="M0 0 C0.66 0 1.32 0 2 0 C2.268125 0.78375 2.53625 1.5675 2.8125 2.375 C3.84814432 5.28114923 3.84814432 5.28114923 7 7 C7 7.99 7 8.98 7 10 C2.95868733 8.65289578 2.09711566 6.61571666 0 3 C0 2.01 0 1.02 0 0 Z " fill="#547C4A" transform="translate(13,79)"/>
<path d="M0 0 C0.99 0.66 1.98 1.32 3 2 C6.12521833 2.16699232 6.12521833 2.16699232 9 2 C8.01 3.485 8.01 3.485 7 5 C4.03 4.67 1.06 4.34 -2 4 C-1.34 2.68 -0.68 1.36 0 0 Z " fill="#458039" transform="translate(49,86)"/>
<path d="M0 0 C0.99 0 1.98 0 3 0 C3 1.98 3 3.96 3 6 C0.03 5.505 0.03 5.505 -3 5 C-1.6875 2.5 -1.6875 2.5 0 0 Z " fill="#547B4A" transform="translate(36,83)"/>
<path d="M0 0 C1.32 0.66 2.64 1.32 4 2 C3.505 2.4125 3.01 2.825 2.5 3.25 C0.56613908 5.12202338 0.56613908 5.12202338 1 9 C0.01 8.67 -0.98 8.34 -2 8 C-1.125 2.25 -1.125 2.25 0 0 Z " fill="#39682F" transform="translate(57,74)"/>
<path d="M0 0 C4.92307692 4.30769231 4.92307692 4.30769231 5.3125 7.8125 C5.209375 8.534375 5.10625 9.25625 5 10 C4.34 9.67 3.68 9.34 3 9 C3 8.01 3 7.02 3 6 C2.34 5.67 1.68 5.34 1 5 C0.375 2.4375 0.375 2.4375 0 0 Z " fill="#507F44" transform="translate(65,72)"/>
<path d="M0 0 C0 0.99 0 1.98 0 3 C-3.3 3.33 -6.6 3.66 -10 4 C-10 3.34 -10 2.68 -10 2 C-9.04287109 1.90912109 -9.04287109 1.90912109 -8.06640625 1.81640625 C-6.82697266 1.69072266 -6.82697266 1.69072266 -5.5625 1.5625 C-4.73878906 1.48128906 -3.91507813 1.40007812 -3.06640625 1.31640625 C-1.01337975 1.21069185 -1.01337975 1.21069185 0 0 Z " fill="#36682C" transform="translate(57,64)"/>
<path d="M0 0 C1.98 0 3.96 0 6 0 C6 0.66 6 1.32 6 2 C7.65 2 9.3 2 11 2 C9 4 9 4 7.0546875 4.1953125 C5.03645833 4.13020833 3.01822917 4.06510417 1 4 C1.33 3.34 1.66 2.68 2 2 C1.34 1.34 0.68 0.68 0 0 Z " fill="#4A7C3F" transform="translate(46,62)"/>
<path d="M0 0 C0.99 0 1.98 0 3 0 C3.33 2.31 3.66 4.62 4 7 C2.68 7 1.36 7 0 7 C0 4.69 0 2.38 0 0 Z " fill="#597450" transform="translate(4,85)"/>
<path d="M0 0 C0.66 0 1.32 0 2 0 C0.125 4.75 0.125 4.75 -1 7 C0.32 7.33 1.64 7.66 3 8 C1.02 8 -0.96 8 -3 8 C-2.45276317 4.62537285 -1.9451 2.91765 0 0 Z " fill="#56784F" transform="translate(31,57)"/>
<path d="M0 0 C0.99 0.33 1.98 0.66 3 1 C3.54372951 4.05847848 4 6.88772805 4 10 C3.34 10 2.68 10 2 10 C1.34 6.7 0.68 3.4 0 0 Z " fill="#54724B" transform="translate(56,59)"/>
<path d="M0 0 C1.32 0 2.64 0 4 0 C3.67 0.99 3.34 1.98 3 3 C-0.0625 4.1875 -0.0625 4.1875 -3 5 C-1.125 1.125 -1.125 1.125 0 0 Z " fill="#4C6943" transform="translate(43,83)"/>
</svg>
