<?xml version="1.0" encoding="UTF-8"?>
<svg version="1.1" xmlns="http://www.w3.org/2000/svg" width="100" height="100">
<path d="M0 0 C4.94657549 -0.30377427 8.39879018 0.66621245 12.97265625 2.51953125 C13.61818954 2.77876877 14.26372284 3.03800629 14.92881775 3.30509949 C16.28630895 3.85257643 17.64180627 4.40502081 18.99536133 4.9621582 C21.05564959 5.809682 23.1217659 6.64141681 25.18945312 7.47070312 C36.12041768 11.89773757 36.12041768 11.89773757 41 15 C40.03435767 17.42265134 39.06478901 19.84292748 38.0703125 22.25390625 C36.18782185 26.85122847 34.50705014 31.45275192 33 36.1875 C31.87005768 39.67111665 30.70238994 42.79905461 28.8125 45.9375 C26.68347892 49.14975731 26.68347892 49.14975731 26 54 C35.24 54 44.48 54 54 54 C54.495 55.98 54.495 55.98 55 58 C53.28479847 59.71520153 51.10820142 59.12592516 48.82089233 59.13552856 C48.07957062 59.13350433 47.3382489 59.1314801 46.57446289 59.12939453 C45.7972438 59.13114685 45.02002472 59.13289917 44.21925354 59.13470459 C41.63703206 59.13912402 39.05487849 59.13618452 36.47265625 59.1328125 C34.68525682 59.13348558 32.89785749 59.13445564 31.11045837 59.13571167 C27.35854219 59.13718882 23.60664976 59.13503379 19.85473633 59.13037109 C15.03799323 59.1246779 10.2213059 59.1279501 5.40456486 59.13394356 C1.71149778 59.13755221 -1.98155602 59.13640911 -5.67462349 59.13381577 C-7.45089283 59.13314713 -9.22716337 59.13397273 -11.00343132 59.13629532 C-13.48400961 59.13882636 -15.96449687 59.13497465 -18.44506836 59.12939453 C-19.55401459 59.13243088 -19.55401459 59.13243088 -20.68536377 59.13552856 C-25.771473 59.1142635 -25.771473 59.1142635 -28 58 C-27.625 56.0625 -27.625 56.0625 -27 54 C-26.01 53.505 -26.01 53.505 -25 53 C-25.33 51.68 -25.66 50.36 -26 49 C-24.68 49.33 -23.36 49.66 -22 50 C-21.67 49.34 -21.34 48.68 -21 48 C-20.4225 48.165 -19.845 48.33 -19.25 48.5 C-15.60994097 49.30890201 -12.52708708 49.00773917 -9 48 C-9 48.99 -9 49.98 -9 51 C-8.34 50.34 -7.68 49.68 -7 49 C-6.01 49 -5.02 49 -4 49 C-3.67 49.99 -3.34 50.98 -3 52 C-2.01 51.01 -1.02 50.02 0 49 C-4.95 46.69 -9.9 44.38 -15 42 C-15 37.42087695 -14.70621565 35.942986 -13 32 C-12.42552353 30.04514643 -11.86400419 28.08645834 -11.3125 26.125 C-8.54304131 16.95965936 -4.29681879 8.52982343 0 0 Z M3 5 C-2.12173119 14.9149903 -6.90855353 24.23102516 -9.0703125 35.2578125 C-9.24578613 36.14871582 -9.42125977 37.03961914 -9.60205078 37.95751953 C-9.73337402 38.63153809 -9.86469727 39.30555664 -10 40 C-5.9277008 41.71577309 -1.85256612 43.42456771 2.2253418 45.12695312 C3.61221066 45.70707279 4.99828632 46.28909253 6.38354492 46.87304688 C8.374734 47.71204306 10.36867484 48.54416662 12.36328125 49.375 C13.56251221 49.87773438 14.76174316 50.38046875 15.99731445 50.8984375 C18.93634756 52.17220694 18.93634756 52.17220694 22 52 C22.2475 51.01 22.495 50.02 22.75 49 C23.53290881 46.23758332 24.5316398 43.83348332 25.87890625 41.30078125 C28.04649965 37.04740903 29.65354548 32.70170902 31.1875 28.1875 C31.44724609 27.43791016 31.70699219 26.68832031 31.97460938 25.91601562 C33.00048154 22.94973408 34.007468 19.977596 35 17 C28.5936329 13.42626822 21.92729331 10.72946379 15.0625 8.1875 C14.22162842 7.87353271 13.38075684 7.55956543 12.5144043 7.23608398 C11.31811401 6.80017944 11.31811401 6.80017944 10.09765625 6.35546875 C9.38101807 6.09403076 8.66437988 5.83259277 7.92602539 5.56323242 C5.85454724 4.85966132 5.85454724 4.85966132 3 5 Z M3 50 C2.34 51.32 1.68 52.64 1 54 C4.63 54 8.26 54 12 54 C8.37542083 51.28156562 7.19115285 50.58210456 3 50 Z " fill="#49713E" transform="translate(36,34)"/>
<path d="M0 0 C3.95570883 0.65685202 7.42259166 1.84392888 11.125 3.375 C12.15882812 3.79523438 13.19265625 4.21546875 14.2578125 4.6484375 C16.7510615 5.87730382 18.2231047 6.90448899 20 9 C19.34 9.33 18.68 9.66 18 10 C37.305 10.495 37.305 10.495 57 11 C57 11.66 57 12.32 57 13 C46.60384149 13.02313662 36.20768907 13.04092185 25.81151009 13.05181217 C20.98451963 13.0570381 16.15754675 13.06413052 11.33056641 13.07543945 C6.67514752 13.0862786 2.01974556 13.09227903 -2.63568497 13.09487724 C-4.41474804 13.09672963 -6.19381016 13.1003467 -7.97286606 13.10573006 C-10.45833107 13.11295409 -12.94372546 13.11399036 -15.42919922 13.11352539 C-16.54050201 13.1189183 -16.54050201 13.1189183 -17.67425537 13.12442017 C-22.77189568 13.11405216 -22.77189568 13.11405216 -25 12 C-24.625 10.0625 -24.625 10.0625 -24 8 C-23.34 7.67 -22.68 7.34 -22 7 C-22.33 5.68 -22.66 4.36 -23 3 C-21.68 3.33 -20.36 3.66 -19 4 C-18.67 3.34 -18.34 2.68 -18 2 C-17.4225 2.165 -16.845 2.33 -16.25 2.5 C-12.60994097 3.30890201 -9.52708708 3.00773917 -6 2 C-6 2.99 -6 3.98 -6 5 C-5.34 4.34 -4.68 3.68 -4 3 C-3.01 3 -2.02 3 -1 3 C-0.67 3.99 -0.34 4.98 0 6 C0.99 5.01 1.98 4.02 3 3 C2.01 2.01 1.02 1.02 0 0 Z M6 4 C5.34 5.32 4.68 6.64 4 8 C7.63 8 11.26 8 15 8 C11.37542083 5.28156562 10.19115285 4.58210456 6 4 Z " fill="#56834A" transform="translate(33,80)"/>
<path d="M0 0 C3.16115776 1.36983503 3.9927092 1.9890638 6 5 C6.55171875 4.50886719 7.1034375 4.01773438 7.671875 3.51171875 C10.46370069 1.69890576 11.96185741 1.6827049 15.25 1.8125 C16.58804688 1.85310547 16.58804688 1.85310547 17.953125 1.89453125 C18.62859375 1.92933594 19.3040625 1.96414062 20 2 C20.7933279 4.3177619 21.09843318 5.64631941 20.43359375 8.03515625 C18.67058701 11.62339349 17.46986057 13.67314047 14.125 16 C10.73780127 17.08390359 8.5228815 17.52468448 5 17 C1.61817848 14.84793176 -0.75151347 12.85895837 -2 9 C-2.33457898 4.90140754 -2.32536063 3.48804095 0 0 Z M4 12 C4.33 12.66 4.66 13.32 5 14 C5.33 13.34 5.66 12.68 6 12 C5.34 12 4.68 12 4 12 Z " fill="#44703A" transform="translate(39,55)"/>
<path d="M0 0 C1.32 0.66 2.64 1.32 4 2 C2.68 2.33 1.36 2.66 0 3 C0.26676204 4.98491642 0.26676204 4.98491642 1 7 C1.99 7.33 2.98 7.66 4 8 C4.33 9.65 4.66 11.3 5 13 C5.4125 12.21625 5.825 11.4325 6.25 10.625 C8.0392777 7.94108344 9.04988139 7.11901051 12 6 C11.2265625 6.86625 11.2265625 6.86625 10.4375 7.75 C8.76946688 9.8563365 8.76946688 9.8563365 9.1875 12.125 C9.94660836 14.19171429 9.94660836 14.19171429 12 16 C11 17 11 17 8.25 17.3125 C4.24128018 16.92704617 2.81823454 15.81823454 0 13 C-2.28098177 9.74145461 -2.33332565 6.91657643 -2 3 C-1.34 2.01 -0.68 1.02 0 0 Z " fill="#4E7446" transform="translate(39,55)"/>
<path d="M0 0 C5.69276531 0.61392567 10.53122312 2.65880708 15.75 4.875 C16.61238281 5.22691406 17.47476563 5.57882813 18.36328125 5.94140625 C19.18699219 6.28816406 20.01070312 6.63492188 20.859375 6.9921875 C21.60670898 7.30526855 22.35404297 7.61834961 23.12402344 7.94091797 C25 9 25 9 27 12 C25 13 25 13 22.47802734 12.19555664 C21.4411377 11.77137451 20.40424805 11.34719238 19.3359375 10.91015625 C18.21445312 10.45576172 17.09296875 10.00136719 15.9375 9.53320312 C14.761875 9.04787109 13.58625 8.56253906 12.375 8.0625 C11.19164062 7.58103516 10.00828125 7.09957031 8.7890625 6.60351562 C5.85649275 5.40920295 2.92705005 4.20776337 0 3 C0 2.01 0 1.02 0 0 Z " fill="#466142" transform="translate(41,41)"/>
<path d="M0 0 C3.95570883 0.65685202 7.42259166 1.84392888 11.125 3.375 C12.67574219 4.00535156 12.67574219 4.00535156 14.2578125 4.6484375 C17 6 17 6 20 9 C13.73 9 7.46 9 1 9 C1 5 1 5 3 3 C2.01 2.01 1.02 1.02 0 0 Z M6 4 C5.34 5.32 4.68 6.64 4 8 C7.63 8 11.26 8 15 8 C11.37542083 5.28156562 10.19115285 4.58210456 6 4 Z " fill="#597E4C" transform="translate(33,80)"/>
<path d="M0 0 C1.27617187 0.31710938 2.55234375 0.63421875 3.8671875 0.9609375 C11.86932936 2.56136587 19.99445497 2.4673167 28.125 2.625 C29.76564391 2.66326008 31.40626946 2.70231621 33.046875 2.7421875 C37.03109768 2.8373032 41.01541389 2.92164603 45 3 C45 3.33 45 3.66 45 4 C38.91276345 4.02467081 32.82555583 4.04284604 26.73828125 4.05493164 C24.66633599 4.05996852 22.5943943 4.06679825 20.52246094 4.07543945 C17.54881918 4.08753321 14.57522431 4.09323467 11.6015625 4.09765625 C10.67131256 4.10281754 9.74106262 4.10797882 8.78262329 4.11329651 C7.92188202 4.11337204 7.06114075 4.11344757 6.17431641 4.11352539 C5.03514267 4.11685631 5.03514267 4.11685631 3.87295532 4.12025452 C2 4 2 4 0 3 C0 2.01 0 1.02 0 0 Z " fill="#5A7B51" transform="translate(8,89)"/>
<path d="M0 0 C1.32 0.66 2.64 1.32 4 2 C1.9661126 8.61013404 -0.87826876 14.84015532 -4 21 C-4.33 18.69 -4.66 16.38 -5 14 C-4.34 14 -3.68 14 -3 14 C-3.33 13.01 -3.66 12.02 -4 11 C-3.22265625 9.0625 -3.22265625 9.0625 -2.0625 7 C-0.53230261 4.26120603 0 3.22224436 0 0 Z " fill="#406C38" transform="translate(32,43)"/>
<path d="M0 0 C2.97 0 5.94 0 9 0 C9 1.32 9 2.64 9 4 C0.09 4 -8.82 4 -18 4 C-18 3.67 -18 3.34 -18 3 C-12.06 2.67 -6.12 2.34 0 2 C0 1.34 0 0.68 0 0 Z " fill="#448038" transform="translate(53,87)"/>
<path d="M0 0 C0.99 0 1.98 0 3 0 C3 0.99 3 1.98 3 3 C3.66 2.34 4.32 1.68 5 1 C5.99 1 6.98 1 8 1 C7.67 2.98 7.34 4.96 7 7 C6.34 7 5.68 7 5 7 C5 6.34 5 5.68 5 5 C4.34 5 3.68 5 3 5 C3 5.66 3 6.32 3 7 C1.35 7 -0.3 7 -2 7 C-2.33 6.01 -2.66 5.02 -3 4 C-1.75 1.8125 -1.75 1.8125 0 0 Z " fill="#577B49" transform="translate(24,82)"/>
<path d="M0 0 C1.65 0 3.3 0 5 0 C4.34 2.64 3.68 5.28 3 8 C1.35 8 -0.3 8 -2 8 C-2.33 6.68 -2.66 5.36 -3 4 C-2.01 3.34 -1.02 2.68 0 2 C0 1.34 0 0.68 0 0 Z " fill="#407D30" transform="translate(52,59)"/>
<path d="M0 0 C0.66 0.33 1.32 0.66 2 1 C1.484375 1.4125 0.96875 1.825 0.4375 2.25 C-1.25326429 3.89081865 -1.25326429 3.89081865 -0.8125 6.0625 C-0.06529664 8.18712526 -0.06529664 8.18712526 2 10 C1 11 1 11 -2.0625 11.0625 C-3.031875 11.041875 -4.00125 11.02125 -5 11 C-5 5.97392802 -3.51117809 3.51117809 0 0 Z " fill="#537648" transform="translate(49,61)"/>
<path d="M0 0 C0.66 0.33 1.32 0.66 2 1 C2 4.66666667 2 8.33333333 2 12 C0.35 12 -1.3 12 -3 12 C-2.68950274 10.56206608 -2.3765224 9.1246682 -2.0625 7.6875 C-1.88847656 6.88699219 -1.71445313 6.08648437 -1.53515625 5.26171875 C-1 3 -1 3 0 0 Z " fill="#436637" transform="translate(68,56)"/>
<path d="M0 0 C5.34844008 0.53484401 9.35796103 2.46690767 14 5 C12 6 12 6 10.0546875 5.44140625 C8.97574219 5.00634766 8.97574219 5.00634766 7.875 4.5625 C7.15054688 4.27503906 6.42609375 3.98757812 5.6796875 3.69140625 C5.12539062 3.46324219 4.57109375 3.23507813 4 3 C4 3.66 4 4.32 4 5 C3.34 5 2.68 5 2 5 C2 3.68 2 2.36 2 1 C1.34 0.67 0.68 0.34 0 0 Z " fill="#577850" transform="translate(61,43)"/>
<path d="M0 0 C0.66 0 1.32 0 2 0 C0.125 5.75 0.125 5.75 -1 8 C-2.32 7.67 -3.64 7.34 -5 7 C-4.67 5.02 -4.34 3.04 -4 1 C-3.34 1 -2.68 1 -2 1 C-2 1.99 -2 2.98 -2 4 C-1.34 4 -0.68 4 0 4 C0 2.68 0 1.36 0 0 Z " fill="#517746" transform="translate(38,37)"/>
<path d="M0 0 C0.66 0 1.32 0 2 0 C2.125 5.75 2.125 5.75 1 8 C1.66 8.33 2.32 8.66 3 9 C2.01 9.495 2.01 9.495 1 10 C0.01 9.67 -0.98 9.34 -2 9 C-2.33 8.01 -2.66 7.02 -3 6 C-2.34 5.34 -1.68 4.68 -1 4 C-0.3574765 1.93125966 -0.3574765 1.93125966 0 0 Z " fill="#437138" transform="translate(25,66)"/>
<path d="M0 0 C0.66 0.33 1.32 0.66 2 1 C0.93359375 3.48828125 0.93359375 3.48828125 -0.1328125 5.9765625 C-0.41898438 6.64429688 -0.70515625 7.31203125 -1 8 C-1.5625 9.3125 -2.125 10.625 -2.6875 11.9375 C-3.120625 12.948125 -3.55375 13.95875 -4 15 C-4.33 15 -4.66 15 -5 15 C-4.5188509 9.22621075 -2.81532819 5.04140164 0 0 Z " fill="#507A48" transform="translate(31,45)"/>
<path d="M0 0 C0.66 0.66 1.32 1.32 2 2 C3.31747324 2.69748583 4.64914193 3.36959957 6 4 C5.67 4.99 5.34 5.98 5 7 C2.69 6.67 0.38 6.34 -2 6 C-1.34 4.02 -0.68 2.04 0 0 Z " fill="#457336" transform="translate(48,64)"/>
<path d="M0 0 C2.64 0.99 5.28 1.98 8 3 C8 3.66 8 4.32 8 5 C6.02 5.33 4.04 5.66 2 6 C1.67 5.34 1.34 4.68 1 4 C1.33 3.34 1.66 2.68 2 2 C1.34 2 0.68 2 0 2 C0 1.34 0 0.68 0 0 Z " fill="#507545" transform="translate(46,36)"/>
<path d="M0 0 C1.32 0.66 2.64 1.32 4 2 C2.68 2.33 1.36 2.66 0 3 C0 4.65 0 6.3 0 8 C-0.99 8.495 -0.99 8.495 -2 9 C-2.25 3.375 -2.25 3.375 0 0 Z " fill="#496641" transform="translate(39,55)"/>
<path d="M0 0 C1.32 1.32 2.64 2.64 4 4 C-2.75 5.125 -2.75 5.125 -5 4 C-5 3.34 -5 2.68 -5 2 C-2.525 2.495 -2.525 2.495 0 3 C0 2.01 0 1.02 0 0 Z " fill="#406B36" transform="translate(58,83)"/>
<path d="M0 0 C1.98 0.495 1.98 0.495 4 1 C3.67 2.32 3.34 3.64 3 5 C1.68 4.67 0.36 4.34 -1 4 C-0.67 2.68 -0.34 1.36 0 0 Z " fill="#5D734F" transform="translate(76,78)"/>
<path d="M0 0 C1.98 0.495 1.98 0.495 4 1 C3.34 2.32 2.68 3.64 2 5 C1.01 4.67 0.02 4.34 -1 4 C-0.67 2.68 -0.34 1.36 0 0 Z " fill="#5E7553" transform="translate(80,72)"/>
<path d="M0 0 C1.98 0.495 1.98 0.495 4 1 C3.67 2.32 3.34 3.64 3 5 C1.68 4.34 0.36 3.68 -1 3 C-0.67 2.01 -0.34 1.02 0 0 Z " fill="#59744B" transform="translate(83,82)"/>
<path d="M0 0 C0.99 0 1.98 0 3 0 C3.33 0.99 3.66 1.98 4 3 C3.01 3.66 2.02 4.32 1 5 C0.34 4.67 -0.32 4.34 -1 4 C-0.67 2.68 -0.34 1.36 0 0 Z " fill="#556B4A" transform="translate(67,82)"/>
<path d="M0 0 C0.66 0 1.32 0 2 0 C0.125 4.75 0.125 4.75 -1 7 C-1.99 6.67 -2.98 6.34 -4 6 C-2.7260411 3.96166576 -1.38938077 1.96147874 0 0 Z " fill="#3A5E33" transform="translate(57,62)"/>
<path d="M0 0 C-0.66 0 -1.32 0 -2 0 C-2 0.66 -2 1.32 -2 2 C-1.01 2.33 -0.02 2.66 1 3 C-1.64 2.67 -4.28 2.34 -7 2 C-5.26578631 -1.46842738 -3.40984787 -1.13661596 0 0 Z " fill="#436C37" transform="translate(57,41)"/>
<path d="M0 0 C0.99 0.33 1.98 0.66 3 1 C2.67 2.32 2.34 3.64 2 5 C1.01 4.67 0.02 4.34 -1 4 C-0.67 2.68 -0.34 1.36 0 0 Z " fill="#5D734D" transform="translate(71,74)"/>
<path d="M0 0 C1.98 0.495 1.98 0.495 4 1 C3.67 1.99 3.34 2.98 3 4 C1.68 3.67 0.36 3.34 -1 3 C-0.67 2.01 -0.34 1.02 0 0 Z " fill="#556842" transform="translate(74,66)"/>
</svg>
