<?xml version="1.0" encoding="UTF-8"?>
<svg version="1.1" xmlns="http://www.w3.org/2000/svg" width="100" height="100">
<path d="M0 0 C3.3 0 6.6 0 10 0 C11.17426264 2.34852528 11.11508173 3.73774065 11.09765625 6.3515625 C11.09443359 7.20234375 11.09121094 8.053125 11.08789062 8.9296875 C11.07532227 10.26386719 11.07532227 10.26386719 11.0625 11.625 C11.05798828 12.5221875 11.05347656 13.419375 11.04882812 14.34375 C11.03702591 16.56256648 11.02056155 18.78125018 11 21 C11.57967529 20.98428955 12.15935059 20.9685791 12.7565918 20.95239258 C15.40012739 20.88977209 18.04350655 20.85092482 20.6875 20.8125 C22.05551758 20.77479492 22.05551758 20.77479492 23.45117188 20.73632812 C32.03230051 20.64271581 32.03230051 20.64271581 36 24 C38.46062979 27.69094468 38.26816777 29.67044195 38.25 34.0625 C38.25773437 35.93615234 38.25773437 35.93615234 38.265625 37.84765625 C38 41 38 41 36 43 C33.87109375 43.23046875 33.87109375 43.23046875 31.4375 43.1875 C30.63183594 43.18105469 29.82617188 43.17460938 28.99609375 43.16796875 C27 43 27 43 26 42 C26 45.3 26 48.6 26 52 C29.12474627 50.36526484 29.12474627 50.36526484 29.6875 47.875 C29.790625 47.25625 29.89375 46.6375 30 46 C31.485 46.495 31.485 46.495 33 47 C32.67 48.65 32.34 50.3 32 52 C32.66 52.33 33.32 52.66 34 53 C34.268125 52.236875 34.53625 51.47375 34.8125 50.6875 C35.9666095 48.07556798 36.71287883 46.67135778 39 45 C40.32 45 41.64 45 43 45 C42.01 47.97 42.01 47.97 41 51 C41.7425 50.505 42.485 50.01 43.25 49.5 C46 48 46 48 50 48 C49.67 49.32 49.34 50.64 49 52 C50.32 52.66 51.64 53.32 53 54 C52.67 55.32 52.34 56.64 52 58 C38.47 58 24.94 58 11 58 C11 57.01 11 56.02 11 55 C9.68 54.67 8.36 54.34 7 54 C6.67 50.37 6.34 46.74 6 43 C4.35 43 2.7 43 1 43 C1 45.64 1 48.28 1 51 C2.65 51.33 4.3 51.66 6 52 C6.495 54.97 6.495 54.97 7 58 C-8.84 58 -24.68 58 -41 58 C-41.33 56.68 -41.66 55.36 -42 54 C-41.01 54 -40.02 54 -39 54 C-39.33 52.02 -39.66 50.04 -40 48 C-38.68 48.33 -37.36 48.66 -36 49 C-35.67 48.34 -35.34 47.68 -35 47 C-32.42176921 47.47745015 -30.84457237 48.10225502 -28.625 49.5625 C-25.51791059 51.26400134 -23.48719358 51.1585088 -20 51 C-19.505 51.495 -19.505 51.495 -19 52 C-19 49.03 -19 46.06 -19 43 C-20.485 43.495 -20.485 43.495 -22 44 C-23.47265625 42.96484375 -23.47265625 42.96484375 -25 41 C-25.32632361 38.41586978 -25.46469974 36.14152951 -25.4375 33.5625 C-25.45683594 32.24378906 -25.47617187 30.92507812 -25.49609375 29.56640625 C-25 26 -25 26 -23.34765625 23.58984375 C-18.58535178 20.36478898 -13.19842547 20.88492051 -7.625 20.9375 C-5.75714844 20.95103516 -5.75714844 20.95103516 -3.8515625 20.96484375 C-2.44003906 20.98224609 -2.44003906 20.98224609 -1 21 C-1.00523682 20.43490723 -1.01047363 19.86981445 -1.01586914 19.28759766 C-1.03662422 16.7334097 -1.0496554 14.17923947 -1.0625 11.625 C-1.07087891 10.73554687 -1.07925781 9.84609375 -1.08789062 8.9296875 C-1.09111328 8.07890625 -1.09433594 7.228125 -1.09765625 6.3515625 C-1.10289307 5.56604004 -1.10812988 4.78051758 -1.11352539 3.97119141 C-1 2 -1 2 0 0 Z M-17 28 C-17 28.33 -17 28.66 -17 29 C-3.47 29 10.06 29 24 29 C24 28.67 24 28.34 24 28 C10.47 28 -3.06 28 -17 28 Z M20 39 C24 40 24 40 24 40 Z M-13 42 C-13 45.96 -13 49.92 -13 54 C-12.34 53.34 -11.68 52.68 -11 52 C-9.35 52 -7.7 52 -6 52 C-6 48.7 -6 45.4 -6 42 C-8.31 42 -10.62 42 -13 42 Z M13 43 C13 45.97 13 48.94 13 52 C14.32 52 15.64 52 17 52 C17.99 53.485 17.99 53.485 19 55 C19.66 54.67 20.32 54.34 21 54 C20.67 53.67 20.34 53.34 20 53 C19.76636119 51.15108054 19.58696365 49.29511969 19.4375 47.4375 C19.35371094 46.42558594 19.26992187 45.41367188 19.18359375 44.37109375 C19.12300781 43.58863281 19.06242187 42.80617187 19 42 C16.97549079 42 14.97599474 42.59466775 13 43 Z M24 53 C23.67 53.66 23.34 54.32 23 55 C23.66 55 24.32 55 25 55 C24.67 54.34 24.34 53.68 24 53 Z " fill="#447637" transform="translate(45,35)"/>
<path d="M0 0 C1.65 0.33 3.3 0.66 5 1 C5.33 4.63 5.66 8.26 6 12 C9.12474627 10.36526484 9.12474627 10.36526484 9.6875 7.875 C9.790625 7.25625 9.89375 6.6375 10 6 C10.99 6.33 11.98 6.66 13 7 C12.67 8.65 12.34 10.3 12 12 C12.66 12.33 13.32 12.66 14 13 C14.268125 12.236875 14.53625 11.47375 14.8125 10.6875 C15.9666095 8.07556798 16.71287883 6.67135778 19 5 C20.32 5 21.64 5 23 5 C22.34 6.98 21.68 8.96 21 11 C21.7425 10.505 22.485 10.01 23.25 9.5 C26 8 26 8 30 8 C29.67 9.32 29.34 10.64 29 12 C30.32 12.66 31.64 13.32 33 14 C32.67 15.32 32.34 16.64 32 18 C27.77084853 18.02953635 23.54172428 18.04697584 19.3125 18.0625 C17.54422852 18.07506836 17.54422852 18.07506836 15.74023438 18.08789062 C7.77850456 18.10970358 -0.07229225 17.73348042 -8 17 C-7.67 16.34 -7.34 15.68 -7 15 C-4.67843403 14.59270772 -2.3431213 14.25561323 0 14 C-0.33 13.67 -0.66 13.34 -1 13 C-0.71269945 10.66055264 -0.38063221 8.3260857 0 6 C0.66 6.66 1.32 7.32 2 8 C2.33 6.35 2.66 4.7 3 3 C2.01 3 1.02 3 0 3 C0 2.01 0 1.02 0 0 Z M4 13 C3.67 13.66 3.34 14.32 3 15 C3.66 15 4.32 15 5 15 C4.67 14.34 4.34 13.68 4 13 Z " fill="#507A44" transform="translate(65,75)"/>
<path d="M0 0 C3.3 0 6.6 0 10 0 C11.17426264 2.34852528 11.11508173 3.73774065 11.09765625 6.3515625 C11.09443359 7.20234375 11.09121094 8.053125 11.08789062 8.9296875 C11.07951172 9.81914063 11.07113281 10.70859375 11.0625 11.625 C11.05798828 12.5221875 11.05347656 13.419375 11.04882812 14.34375 C11.03702591 16.56256648 11.02056155 18.78125018 11 21 C12.32 21 13.64 21 15 21 C15 21.66 15 22.32 15 23 C8.73 23 2.46 23 -4 23 C-2.68 22.67 -1.36 22.34 0 22 C-0.165 21.113125 -0.33 20.22625 -0.5 19.3125 C-2.54772364 5.09544728 -2.54772364 5.09544728 0 0 Z " fill="#467A39" transform="translate(45,35)"/>
<path d="M0 0 C3.58552881 1.63687185 4.79315055 2.68972583 7 6 C7.265625 9.28515625 7.265625 9.28515625 7.25 13.0625 C7.25773437 14.93615234 7.25773437 14.93615234 7.265625 16.84765625 C7 20 7 20 5 22 C2.8359375 22.1953125 2.8359375 22.1953125 0.375 22.125 C-0.44226563 22.10695313 -1.25953125 22.08890625 -2.1015625 22.0703125 C-2.72804687 22.04710938 -3.35453125 22.02390625 -4 22 C-4.495 20.515 -4.495 20.515 -5 19 C-2.03 19 0.94 19 4 19 C4.02703381 17.06257659 4.04641125 15.12504521 4.0625 13.1875 C4.07410156 12.10855469 4.08570313 11.02960938 4.09765625 9.91796875 C4.13624766 6.93487831 4.13624766 6.93487831 3 4 C0.36 4 -2.28 4 -5 4 C-5 5.65 -5 7.3 -5 9 C-6.23000732 8.51781006 -6.23000732 8.51781006 -7.48486328 8.02587891 C-11.45042994 6.86854378 -15.14792284 6.65031644 -19.2421875 6.5859375 C-20.01055939 6.56657135 -20.77893127 6.5472052 -21.57058716 6.5272522 C-24.00528138 6.46785883 -26.44002393 6.42123372 -28.875 6.375 C-30.53387386 6.33678307 -32.19272867 6.29772921 -33.8515625 6.2578125 C-37.90088542 6.16219093 -41.95030113 6.07801299 -46 6 C-46 5.67 -46 5.34 -46 5 C-33.46 5 -20.92 5 -8 5 C-8.99 4.01 -9.98 3.02 -11 2 C-7.29361264 -0.47092491 -4.29830496 -0.55407837 0 0 Z " fill="#4C7442" transform="translate(76,56)"/>
<path d="M0 0 C-0.33 2.64 -0.66 5.28 -1 8 C-0.01 8 0.98 8 2 8 C1.67 8.99 1.34 9.98 1 11 C-4.28 11 -9.56 11 -15 11 C-14.67 10.34 -14.34 9.68 -14 9 C-13.195625 8.896875 -12.39125 8.79375 -11.5625 8.6875 C-10.2940625 8.3471875 -10.2940625 8.3471875 -9 8 C-7.81608777 5.62374655 -7.81608777 5.62374655 -7 3 C-4.60616624 -0.15550814 -4.27173145 0 0 0 Z " fill="#4C7541" transform="translate(88,80)"/>
<path d="M0 0 C1.32 0.33 2.64 0.66 4 1 C4.38218767 2.65614657 4.71395102 4.32457024 5 6 C4.67 6.33 4.34 6.66 4 7 C12.25 7 20.5 7 29 7 C29.33 6.34 29.66 5.68 30 5 C30 5.99 30 6.98 30 8 C31.65 8 33.3 8 35 8 C35 8.33 35 8.66 35 9 C23.45 9 11.9 9 0 9 C0 6.03 0 3.06 0 0 Z " fill="#57864B" transform="translate(5,83)"/>
<path d="M0 0 C0.99 0.66 1.98 1.32 3 2 C3.29296875 4.3828125 3.29296875 4.3828125 3.1875 7.125 C3.16042969 8.03507812 3.13335937 8.94515625 3.10546875 9.8828125 C3.07066406 10.58148438 3.03585938 11.28015625 3 12 C4.32 12.33 5.64 12.66 7 13 C6.67 14.32 6.34 15.64 6 17 C4.35 17.33 2.7 17.66 1 18 C5.29 18 9.58 18 14 18 C14 18.33 14 18.66 14 19 C9.38 19 4.76 19 0 19 C0 18.01 0 17.02 0 16 C-0.99 15.67 -1.98 15.34 -3 15 C-2.01 14.67 -1.02 14.34 0 14 C0 9.38 0 4.76 0 0 Z " fill="#426538" transform="translate(56,74)"/>
<path d="M0 0 C1.98 0.495 1.98 0.495 4 1 C4 4.96 4 8.92 4 13 C2.35 13.33 0.7 13.66 -1 14 C-0.67 9.38 -0.34 4.76 0 0 Z " fill="#4B7E3B" transform="translate(53,75)"/>
<path d="M0 0 C0.33 0.66 0.66 1.32 1 2 C2.98917189 2.46910332 2.98917189 2.46910332 5.3125 2.625 C6.09238281 2.69976562 6.87226563 2.77453125 7.67578125 2.8515625 C9.78014747 2.985959 11.89134649 3 14 3 C14.33 3.99 14.66 4.98 15 6 C9.39 6 3.78 6 -2 6 C-1.34 4.02 -0.68 2.04 0 0 Z " fill="#447B32" transform="translate(10,85)"/>
<path d="M0 0 C0.33 0.66 0.66 1.32 1 2 C1.99 2 2.98 2 4 2 C3.67 2.99 3.34 3.98 3 5 C-2.28 5 -7.56 5 -13 5 C-12.67 4.34 -12.34 3.68 -12 3 C-3.89667897 1.53874539 -3.89667897 1.53874539 0 3 C0 2.01 0 1.02 0 0 Z " fill="#488135" transform="translate(86,86)"/>
<path d="M0 0 C0.33 0 0.66 0 1 0 C1 5.28 1 10.56 1 16 C2.65 16 4.3 16 6 16 C6 16.66 6 17.32 6 18 C2.37 18 -1.26 18 -5 18 C-5 17.34 -5 16.68 -5 16 C-4.01 16 -3.02 16 -2 16 C-0.89485234 12.68455701 -0.67892369 9.79589889 -0.4375 6.3125 C-0.35371094 5.13300781 -0.26992188 3.95351563 -0.18359375 2.73828125 C-0.12300781 1.83464844 -0.06242187 0.93101563 0 0 Z " fill="#528447" transform="translate(54,40)"/>
<path d="M0 0 C1.32 0.33 2.64 0.66 4 1 C4.33 2.65 4.66 4.3 5 6 C4.01 6.66 3.02 7.32 2 8 C0.23537317 4.91190305 0 3.76687864 0 0 Z " fill="#527744" transform="translate(5,83)"/>
<path d="M0 0 C1.65 0.33 3.3 0.66 5 1 C3.9024777 3.99324263 3.32317108 4.84610901 0.375 6.25 C-0.40875 6.4975 -1.1925 6.745 -2 7 C-2.66 6.34 -3.32 5.68 -4 5 C-3.01 4.34 -2.02 3.68 -1 3 C-0.67 2.01 -0.34 1.02 0 0 Z " fill="#486F3E" transform="translate(25,72)"/>
<path d="M0 0 C2.5 -0.375 2.5 -0.375 5 0 C5.66 0.99 6.32 1.98 7 3 C9.05003955 4.19232613 9.05003955 4.19232613 11 5 C9.35 5.33 7.7 5.66 6 6 C5.34 5.01 4.68 4.02 4 3 C0.91634129 2.7497843 0.91634129 2.7497843 -2 3 C-1.34 2.01 -0.68 1.02 0 0 Z " fill="#4F7941" transform="translate(53,72)"/>
<path d="M0 0 C0.66 -0.33 1.32 -0.66 2 -1 C2 -0.34 2 0.32 2 1 C2.66 1.33 3.32 1.66 4 2 C-0.29 2 -4.58 2 -9 2 C-6.95478812 -2.09042377 -3.75695417 -0.77065726 0 0 Z " fill="#568149" transform="translate(66,90)"/>
<path d="M0 0 C2.88575819 0.39803561 3.82189513 0.79009069 5.75 3.0625 C6.1625 3.701875 6.575 4.34125 7 5 C5.02 5 3.04 5 1 5 C0.67 3.35 0.34 1.7 0 0 Z " fill="#507643" transform="translate(10,82)"/>
<path d="M0 0 C0.99 0.33 1.98 0.66 3 1 C2.67 2.32 2.34 3.64 2 5 C0.35 5.33 -1.3 5.66 -3 6 C-2.34 5.34 -1.68 4.68 -1 4 C-0.3574765 1.93125966 -0.3574765 1.93125966 0 0 Z " fill="#4F6A47" transform="translate(75,81)"/>
<path d="M0 0 C2.475 0.495 2.475 0.495 5 1 C4.67 3.31 4.34 5.62 4 8 C3.67 8 3.34 8 3 8 C3 6.35 3 4.7 3 3 C2.01 3 1.02 3 0 3 C0 2.01 0 1.02 0 0 Z " fill="#58784B" transform="translate(65,75)"/>
<path d="M0 0 C1.98 0.495 1.98 0.495 4 1 C3.67 2.32 3.34 3.64 3 5 C1.68 5 0.36 5 -1 5 C-0.67 3.35 -0.34 1.7 0 0 Z " fill="#497839" transform="translate(59,86)"/>
<path d="M0 0 C0.66 0.33 1.32 0.66 2 1 C1.34 5.29 0.68 9.58 0 14 C-0.33 14 -0.66 14 -1 14 C-1.02694851 12.04174127 -1.04637218 10.08337774 -1.0625 8.125 C-1.07410156 7.03445312 -1.08570312 5.94390625 -1.09765625 4.8203125 C-1 2 -1 2 0 0 Z " fill="#578142" transform="translate(29,74)"/>
<path d="M0 0 C0.99 0.99 1.98 1.98 3 3 C2.8125 6.125 2.8125 6.125 2 9 C1.01 9.495 1.01 9.495 0 10 C0 6.7 0 3.4 0 0 Z " fill="#446E3B" transform="translate(44,39)"/>
<path d="M0 0 C1.32 0.33 2.64 0.66 4 1 C3.67 1.99 3.34 2.98 3 4 C2.01 4 1.02 4 0 4 C0 2.68 0 1.36 0 0 Z " fill="#576951" transform="translate(17,81)"/>
</svg>
