<?xml version="1.0" encoding="UTF-8"?>
<svg version="1.1" xmlns="http://www.w3.org/2000/svg" width="377" height="326">
<path d="M0 0 C124.41 0 248.82 0 377 0 C377 107.58 377 215.16 377 326 C252.59 326 128.18 326 0 326 C0 218.42 0 110.84 0 0 Z " fill="#FEFEFE" transform="translate(0,0)"/>
<path d="M0 0 C0.98452148 -0.00953201 1.96904297 -0.01906403 2.98339844 -0.02888489 C4.0355957 -0.02797348 5.08779297 -0.02706207 6.171875 -0.02612305 C7.80817871 -0.03255074 7.80817871 -0.03255074 9.47753906 -0.03910828 C11.78059191 -0.04484326 14.08366286 -0.04535798 16.38671875 -0.04101562 C19.90916805 -0.03785321 23.43077932 -0.06133461 26.953125 -0.08666992 C29.19270727 -0.08894275 31.43229181 -0.08964649 33.671875 -0.08862305 C35.2501709 -0.10243767 35.2501709 -0.10243767 36.86035156 -0.11653137 C46.14440021 -0.05779381 46.14440021 -0.05779381 49.921875 3.2746582 C51.26806641 5.08056641 51.26806641 5.08056641 52.2734375 7.07543945 C52.64984375 7.80569336 53.02625 8.53594727 53.4140625 9.28833008 C53.78789062 10.04694336 54.16171875 10.80555664 54.546875 11.5871582 C54.9284375 12.33416992 55.31 13.08118164 55.703125 13.85083008 C56.79010938 15.98544251 57.85816342 18.12836813 58.921875 20.2746582 C59.92145587 22.27486771 60.92137567 24.27490794 61.921875 26.2746582 C63.0363501 26.28924072 64.1508252 26.30382324 65.29907227 26.31884766 C69.4572666 26.377079 73.61493341 26.45430934 77.77270508 26.53710938 C79.567865 26.57024233 81.36312617 26.59831007 83.15844727 26.62109375 C85.74799512 26.65485485 88.33662471 26.70717945 90.92578125 26.76293945 C92.11839317 26.77252434 92.11839317 26.77252434 93.33509827 26.78230286 C99.53367135 26.94368918 104.30212103 28.15053336 109.234375 32.1496582 C113.30871954 37.28031429 113.21439369 42.28552971 113.1965332 48.55957031 C113.20164413 49.48700546 113.20675507 50.41444061 113.21202087 51.36997986 C113.22590228 54.43071983 113.22496123 57.49123427 113.22265625 60.55200195 C113.22654386 62.68282657 113.23087866 64.81365042 113.23564148 66.94447327 C113.24310049 71.40897128 113.24281462 75.87339021 113.23754883 80.33789062 C113.23175342 86.05551743 113.24868863 91.77282038 113.2718935 97.49039364 C113.28663358 101.89048654 113.28750218 106.29050148 113.28438377 110.6906147 C113.2848968 112.79851485 113.29013113 114.90641939 113.30019569 117.01429558 C113.31254843 119.96319434 113.30577528 122.9114627 113.29418945 125.86035156 C113.30183319 126.72859558 113.30947693 127.5968396 113.31735229 128.49139404 C113.26713167 134.28205187 112.2158582 138.35504322 108.546875 143.0246582 C104.2205496 146.35260082 99.91909423 146.52838116 94.60340881 146.54208374 C93.51304224 146.54888041 93.51304224 146.54888041 92.40064806 146.55581439 C89.97024006 146.56845251 87.54005632 146.56683843 85.10961914 146.56518555 C83.36494153 146.57117109 81.62026657 146.5779767 79.87559509 146.58554077 C75.14008797 146.60320341 70.40465313 146.60789621 65.66911626 146.60917234 C62.71031076 146.61059413 59.75152364 146.6148642 56.7927227 146.62016678 C46.46995756 146.63866654 36.14724406 146.64683728 25.82446289 146.64526367 C16.20240167 146.64406165 6.58056455 146.66517605 -3.04143995 146.696751 C-11.30399727 146.72289864 -19.56648131 146.73363163 -27.82907969 146.73235285 C-32.76336551 146.73184286 -37.69745209 146.737547 -42.6316967 146.75870895 C-47.27175281 146.77806636 -51.91141906 146.77823298 -56.55148888 146.76367569 C-58.25345173 146.76158352 -59.95543883 146.76631278 -61.65736008 146.77839661 C-63.9829235 146.79383783 -66.30714066 146.78454984 -68.63267517 146.76913452 C-70.58358771 146.77076882 -70.58358771 146.77076882 -72.57391262 146.77243614 C-77.49297861 146.0736764 -80.58739284 143.91960403 -83.890625 140.2746582 C-85.82078308 137.02386565 -86.2020185 133.93935111 -86.23202515 130.20294189 C-86.24492584 129.00039764 -86.24492584 129.00039764 -86.25808716 127.77355957 C-86.26234711 126.90283813 -86.26660706 126.0321167 -86.27099609 125.13500977 C-86.27917358 124.21093323 -86.28735107 123.28685669 -86.29577637 122.33477783 C-86.32057774 119.27828614 -86.33713274 116.22184073 -86.3515625 113.1652832 C-86.35688618 112.11981071 -86.36220985 111.07433823 -86.36769485 109.99718475 C-86.39440325 104.46370681 -86.41378579 98.93025124 -86.42822266 93.39672852 C-86.44156296 88.82230641 -86.46942107 84.24833026 -86.51025391 79.67407227 C-86.55960547 74.14511518 -86.58434674 68.61656265 -86.59144974 63.08739471 C-86.59815572 60.98390028 -86.61336071 58.88041464 -86.63734055 56.7770462 C-86.66904239 53.82818287 -86.66902116 50.88087454 -86.66162109 47.93188477 C-86.67802643 47.06926025 -86.69443176 46.20663574 -86.71133423 45.31787109 C-86.6482903 39.15651025 -84.98183367 35.05928489 -81.078125 30.2746582 C-77.33068542 27.21753644 -73.83667512 26.74118272 -69.078125 26.2746582 C-68.830625 25.0165332 -68.583125 23.7584082 -68.328125 22.4621582 C-67.80078667 19.7815217 -67.38701335 18.56841896 -65.38818359 16.66748047 C-62.49013466 14.92013644 -60.65802428 14.91547299 -57.2890625 14.9465332 C-55.63003906 14.95426758 -55.63003906 14.95426758 -53.9375 14.9621582 C-52.78765625 14.9827832 -51.6378125 15.0034082 -50.453125 15.0246582 C-48.71675781 15.03239258 -48.71675781 15.03239258 -46.9453125 15.0402832 C-38.38690476 15.12026832 -38.38690476 15.12026832 -36.078125 16.2746582 C-35.16588632 19.56885345 -34.67531325 22.90481022 -34.078125 26.2746582 C-30.448125 26.2746582 -26.818125 26.2746582 -23.078125 26.2746582 C-22.55863281 25.2124707 -22.03914063 24.1502832 -21.50390625 23.0559082 C-11.6789946 3.08511733 -11.6789946 3.08511733 -7.75097656 1.09651184 C-5.01716743 0.25591485 -2.85197063 0.01524272 0 0 Z " fill="#45883A" transform="translate(173.078125,85.725341796875)"/>
<path d="M0 0 C7.46471151 5.31599082 12.54310936 11.71481965 14.77734375 20.67578125 C15.90557133 31.83269843 14.48111534 40.02508436 7.5078125 48.7890625 C1.59605337 55.23461477 -5.17719628 59.2455894 -13.93359375 59.9921875 C-24.23959799 60.42528506 -32.36902279 59.04656106 -40.53515625 52.42578125 C-47.88222291 45.46462112 -51.10707437 37.88064672 -51.59765625 27.86328125 C-51.31354498 18.09882549 -47.43015969 10.80515259 -40.734375 3.84375 C-29.52654684 -5.83019188 -12.86522586 -7.66487095 0 0 Z " fill="#458639" transform="translate(210.22265625,142.32421875)"/>
<path d="M0 0 C10.8940833 7.34073972 19.07448529 17.39650125 22 30.34765625 C23.24914188 42.02330897 21.86473588 53.58438706 14.75 63.22265625 C13.53473506 64.62845002 12.28470949 66.00502953 11 67.34765625 C10.3915625 67.98445313 9.783125 68.62125 9.15625 69.27734375 C-0.70713522 78.69606816 -13.5173381 81.87188194 -26.8515625 81.59765625 C-40.7843194 80.49133312 -51.37382153 75.40457812 -61 65.34765625 C-68.97749548 55.48493174 -70.07542369 43.76808773 -69.23681641 31.51611328 C-67.97106896 19.92604232 -61.34361009 11.84563018 -53 4.34765625 C-37.70557512 -7.45564991 -17.08277972 -9.35993972 0 0 Z M-49.41796875 17.234375 C-51.80660867 20.4251261 -53.52566664 23.65406319 -55 27.34765625 C-55.4125 28.29640625 -55.825 29.24515625 -56.25 30.22265625 C-58.32999789 38.88931412 -57.25273663 47.86885798 -52.67578125 55.578125 C-47.3586386 63.0165424 -40.97340858 68.19080869 -32 70.34765625 C-21.55369164 71.39652494 -12.35562967 70.87425423 -3.5703125 64.6171875 C2.59739628 59.5515775 7.50943181 53.35580692 9 45.34765625 C9.94876553 34.82991267 8.76298854 25.9239653 2.4609375 17.22265625 C-3.61185861 10.54545863 -11.78772685 6.98715496 -20.65625 6.07421875 C-31.84234416 5.67471539 -41.82085653 8.74160324 -49.41796875 17.234375 Z " fill="#F8FCF7" transform="translate(216,131.65234375)"/>
<path d="M0 0 C0.93199219 -0.00257812 1.86398438 -0.00515625 2.82421875 -0.0078125 C3.80003906 -0.00007813 4.77585937 0.00765625 5.78125 0.015625 C6.75707031 0.00789063 7.73289062 0.00015625 8.73828125 -0.0078125 C9.67027344 -0.00523438 10.60226562 -0.00265625 11.5625 0 C12.41908203 0.00225586 13.27566406 0.00451172 14.15820312 0.00683594 C16.28125 0.265625 16.28125 0.265625 18.28125 2.265625 C18.95708149 9.24921702 18.95708149 9.24921702 16.79296875 12.50390625 C13.14451041 15.06293379 10.06252325 14.74307841 5.71875 14.578125 C4.95111328 14.56845703 4.18347656 14.55878906 3.39257812 14.54882812 C0.12694276 14.48334459 -2.60472325 14.30363392 -5.71875 13.265625 C-6.89548198 10.91216104 -6.88498866 9.3850217 -6.90625 6.765625 C-6.92042969 5.9715625 -6.93460938 5.1775 -6.94921875 4.359375 C-6.46400712 -0.04864928 -3.7600275 0.00990225 0 0 Z " fill="#FBFDFB" transform="translate(253.71875,126.734375)"/>
<path d="M0 0 C0.625 1.6875 0.625 1.6875 1 4 C0.6833992 4.68465332 0.3667984 5.36930664 0.04060364 6.07470703 C-1.39999344 10.12444159 -1.28705062 13.84966166 -1.2746582 18.1171875 C-1.27976913 19.0267218 -1.28488007 19.9362561 -1.29014587 20.87335205 C-1.30402386 23.87396865 -1.30308666 26.87435516 -1.30078125 29.875 C-1.30466871 31.96337977 -1.30900348 34.05175876 -1.31376648 36.14013672 C-1.3212245 40.51467453 -1.32094009 44.88913162 -1.31567383 49.26367188 C-1.3098749 54.86929931 -1.32682257 60.4745968 -1.3500185 66.08016968 C-1.3647487 70.39186535 -1.36562859 74.70348138 -1.36250877 79.01519775 C-1.36302218 81.08205825 -1.3682636 83.14892318 -1.37832069 85.21575928 C-1.39065597 88.10499551 -1.38391115 90.99358661 -1.37231445 93.8828125 C-1.37995819 94.73595032 -1.38760193 95.58908813 -1.39547729 96.46807861 C-1.35411991 101.12943855 -1.05042575 104.23299675 2 108 C5.66601423 110.44400949 7.80007607 110.38474036 12.17895508 110.61216736 C12.88951711 110.64966534 13.60007914 110.68716331 14.33217335 110.72579759 C21.93038457 111.09843282 29.53087022 111.17452574 37.13671875 111.20532227 C38.67600751 111.21493549 40.21529382 111.22494737 41.75457764 111.23532104 C45.8774497 111.26200404 50.00033279 111.28320812 54.12324142 111.30332303 C58.45270466 111.32541258 62.7821354 111.35268727 67.11157227 111.37937927 C75.28502676 111.42899941 83.45849959 111.47405009 91.63198948 111.51740164 C100.94780333 111.56703877 110.26358453 111.62185742 119.57936668 111.67708123 C138.71954737 111.79042938 157.859759 111.89736835 177 112 C177 112.33 177 112.66 177 113 C154.66058123 113.24731778 132.32104626 113.46590454 109.98101521 113.65021229 C99.60833424 113.73645927 89.23589979 113.83213581 78.86352539 113.94995117 C69.82382873 114.05260536 60.78416838 114.13762838 51.74411076 114.20140952 C46.95660676 114.2358049 42.16955151 114.27907511 37.38234901 114.34345436 C32.87707331 114.40376377 28.37222161 114.44050809 23.86658669 114.45913696 C22.21250815 114.4701381 20.55846118 114.48976987 18.90459824 114.51865196 C16.64619678 114.55680242 14.3897334 114.56391146 12.13105774 114.56330872 C10.23539047 114.58128368 10.23539047 114.58128368 8.30142689 114.59962177 C4.10884529 113.838144 2.70112364 112.20732216 0 109 C-0.59011871 108.43393539 -1.18023743 107.86787079 -1.78823853 107.28465271 C-3.78775507 103.51476814 -3.41611495 99.6441534 -3.38818359 95.44555664 C-3.39344055 94.47764694 -3.39869751 93.50973724 -3.40411377 92.51249695 C-3.41732209 89.31155276 -3.40857186 86.11110554 -3.3984375 82.91015625 C-3.40045816 80.68582565 -3.40336952 78.46149569 -3.40713501 76.23716736 C-3.41155964 71.57414445 -3.40512332 66.9112939 -3.39111328 62.24829102 C-3.37403142 56.27157126 -3.3838556 50.29525594 -3.40183067 44.31855106 C-3.41267314 39.72461401 -3.40921983 35.13077276 -3.4014473 30.53683281 C-3.39944606 28.33321523 -3.40190186 26.12958894 -3.40888596 23.92598152 C-3.41650674 20.84503278 -3.40488649 17.76473795 -3.38818359 14.68383789 C-3.39425629 13.7730246 -3.40032898 12.8622113 -3.40658569 11.92379761 C-3.3582028 7.10517821 -3.0798156 3.9542993 0 0 Z " fill="#5C8C51" transform="translate(92,118)"/>
<path d="M0 0 C1.01394333 0.0028299 2.02788666 0.00565979 3.07255554 0.00857544 C6.30239802 0.01974625 9.53196046 0.04484539 12.76171875 0.0703125 C14.95507411 0.0803463 17.14843383 0.08947145 19.34179688 0.09765625 C24.71103261 0.11967543 30.08010567 0.15312227 35.44921875 0.1953125 C35.44921875 0.5253125 35.44921875 0.8553125 35.44921875 1.1953125 C12.18421875 1.6903125 12.18421875 1.6903125 -11.55078125 2.1953125 C-11.55078125 2.8553125 -11.55078125 3.5153125 -11.55078125 4.1953125 C-12.21078125 4.8553125 -12.87078125 5.5153125 -13.55078125 6.1953125 C-17.28251306 11.69415966 -20.15012514 17.06086811 -21.91015625 23.48046875 C-22.55078125 25.1953125 -22.55078125 25.1953125 -24.55078125 26.1953125 C-24.55078125 26.8553125 -24.55078125 27.5153125 -24.55078125 28.1953125 C-25.21078125 28.1953125 -25.87078125 28.1953125 -26.55078125 28.1953125 C-26.55078125 28.8553125 -26.55078125 29.5153125 -26.55078125 30.1953125 C-27.21078125 30.1953125 -27.87078125 30.1953125 -28.55078125 30.1953125 C-28.55078125 29.5353125 -28.55078125 28.8753125 -28.55078125 28.1953125 C-29.54078125 28.6903125 -29.54078125 28.6903125 -30.55078125 29.1953125 C-38.01744792 29.55086806 -38.01744792 29.55086806 -41.55078125 27.1953125 C-42.04578125 22.2453125 -42.04578125 22.2453125 -42.55078125 17.1953125 C-50.47078125 16.8653125 -58.39078125 16.5353125 -66.55078125 16.1953125 C-66.55078125 15.8653125 -66.55078125 15.5353125 -66.55078125 15.1953125 C-62.75913051 15.1663788 -58.96750798 15.14853649 -55.17578125 15.1328125 C-54.09554687 15.12443359 -53.0153125 15.11605469 -51.90234375 15.10742188 C-50.35546875 15.10258789 -50.35546875 15.10258789 -48.77734375 15.09765625 C-47.82424316 15.09241943 -46.87114258 15.08718262 -45.88916016 15.08178711 C-43.55078125 15.1953125 -43.55078125 15.1953125 -41.55078125 16.1953125 C-40.63854257 19.48950775 -40.1479695 22.82546452 -39.55078125 26.1953125 C-35.92078125 26.1953125 -32.29078125 26.1953125 -28.55078125 26.1953125 C-28.03128906 25.133125 -27.51179688 24.0709375 -26.9765625 22.9765625 C-17.25163441 3.20900508 -17.25163441 3.20900508 -13.56567383 1.01220703 C-9.04764488 -0.21196698 -4.65912659 -0.04905628 0 0 Z " fill="#2E5625" transform="translate(178.55078125,85.8046875)"/>
<path d="M0 0 C1.35688431 -0.00945648 1.35688431 -0.00945648 2.74118042 -0.019104 C3.71620514 -0.01505554 4.69122986 -0.01100708 5.69580078 -0.00683594 C6.70071564 -0.00874939 7.70563049 -0.01066284 8.74099731 -0.01263428 C10.86769867 -0.01399576 12.99440835 -0.01030188 15.12109375 -0.00195312 C18.37144752 0.00872446 21.62124575 -0.00183826 24.87158203 -0.01464844 C26.9379895 -0.0133264 29.00439662 -0.01076309 31.07080078 -0.00683594 C32.04177704 -0.0108844 33.0127533 -0.01493286 34.01315308 -0.019104 C42.68283098 0.04089907 42.68283098 0.04089907 46.51611328 2.25878906 C47.82861328 4.38378906 47.82861328 4.38378906 48.51611328 6.25878906 C47.52611328 5.92878906 46.53611328 5.59878906 45.51611328 5.25878906 C45.51611328 4.59878906 45.51611328 3.93878906 45.51611328 3.25878906 C28.02611328 2.92878906 10.53611328 2.59878906 -7.48388672 2.25878906 C-4.33423701 0.15902259 -3.5925537 0.00718647 0 0 Z " fill="#518747" transform="translate(174.48388671875,86.7412109375)"/>
<path d="M0 0 C0.625 1.6875 0.625 1.6875 1 4 C0.68431061 4.6811235 0.36862122 5.36224701 0.04336548 6.06401062 C-1.41289617 10.16187356 -1.30812824 13.96945376 -1.31884766 18.28833008 C-1.32889328 19.21564941 -1.3389389 20.14296875 -1.34928894 21.09838867 C-1.38011452 24.15543005 -1.39715446 27.21238386 -1.4140625 30.26953125 C-1.43277463 32.39231621 -1.45234808 34.51509374 -1.4727478 36.63786316 C-1.5240701 42.21910214 -1.56369542 47.80036524 -1.60089111 53.38171387 C-1.64093005 59.07940639 -1.69202293 64.77699859 -1.7421875 70.47460938 C-1.83894801 81.64966911 -1.9233525 92.82478549 -2 104 C-2.33 104 -2.66 104 -3 104 C-3.06948997 91.17839154 -3.12280629 78.35682784 -3.15543652 65.53506947 C-3.17109685 59.58149886 -3.19234211 53.62805703 -3.22631836 47.67456055 C-3.25889828 41.92982911 -3.27685025 36.18522159 -3.28463173 30.44040489 C-3.29017766 28.2479323 -3.3010074 26.05546653 -3.31719017 23.86304665 C-3.33894594 20.79372082 -3.34196766 17.72490802 -3.34057617 14.65551758 C-3.351362 13.74777084 -3.36214783 12.84002411 -3.3732605 11.9047699 C-3.34959759 7.08568519 -3.08357765 3.95485403 0 0 Z " fill="#64975A" transform="translate(92,118)"/>
<path d="M0 0 C1.32 0.33 2.64 0.66 4 1 C2.5834979 4.4232134 0.93172851 5.82484659 -2 8 C-2.33 8.99 -2.66 9.98 -3 11 C-4.65 11.33 -6.3 11.66 -8 12 C-8 12.66 -8 13.32 -8 14 C-10.07772471 14.86772029 -12.16243177 15.71873619 -14.25 16.5625 C-15.41015625 17.03816406 -16.5703125 17.51382813 -17.765625 18.00390625 C-20.86266644 18.95770524 -22.07321701 19.20983356 -25 18 C-24.09378906 17.5875 -23.18757812 17.175 -22.25390625 16.75 C-13.49428225 12.64227088 -5.51313868 8.26970803 0 0 Z " fill="#426E39" transform="translate(231,193)"/>
<path d="M0 0 C0.79293457 0.8149292 1.58586914 1.6298584 2.40283203 2.46948242 C6.5332433 5.89087269 10.38190151 5.64245346 15.5546875 5.48828125 C16.45623566 5.48120651 17.35778381 5.47413177 18.28665161 5.46684265 C21.1502986 5.43897892 24.0119497 5.376257 26.875 5.3125 C28.82288832 5.28740669 30.77080745 5.26459533 32.71875 5.24414062 C37.4799291 5.18917868 42.23962683 5.10296295 47 5 C47 5.66 47 6.32 47 7 C48.45833358 8.62514468 48.45833358 8.62514468 50 10 C49.19046875 9.67386719 48.3809375 9.34773438 47.546875 9.01171875 C43.31849536 7.80560606 39.61471573 7.74137684 35.25 7.8125 C34.09951172 7.8134668 34.09951172 7.8134668 32.92578125 7.81445312 C28.83060861 7.76083394 28.83060861 7.76083394 25 9 C24.31164062 8.86078125 23.62328125 8.7215625 22.9140625 8.578125 C20.45880673 8.09102332 18.38105092 7.90670581 15.8984375 7.859375 C15.16109375 7.84003906 14.42375 7.82070312 13.6640625 7.80078125 C12.13047734 7.76675974 10.5964603 7.7486849 9.0625 7.74609375 C6.8359375 7.671875 6.8359375 7.671875 3 7 C0.96971535 4.56992957 0 3.18088419 0 0 Z " fill="#558D4A" transform="translate(230,109)"/>
<path d="M0 0 C0.72018311 0.16298584 1.44036621 0.32597168 2.18237305 0.49389648 C4.89402117 0.98096403 7.33219353 1.11452642 10.08203125 1.09765625 C11.01337891 1.09443359 11.94472656 1.09121094 12.90429688 1.08789062 C14.34385742 1.07532227 14.34385742 1.07532227 15.8125 1.0625 C16.79154297 1.05798828 17.77058594 1.05347656 18.77929688 1.04882812 C21.18626111 1.03708684 23.59309857 1.02066419 26 1 C23 3 23 3 21 3 C21 3.66 21 4.32 21 5 C18.37472811 5.05382106 15.75055287 5.09358313 13.125 5.125 C12.37863281 5.14175781 11.63226563 5.15851563 10.86328125 5.17578125 C8.90805539 5.1933959 6.95257979 5.10320189 5 5 C4.34 4.34 3.68 3.68 3 3 C2.01 2.67 1.02 2.34 0 2 C0 1.34 0 0.68 0 0 Z " fill="#497740" transform="translate(179,197)"/>
<path d="M0 0 C0.66 0.33 1.32 0.66 2 1 C1.34 1.99 0.68 2.98 0 4 C-1.32 4 -2.64 4 -4 4 C-5.19625 4.515625 -6.3925 5.03125 -7.625 5.5625 C-8.73875 6.036875 -9.8525 6.51125 -11 7 C-11.66 6.67 -12.32 6.34 -13 6 C-13.33 6.66 -13.66 7.32 -14 8 C-20.27 7.67 -26.54 7.34 -33 7 C-33 6.67 -33 6.34 -33 6 C-28.38 5.67 -23.76 5.34 -19 5 C-19 4.67 -19 4.34 -19 4 C-18.21496094 3.96261719 -17.42992187 3.92523438 -16.62109375 3.88671875 C-10.34837536 3.49419281 -5.64719825 2.70083395 0 0 Z " fill="#538748" transform="translate(217,208)"/>
<path d="M0 0 C6.83981276 0.51621228 12.63876684 2.48590969 19 5 C19 5.66 19 6.32 19 7 C20.68522729 8.70484466 20.68522729 8.70484466 22.8125 10.4375 C25.31102718 12.54463676 27.7242056 14.65241398 30 17 C29.67 17.66 29.34 18.32 29 19 C28.18208984 18.11248047 28.18208984 18.11248047 27.34765625 17.20703125 C19.18805024 8.65688 11.11368848 4.71841166 0 1 C0 0.67 0 0.34 0 0 Z " fill="#386131" transform="translate(201,126)"/>
<path d="M0 0 C0.33 0.66 0.66 1.32 1 2 C0.2578125 3.734375 0.2578125 3.734375 -0.875 5.75 C-5.08351116 13.84775595 -5.09756104 22.97463163 -2.5 31.625 C-2.01383287 33.08800295 -1.51890993 34.5482877 -1 36 C-4.11926401 33.4478749 -5.00859954 30.85753449 -6 27 C-6.32132675 22.6593658 -6.15619664 18.34747316 -6 14 C-5.98195312 13.11957031 -5.96390625 12.23914063 -5.9453125 11.33203125 C-5.69718831 6.9752624 -5.34192355 5.40864034 -2.4375 1.9375 C-1.633125 1.298125 -0.82875 0.65875 0 0 Z " fill="#558B4A" transform="translate(167,151)"/>
<path d="M0 0 C23.265 0.495 23.265 0.495 47 1 C47 1.33 47 1.66 47 2 C31.16 2.33 15.32 2.66 -1 3 C-0.67 2.01 -0.34 1.02 0 0 Z " fill="#E1F3DD" transform="translate(167,84)"/>
<path d="M0 0 C3.3225321 2.68966885 4.44306808 6.10767021 6 10 C6.33 10.66 6.66 11.32 7 12 C6.66015625 14.3828125 6.66015625 14.3828125 6.0625 17.125 C5.86785156 18.03507812 5.67320312 18.94515625 5.47265625 19.8828125 C5.31667969 20.58148438 5.16070312 21.28015625 5 22 C4.67 22 4.34 22 4 22 C3.67 19.36 3.34 16.72 3 14 C2.01 14 1.02 14 0 14 C0.350625 13.2575 0.70125 12.515 1.0625 11.75 C2.08687336 8.74517149 1.99962907 7.90801184 1 5 C0.65939189 3.33480481 0.32441604 1.66842534 0 0 Z " fill="#518C45" transform="translate(218,153)"/>
<path d="M0 0 C0.33 0 0.66 0 1 0 C0.6984841 7.23638168 -2.50798559 11.60032251 -7.625 16.58203125 C-10.03057791 18.66887009 -11.95998168 19.98666056 -15 21 C-14 18 -14 18 -11.625 16.625 C-8.58610337 14.74377828 -7.72655197 13.07776656 -6 10 C-5.319375 9.360625 -4.63875 8.72125 -3.9375 8.0625 C-1.58531032 5.55855614 -0.89494682 3.28147168 0 0 Z " fill="#558A4B" transform="translate(221,177)"/>
<path d="M0 0 C2.5 1.375 2.5 1.375 5 3 C5 3.66 5 4.32 5 5 C5.55171875 5.27585938 6.1034375 5.55171875 6.671875 5.8359375 C10.78125 7.890625 14.890625 9.9453125 19 12 C18.67 12.66 18.34 13.32 18 14 C13.00024554 12.84621051 10.4765823 11.70087794 7 8 C5.948125 7.525625 4.89625 7.05125 3.8125 6.5625 C1 5 1 5 0.125 2.3125 C0.08375 1.549375 0.0425 0.78625 0 0 Z " fill="#548C48" transform="translate(155,199)"/>
<path d="M0 0 C0.99 0.33 1.98 0.66 3 1 C2.01 1.495 2.01 1.495 1 2 C1 4.64 1 7.28 1 10 C0.34 10 -0.32 10 -1 10 C-1 10.66 -1 11.32 -1 12 C-1.99 12.33 -2.98 12.66 -4 13 C-4.66 12.34 -5.32 11.68 -6 11 C-5.34 10.01 -4.68 9.02 -4 8 C-3.7834375 6.4840625 -3.7834375 6.4840625 -3.5625 4.9375 C-3.376875 3.968125 -3.19125 2.99875 -3 2 C-2.01 1.34 -1.02 0.68 0 0 Z " fill="#538649" transform="translate(108,104)"/>
<path d="M0 0 C2.12493141 -0.02693575 4.24995912 -0.04636628 6.375 -0.0625 C7.55835938 -0.07410156 8.74171875 -0.08570312 9.9609375 -0.09765625 C13 0 13 0 15 1 C15.6328125 3.50390625 15.6328125 3.50390625 16.125 6.5625 C16.29257813 7.57441406 16.46015625 8.58632812 16.6328125 9.62890625 C16.75398438 10.41136719 16.87515625 11.19382812 17 12 C16.34 12 15.68 12 15 12 C13.68373308 8.38026598 13 5.90432869 13 2 C8.71 2 4.42 2 0 2 C0 1.34 0 0.68 0 0 Z " fill="#588E4C" transform="translate(121,102)"/>
<path d="M0 0 C0.33 0 0.66 0 1 0 C1.0825 1.093125 1.165 2.18625 1.25 3.3125 C1.65029319 6.91541907 1.65029319 6.91541907 3.5625 8.6875 C6.88210696 10.47498067 10.06187105 10.56549195 13.75 10.6875 C14.79607422 10.73874023 14.79607422 10.73874023 15.86328125 10.79101562 C17.57497108 10.87308295 19.2874576 10.93822919 21 11 C21 11.33 21 11.66 21 12 C18.2291017 12.02696009 15.4584655 12.04681952 12.6875 12.0625 C11.50897461 12.07506836 11.50897461 12.07506836 10.30664062 12.08789062 C9.54931641 12.09111328 8.79199219 12.09433594 8.01171875 12.09765625 C6.96697388 12.10551147 6.96697388 12.10551147 5.90112305 12.11352539 C4 12 4 12 1 11 C-0.20272819 8.59454362 -0.10071472 7.05003047 -0.0625 4.375 C-0.05347656 3.55773437 -0.04445312 2.74046875 -0.03515625 1.8984375 C-0.02355469 1.27195313 -0.01195312 0.64546875 0 0 Z " fill="#C3DABF" transform="translate(247,129)"/>
<path d="M0 0 C0.96904891 2.61643204 1.1300893 3.68346274 0.04931641 6.31323242 C-1.05582829 9.14294797 -1.30801319 11.27837583 -1.4140625 14.30078125 C-1.45273438 15.27724609 -1.49140625 16.25371094 -1.53125 17.25976562 C-1.5621875 18.26716797 -1.593125 19.27457031 -1.625 20.3125 C-1.66367188 21.33923828 -1.70234375 22.36597656 -1.7421875 23.42382812 C-1.83614897 25.94904265 -1.9218154 28.47425592 -2 31 C-2.33 31 -2.66 31 -3 31 C-3.08725659 26.7709638 -3.1404789 22.54215988 -3.1875 18.3125 C-3.21263672 17.11431641 -3.23777344 15.91613281 -3.26367188 14.68164062 C-3.27333984 13.52470703 -3.28300781 12.36777344 -3.29296875 11.17578125 C-3.3086792 10.11270752 -3.32438965 9.04963379 -3.34057617 7.9543457 C-2.95538304 4.61296788 -1.91371689 2.73041268 0 0 Z " fill="#5E9254" transform="translate(92,118)"/>
<path d="M0 0 C6.6 0.33 13.2 0.66 20 1 C20 1.33 20 1.66 20 2 C19.154375 2.06058594 18.30875 2.12117188 17.4375 2.18359375 C11.2640078 2.63959033 5.13310616 3.15820112 -1 4 C-0.67 2.68 -0.34 1.36 0 0 Z " fill="#35602B" transform="translate(178,124)"/>
<path d="M0 0 C3.50778211 4.20933853 7 9.4255442 7 15 C0.75 8.75 0.75 8.75 0.375 4.375 C0.30023438 3.55773437 0.22546875 2.74046875 0.1484375 1.8984375 C0.09945312 1.27195313 0.05046875 0.64546875 0 0 Z " fill="#386330" transform="translate(147,182)"/>
<path d="M0 0 C1.32 0.33 2.64 0.66 4 1 C2.824375 2.546875 2.824375 2.546875 1.625 4.125 C-0.64396852 7.28098738 -1.98535871 10.21815519 -3 14 C-4.60577252 9.98556871 -3.36580696 6.95365173 -2 3 C-1.34 2.01 -0.68 1.02 0 0 Z " fill="#E5F4E1" transform="translate(164,148)"/>
<path d="M0 0 C6.93 0 13.86 0 21 0 C21 0.99 21 1.98 21 3 C20.01 2.67 19.02 2.34 18 2 C16.59335074 1.85507877 15.1818867 1.75371069 13.76953125 1.68359375 C12.56586914 1.62075195 12.56586914 1.62075195 11.33789062 1.55664062 C10.50451172 1.51732422 9.67113281 1.47800781 8.8125 1.4375 C7.96751953 1.39431641 7.12253906 1.35113281 6.25195312 1.30664062 C4.16815567 1.20068482 2.08409897 1.0998498 0 1 C0 0.67 0 0.34 0 0 Z " fill="#EEFBEA" transform="translate(249,127)"/>
<path d="M0 0 C1.49080078 0.16628906 1.49080078 0.16628906 3.01171875 0.3359375 C3.77097656 0.43132812 4.53023437 0.52671875 5.3125 0.625 C5.3125 0.955 5.3125 1.285 5.3125 1.625 C4.39726563 1.74617188 3.48203125 1.86734375 2.5390625 1.9921875 C0.75628906 2.24355469 0.75628906 2.24355469 -1.0625 2.5 C-2.24585937 2.66242188 -3.42921875 2.82484375 -4.6484375 2.9921875 C-7.78316659 3.3552585 -7.78316659 3.3552585 -9.6875 5.625 C-9.375 3.75 -9.375 3.75 -8.6875 1.625 C-5.1388865 -0.74074234 -4.1110475 -0.48365265 0 0 Z " fill="#48753F" transform="translate(115.6875,101.375)"/>
<path d="M0 0 C2.4375 0.6875 2.4375 0.6875 5 2 C5.8125 4.625 5.8125 4.625 6 7 C6.66 7 7.32 7 8 7 C7.67 7.99 7.34 8.98 7 10 C5.83043409 8.52312468 4.66441854 7.04343707 3.5 5.5625 C2.8503125 4.73878906 2.200625 3.91507813 1.53125 3.06640625 C0 1 0 1 0 0 Z " fill="#E3F3DD" transform="translate(151,190)"/>
<path d="M0 0 C0.66 0.99 1.32 1.98 2 3 C1.0409375 3.7425 1.0409375 3.7425 0.0625 4.5 C-2.81515269 7.98806387 -2.70230736 10.53461041 -3 15 C-3.33 15 -3.66 15 -4 15 C-4 11.37 -4 7.74 -4 4 C-3.34 4 -2.68 4 -2 4 C-1.34 2.68 -0.68 1.36 0 0 Z " fill="#528A47" transform="translate(248,123)"/>
<path d="M0 0 C0.99 0.33 1.98 0.66 3 1 C2.34 1.66 1.68 2.32 1 3 C0.09973015 4.35858905 -0.77332804 5.73542997 -1.625 7.125 C-2.29402344 8.21167969 -2.29402344 8.21167969 -2.9765625 9.3203125 C-3.31429687 9.87460938 -3.65203125 10.42890625 -4 11 C-5.21811255 7.34566236 -4.56632223 6.39369816 -3 3 C-2 1 -2 1 0 0 Z " fill="#568C4C" transform="translate(164,89)"/>
<path d="M0 0 C0.66 0.33 1.32 0.66 2 1 C1.67 2.11375 1.34 3.2275 1 4.375 C-0.088643 7.69459717 -0.088643 7.69459717 0 10 C-0.99 10.33 -1.98 10.66 -3 11 C-3.32613618 6.32538149 -2.70582788 3.83325617 0 0 Z " fill="#538748" transform="translate(149,148)"/>
<path d="M0 0 C0.33 0.99 0.66 1.98 1 3 C1.66 3 2.32 3 3 3 C3 6.3 3 9.6 3 13 C1.12396022 10.18594033 0.50907198 8.59075334 -0.1875 5.375 C-0.36667969 4.57835937 -0.54585937 3.78171875 -0.73046875 2.9609375 C-0.81941406 2.31382812 -0.90835938 1.66671875 -1 1 C-0.67 0.67 -0.34 0.34 0 0 Z " fill="#54884B" transform="translate(145,176)"/>
<path d="M0 0 C0.66 0.33 1.32 0.66 2 1 C0.71520959 2.50589388 -0.57804082 4.00457375 -1.875 5.5 C-2.95394531 6.75296875 -2.95394531 6.75296875 -4.0546875 8.03125 C-4.69664062 8.6809375 -5.33859375 9.330625 -6 10 C-6.66 10 -7.32 10 -8 10 C-6.34908222 5.70761377 -3.26245434 3.1206085 0 0 Z " fill="#F0FCEC" transform="translate(163,136)"/>
<path d="M0 0 C0.33 0.99 0.66 1.98 1 3 C0.67 3.66 0.34 4.32 0 5 C-2.48412207 5.82804069 -4.35220307 6 -7 6 C-4.69 4.02 -2.38 2.04 0 0 Z " fill="#558E49" transform="translate(175,144)"/>
<path d="M0 0 C-0.639375 0.103125 -1.27875 0.20625 -1.9375 0.3125 C-2.9584375 0.6528125 -2.9584375 0.6528125 -4 1 C-4.33 1.99 -4.66 2.98 -5 4 C-6.65 3.67 -8.3 3.34 -10 3 C-4.37755102 -1.45918367 -4.37755102 -1.45918367 0 0 Z " fill="#3E6437" transform="translate(183,141)"/>
<path d="M0 0 C2 2 2 2 2.125 5.125 C2.08375 6.07375 2.0425 7.0225 2 8 C1.01 8.33 0.02 8.66 -1 9 C-0.67 6.03 -0.34 3.06 0 0 Z " fill="#417935" transform="translate(273,128)"/>
<path d="M0 0 C1.58409994 0.11487748 3.16728963 0.24234508 4.75 0.375 C6.07257813 0.47941406 6.07257813 0.47941406 7.421875 0.5859375 C9.99066382 0.99850055 11.75841015 1.71160957 14 3 C8.34264585 4.55577239 5.20333134 3.24281523 0 1 C0 0.67 0 0.34 0 0 Z " fill="#DFF0DB" transform="translate(194,126)"/>
<path d="M0 0 C0.33 0.66 0.66 1.32 1 2 C-2.3 1.67 -5.6 1.34 -9 1 C-4.88348273 -1.05825864 -4.13191749 -1.34008135 0 0 Z " fill="#EEFAEA" transform="translate(202,137)"/>
<path d="M0 0 C0.33 0 0.66 0 1 0 C1.04254356 1.99954746 1.04080783 4.00041636 1 6 C-1.04698414 8.04698414 -5.30411241 7.70045693 -8 8 C-8 7.34 -8 6.68 -8 6 C-5.69 5.34 -3.38 4.68 -1 4 C-0.67 2.68 -0.34 1.36 0 0 Z " fill="#EFFEE9" transform="translate(104,106)"/>
<path d="M0 0 C1.39195915 4.17587745 -0.17676781 6.13474776 -2 10 C-2.33 10 -2.66 10 -3 10 C-2.25 3.375 -2.25 3.375 0 0 Z " fill="#E5F4E2" transform="translate(235,182)"/>
<path d="M0 0 C2.22050056 2.22050056 2.57774742 2.9597814 3 6 C2.72949547 8.00946222 2.40632091 10.01354224 2 12 C1.67 12 1.34 12 1 12 C0.92652344 10.93458984 0.92652344 10.93458984 0.8515625 9.84765625 C0.73941406 8.46900391 0.73941406 8.46900391 0.625 7.0625 C0.55539063 6.14597656 0.48578125 5.22945313 0.4140625 4.28515625 C0.27742187 3.53105469 0.14078125 2.77695313 0 2 C-0.66 1.67 -1.32 1.34 -2 1 C-1.34 0.67 -0.68 0.34 0 0 Z " fill="#E3F4DE" transform="translate(137,100)"/>
</svg>
