<?xml version="1.0" encoding="UTF-8"?>
<svg version="1.1" xmlns="http://www.w3.org/2000/svg" width="362" height="340">
<path d="M0 0 C119.46 0 238.92 0 362 0 C362 112.2 362 224.4 362 340 C242.54 340 123.08 340 0 340 C0 227.8 0 115.6 0 0 Z " fill="#FEFEFE" transform="translate(0,0)"/>
<path d="M0 0 C1.96453125 -0.03867188 1.96453125 -0.03867188 3.96875 -0.078125 C7.59154393 0.25850629 8.93439442 0.76293337 11.5 3.25 C11.16464654 9.27891007 9.74614687 11.66071951 5.3125 15.6875 C-3.03374345 22.92264934 -3.03374345 22.92264934 -6.8125 32.75 C-3.92907119 40.4391435 2.18377567 45.75915738 9.5 49.25 C12.87303341 50.99398709 12.87303341 50.99398709 16.5 50.25 C21.89025413 45.65409911 26.08525064 39.73548031 30.11328125 33.94140625 C31.74032725 31.95686845 33.32092686 30.60725127 35.5 29.25 C39.57635432 29.25 41.72825283 29.63655994 44.9375 32.1875 C47.78250385 37.76370755 47.1915487 42.63374276 45.6171875 48.58984375 C41.28078859 61.58468153 34.89775617 74.57335964 22.6875 81.75 C13.61049064 85.65014082 4.64797175 82.76115658 -4.30615234 79.94165039 C-5.04945801 79.7121167 -5.79276367 79.48258301 -6.55859375 79.24609375 C-7.55330688 78.92402954 -7.55330688 78.92402954 -8.56811523 78.59545898 C-10.93202906 78.17274471 -12.22448768 78.48420164 -14.5 79.25 C-20.67384795 83.71282348 -25.98184579 89.58488968 -31.34765625 94.96484375 C-32.57094887 96.18670128 -32.57094887 96.18670128 -33.81895447 97.4332428 C-35.53198008 99.14559193 -37.24375965 100.85918842 -38.9543457 102.57397461 C-41.55503552 105.18002015 -44.16101956 107.78068522 -46.76757812 110.38085938 C-48.44042486 112.05436699 -50.11296134 113.72818482 -51.78515625 115.40234375 C-52.94012352 116.55427467 -52.94012352 116.55427467 -54.11842346 117.72947693 C-58.21578692 121.84442599 -62.1308654 126.05088173 -65.92167664 130.44929504 C-68.09216947 132.92560459 -70.39810987 135.24311008 -72.7421875 137.5546875 C-73.66257812 138.46734375 -74.58296875 139.38 -75.53125 140.3203125 C-76.96640027 141.73574916 -78.40155442 143.15118191 -79.83691406 144.56640625 C-81.24482315 145.95632591 -82.64980398 147.34920977 -84.0546875 148.7421875 C-84.88468262 149.56058105 -85.71467773 150.37897461 -86.56982422 151.22216797 C-89.51889129 154.32044157 -89.60934043 156.20732653 -89.8125 160.375 C-90.37289075 166.67939593 -91.62933245 171.50414408 -96.296875 175.96875 C-103.13789331 181.37792727 -109.25270107 183.57463396 -117.94921875 183.6484375 C-120.89686398 183.188009 -122.29072175 182.20575452 -124.5 180.25 C-124.42144295 177.02916105 -124.06286583 174.89307767 -121.91015625 172.43359375 C-120.66121264 171.25105614 -119.38946522 170.09203317 -118.09375 168.9609375 C-116.26451102 166.99719565 -115.74556847 165.91032513 -115.5 163.25 C-117.14168842 157.28680826 -121.17839109 152.33725393 -126.5 149.25 C-130.89849357 149.04054793 -133.32626606 151.40177723 -136.5 154.25 C-137.180625 154.95125 -137.86125 155.6525 -138.5625 156.375 C-140.5335258 158.28244432 -141.9022965 159.38409883 -144.5 160.25 C-149.02631579 159.72368421 -149.02631579 159.72368421 -150.5 158.25 C-151.31947018 152.44109748 -151.19961885 147.52921121 -148 142.5 C-143.7085334 136.84906171 -138.50028173 131.19773679 -131.5 129.25 C-129.22509889 129.20528783 -126.98371863 129.30913063 -124.71191406 129.43310547 C-115.89367554 130.19083826 -115.89367554 130.19083826 -108.25 126.625 C-106.98378481 125.1807233 -105.73602642 123.72019549 -104.5 122.25 C-103.01894705 120.88208304 -101.53573151 119.51631023 -100.03442383 118.1706543 C-90.10861655 109.22534132 -80.79538912 99.60597088 -71.39941406 90.11254883 C-66.19188962 84.86110599 -61.00970545 79.66616303 -55.37524414 74.86743164 C-51.59951352 71.61079639 -48.01731635 68.1563143 -44.4375 64.6875 C-43.65439453 63.95853516 -42.87128906 63.22957031 -42.06445312 62.47851562 C-37.68298485 58.49253067 -37.68298485 58.49253067 -36.40625 53.015625 C-36.7671875 52.10296875 -37.128125 51.1903125 -37.5 50.25 C-37.74878906 49.46238281 -37.99757813 48.67476562 -38.25390625 47.86328125 C-38.52074219 47.10402344 -38.78757812 46.34476563 -39.0625 45.5625 C-41.98273593 35.90548216 -41.03103526 27.25595863 -36.5 18.25 C-30.17949549 8.59620349 -20.26845051 4.1426847 -9.60546875 0.625 C-6.3999933 0.05408044 -3.25276901 0.03841853 0 0 Z " fill="#46893A" transform="translate(246.5,84.75)"/>
<path d="M0 0 C3.99531657 0.53703664 7.4731097 1.83698693 10.64453125 4.35546875 C12.18447219 6.90129704 12.8128151 8.99494739 13.58203125 11.91796875 C14.32788682 15.31255789 14.32788682 15.31255789 16.33203125 16.98046875 C16.76515625 17.43421875 17.19828125 17.88796875 17.64453125 18.35546875 C17.40952119 23.20674789 15.11086655 25.34325644 11.70703125 28.60546875 C10.81113281 29.476875 9.91523438 30.34828125 8.9921875 31.24609375 C5.93036549 33.99714847 4.59868624 34.48065218 0.609375 34.3125 C-13.30983046 33.57083642 -13.30983046 33.57083642 -25.14453125 40.00390625 C-29.29542322 44.50890274 -31.55577135 48.47724043 -31.3046875 54.71875 C-31.26158447 55.51966064 -31.21848145 56.32057129 -31.17407227 57.14575195 C-30.51980781 69.73272786 -30.51980781 69.73272786 -34.41796875 74.16796875 C-35.69500054 75.27284535 -37.00803177 76.33763964 -38.35546875 77.35546875 C-38.94199219 77.93554688 -39.52851563 78.515625 -40.1328125 79.11328125 C-43.98986217 82.87412334 -46.81680614 84.25997457 -52.35546875 84.35546875 C-55.37515248 84.13322003 -58.36028165 83.79693624 -61.35546875 83.35546875 C-60.26294504 81.09916978 -59.17704044 79.10155154 -57.73046875 77.04296875 C-55.93600534 73.53560844 -55.94471765 71.25760423 -56.35546875 67.35546875 C-58.09663317 62.02315271 -61.08824568 59.8975292 -65.48046875 56.7890625 C-67.93702489 54.91082062 -69.20698369 53.2266814 -70.35546875 50.35546875 C-70.79847495 46.81141914 -70.58592973 44.8624829 -69.10546875 41.60546875 C-67.20071168 39.15649538 -66.20837909 38.46411266 -63.35546875 37.35546875 C-61.38050273 37.18975633 -59.39930612 37.09044089 -57.41796875 37.04296875 C-53.28800715 36.74508643 -51.60362017 36.51466022 -48.04296875 34.23046875 C-46.04001573 31.38987569 -46.04001573 31.38987569 -46.41796875 27.73046875 C-47.19246973 24.26221599 -47.19246973 24.26221599 -49.35546875 21.35546875 C-49.21294796 17.43614699 -48.97802383 15.12328668 -46.48046875 12.04296875 C-42.12727874 8.58602374 -39.94079363 7.72486755 -34.35546875 8.35546875 C-32.86754016 9.13473062 -31.40982907 9.97336352 -29.98046875 10.85546875 C-25.55766208 13.52127003 -21.47194096 14.58835362 -16.35546875 13.35546875 C-13.78587788 11.32874919 -13.19705345 9.98583305 -11.85546875 6.85546875 C-9.10449503 0.43653006 -6.71188687 -0.20636841 0 0 Z " fill="#45863A" transform="translate(177.35546875,123.64453125)"/>
<path d="M0 0 C3.15011903 3.15011903 2.81234019 6.71795607 3.07421875 11.03125 C2.96725511 15.30979567 1.99467824 16.93567808 -1 20 C-3.541129 22.12374549 -6.11113771 24.17707243 -8.7578125 26.16796875 C-11.19765695 27.97869007 -11.19765695 27.97869007 -13 31 C-12.77608862 34.43330781 -12.23486981 36.61481351 -10.4375 39.5625 C-8.74570767 42.43119134 -8.63163474 43.71909342 -9 47 C-10.390625 49.16796875 -10.390625 49.16796875 -12.25 51.1875 C-12.85328125 51.86167969 -13.4565625 52.53585938 -14.078125 53.23046875 C-16.90445498 55.83276038 -19.05767565 56.89757344 -22.875 57.3125 C-26 57 -26 57 -28.9375 55.4375 C-32.86254694 53.59513103 -34.87032273 53.77639192 -39 55 C-42.16070419 57.82799848 -42.93983103 59.31407369 -43.3125 63.5625 C-44 67 -44 67 -46.8125 69.4375 C-51.92072306 71.87551555 -57.48852771 71.79279823 -63 71 C-65.50703527 69.92090504 -66.93671031 68.83403528 -69 67 C-68.64145218 61.02420298 -67.11087687 58.29773491 -63 54 C-62.113125 53.05125 -61.22625 52.1025 -60.3125 51.125 C-58 49 -58 49 -56 49 C-56 48.34 -56 47.68 -56 47 C-54.390625 45.44921875 -54.390625 45.44921875 -52.25 43.6875 C-49.08238651 41.01237765 -46.56907035 38.26074314 -44 35 C-43.34 35 -42.68 35 -42 35 C-42 34.34 -42 33.68 -42 33 C-40.390625 31.44921875 -40.390625 31.44921875 -38.25 29.6875 C-35.08238651 27.01237765 -32.56907035 24.26074314 -30 21 C-29.34 21 -28.68 21 -28 21 C-27.773125 20.443125 -27.54625 19.88625 -27.3125 19.3125 C-25.63155975 16.35084336 -23.43228128 14.38356606 -21 12 C-20.175 11.15179688 -19.35 10.30359375 -18.5 9.4296875 C-17.675 8.58664063 -16.85 7.74359375 -16 6.875 C-15.175 6.02679688 -14.35 5.17859375 -13.5 4.3046875 C-8.93313818 0.09461176 -6.18056057 -1.78549528 0 0 Z " fill="#45863A" transform="translate(238,175)"/>
<path d="M0 0 C1.58150916 2.9264678 2.53350486 5.72496857 3.375 8.9375 C4.83680404 13.84138449 6.28560571 17.34346387 10.82421875 20.11328125 C14.74917399 22.16921018 18.75171159 23.72551348 23 25 C23 25.66 23 26.32 23 27 C22.27554688 27.15855469 21.55109375 27.31710938 20.8046875 27.48046875 C14.59673094 28.9786556 10.24772298 30.13065903 6 35 C4.3879909 38.25079577 3.17811151 41.57276651 2 45 C1.34133836 46.66984642 0.67689141 48.3374597 0 50 C-1.92586075 47.11120887 -2.72620065 44.90295404 -3.75 41.625 C-5.50779392 36.77348877 -7.30266424 33.42012836 -12 31 C-15.61657629 29.49350891 -19.26770787 28.18875497 -23 27 C-20.46142205 24.99170278 -18.09655144 23.5149978 -15.125 22.25 C-9.43165118 19.41390802 -6.1293572 15.85045428 -3.77734375 9.9140625 C-3.07009059 7.77962822 -2.39604142 5.63379486 -1.76171875 3.4765625 C-1 1 -1 1 0 0 Z " fill="#47843B" transform="translate(133,65)"/>
<path d="M0 0 C2.37939902 2.37939902 2.7641769 4.11722249 3.75 7.3125 C5.6268445 12.64301745 7.24099573 14.98920138 12 18 C14.7124618 19.3049484 14.7124618 19.3049484 17 20 C16.505 21.485 16.505 21.485 16 23 C14.906875 23.28875 13.81375 23.5775 12.6875 23.875 C8.30049683 25.21340775 7.28965979 26.07486893 5 30 C3.82987921 33.29348653 2.86756931 36.61516519 2 40 C1.34 40 0.68 40 0 40 C-0.15855469 39.33613281 -0.31710937 38.67226562 -0.48046875 37.98828125 C-1.95810531 32.3961208 -3.16171266 28.54807738 -8 25 C-10.64166939 23.79209912 -13.22469046 22.89374375 -16 22 C-14.00705778 19.8360657 -12.96972327 18.98881077 -10.125 17.9375 C-4.11881255 14.21366378 -1.90446011 6.57904401 0 0 Z " fill="#49813E" transform="translate(272,175)"/>
<path d="M0 0 C1.69663027 2.5449454 2.70116735 4.63315847 3.8125 7.4375 C5.57095598 11.43458076 7.15930345 13.7138711 11 16 C14.17921787 17.25556887 14.17921787 17.25556887 17 18 C17 18.66 17 19.32 17 20 C16.31292969 20.30292969 15.62585938 20.60585937 14.91796875 20.91796875 C8.01308948 23.93889423 8.01308948 23.93889423 4 30 C2.93400109 32.98177996 1.92986136 35.97300452 1 39 C0.34 38.67 -0.32 38.34 -1 38 C-1.67578125 35.890625 -1.67578125 35.890625 -2.3125 33.25 C-3.66708389 28.57234824 -4.92905446 25.92046093 -9 23 C-11.9490087 21.78074598 -14.91912661 20.82559352 -18 20 C-15.78703405 17.78703405 -13.97945773 17.05338444 -11.125 15.8125 C-4.6595074 12.6449676 -3.18630421 9.26233658 -0.75 2.5625 C-0.5025 1.716875 -0.255 0.87125 0 0 Z " fill="#4A8B3F" transform="translate(101,110)"/>
<path d="M0 0 C1.96453125 -0.03867188 1.96453125 -0.03867188 3.96875 -0.078125 C7.59154393 0.25850629 8.93439442 0.76293337 11.5 3.25 C11.28315508 8.79703292 10.13008112 11.29038587 6.14648438 15.13085938 C5.58251953 15.64455078 5.01855469 16.15824219 4.4375 16.6875 C3.86966797 17.22826172 3.30183594 17.76902344 2.71679688 18.32617188 C1.32450162 19.64826737 -0.0859884 20.95115676 -1.5 22.25 C-1.5 19.25 -1.5 19.25 0.3984375 17.234375 C2.0414301 15.7520536 3.68724162 14.27285036 5.3359375 12.796875 C8.03596473 9.61922563 8.60479767 7.28332917 9.5 3.25 C-9.24535507 3.68203587 -9.24535507 3.68203587 -25.9765625 11.359375 C-26.47929687 11.65328125 -26.98203125 11.9471875 -27.5 12.25 C-28.16 11.92 -28.82 11.59 -29.5 11.25 C-21.49503762 3.46739769 -10.96793638 0.12954256 0 0 Z " fill="#3E6736" transform="translate(246.5,84.75)"/>
<path d="M0 0 C0.66 0.99 1.32 1.98 2 3 C4.56675597 5.69838448 6.89548863 7.93032576 10 10 C10.33 9.34 10.66 8.68 11 8 C11.99 8 12.98 8 14 8 C13.79503906 8.59167969 13.59007812 9.18335938 13.37890625 9.79296875 C12.0002429 13.83660816 10.68249153 17.76855249 10 22 C9.34 22 8.68 22 8 22 C7.84144531 21.33613281 7.68289063 20.67226562 7.51953125 19.98828125 C6.04189469 14.3961208 4.83828734 10.54807738 0 7 C-2.64166939 5.79209912 -5.22469046 4.89374375 -8 4 C-5.44722581 1.20766929 -3.77639718 0.51032394 0 0 Z " fill="#4F7946" transform="translate(264,193)"/>
<path d="M0 0 C2.66351339 0.36738116 3.77325343 0.74953056 5.60546875 2.7734375 C8.08409507 6.7309081 7.62382292 10.4847103 7 15 C4.09604947 26.04791845 -0.53644552 38.09679074 -10 45 C-9.71125 44.46375 -9.4225 43.9275 -9.125 43.375 C-7.88653423 40.91975191 -7.88653423 40.91975191 -7.0625 37.8125 C-6.711875 36.884375 -6.36125 35.95625 -6 35 C-4.515 34.505 -4.515 34.505 -3 34 C-0.51223057 30.54296976 1.10622633 27.27471599 0.75 23 C0.5025 22.34 0.255 21.68 0 21 C0.66 21 1.32 21 2 21 C3.32042052 14.72800251 4.16891424 7.17728738 2 1 C1.34 0.67 0.68 0.34 0 0 Z " fill="#49773F" transform="translate(286,115)"/>
<path d="M0 0 C3.03188696 1.78346291 3.86525052 2.59575156 5 6 C4.01 6.66 3.02 7.32 2 8 C2.66 8 3.32 8 4 8 C3.67 10.31 3.34 12.62 3 15 C2.01 15 1.02 15 0 15 C-0.639375 14.195625 -1.27875 13.39125 -1.9375 12.5625 C-3.73434261 9.87561287 -3.73434261 9.87561287 -6.25 9.1875 C-6.8275 9.125625 -7.405 9.06375 -8 9 C-8 8.01 -8 7.02 -8 6 C-8.66 5.67 -9.32 5.34 -10 5 C-8.35 4.01 -6.7 3.02 -5 2 C-5 2.66 -5 3.32 -5 4 C-4.34 4 -3.68 4 -3 4 C-3 3.01 -3 2.02 -3 1 C-2.01 0.67 -1.02 0.34 0 0 Z " fill="#468A3A" transform="translate(272,188)"/>
<path d="M0 0 C0 4.2257063 -2.41771504 5.98077027 -5.1875 8.875 C-5.91163086 9.65037109 -5.91163086 9.65037109 -6.65039062 10.44140625 C-8.97308666 12.91687022 -11.33464689 15.32848484 -13.7578125 17.70703125 C-16.10718752 19.93250905 -16.10718752 19.93250905 -17.6875 22.8125 C-18.120625 23.534375 -18.55375 24.25625 -19 25 C-19.66 25 -20.32 25 -21 25 C-21 25.66 -21 26.32 -21 27 C-22.64453125 28.69140625 -22.64453125 28.69140625 -24.8125 30.5625 C-25.52019531 31.18253906 -26.22789062 31.80257812 -26.95703125 32.44140625 C-29 34 -29 34 -32 35 C-32.04898438 35.78246094 -32.09796875 36.56492188 -32.1484375 37.37109375 C-32.22320312 38.38300781 -32.29796875 39.39492187 -32.375 40.4375 C-32.44460937 41.44683594 -32.51421875 42.45617187 -32.5859375 43.49609375 C-32.72257813 44.32238281 -32.85921875 45.14867187 -33 46 C-33.99 46.495 -33.99 46.495 -35 47 C-35.19295926 45.50533145 -35.32658691 44.00298558 -35.4375 42.5 C-35.51871094 41.6646875 -35.59992188 40.829375 -35.68359375 39.96875 C-33.52487194 30.59372958 -21.33430832 22.28007482 -14.73828125 15.77734375 C-9.60519778 10.68870256 -4.6551657 5.53143219 0 0 Z " fill="#ECF9E9" transform="translate(191,203)"/>
<path d="M0 0 C1.21236328 0.01353516 1.21236328 0.01353516 2.44921875 0.02734375 C3.37154297 0.04474609 3.37154297 0.04474609 4.3125 0.0625 C2.00860176 2.36639824 1.18395788 2.39191723 -1.9375 2.875 C-6.45353547 3.83909746 -9.84627257 5.30895183 -12.6875 9.0625 C-14.30608489 12.3103535 -15.50934416 15.63513756 -16.6875 19.0625 C-17.34616164 20.73234642 -18.01060859 22.3999597 -18.6875 24.0625 C-20.60135532 21.19171701 -21.65182952 18.72838344 -22.8125 15.5 C-23.16570312 14.52933594 -23.51890625 13.55867188 -23.8828125 12.55859375 C-24.6875 10.0625 -24.6875 10.0625 -24.6875 8.0625 C-22.2125 8.5575 -22.2125 8.5575 -19.6875 9.0625 C-19.3575 10.7125 -19.0275 12.3625 -18.6875 14.0625 C-18.0275 14.0625 -17.3675 14.0625 -16.6875 14.0625 C-16.419375 13.155 -16.15125 12.2475 -15.875 11.3125 C-14.7777583 8.30952272 -13.84130764 6.38861225 -11.6875 4.0625 C-10.6975 3.7325 -9.7075 3.4025 -8.6875 3.0625 C-8.3575 2.4025 -8.0275 1.7425 -7.6875 1.0625 C-4.80538698 0.10179566 -2.98899956 -0.04331883 0 0 Z " fill="#476A3E" transform="translate(151.6875,90.9375)"/>
<path d="M0 0 C0.66 0.33 1.32 0.66 2 1 C1.27820557 1.71655762 0.55641113 2.43311523 -0.18725586 3.17138672 C-2.86035404 5.82640723 -5.53015971 8.48471753 -8.19897461 11.14404297 C-9.35530245 12.29533695 -10.51252554 13.44573249 -11.6706543 14.59521484 C-13.33357211 16.24602576 -14.9932611 17.90002337 -16.65234375 19.5546875 C-17.17215317 20.06933563 -17.69196259 20.58398376 -18.2275238 21.11422729 C-20.95541689 23.79849314 -20.95541689 23.79849314 -23 27 C-22.34 27.33 -21.68 27.66 -21 28 C-21.99 29.32 -22.98 30.64 -24 32 C-24.61875 31.814375 -25.2375 31.62875 -25.875 31.4375 C-28.04160178 30.76313824 -28.04160178 30.76313824 -30 32 C-29.42667654 28.35818477 -28.06870972 26.71572695 -25.4375 24.1875 C-24.70789063 23.48367187 -23.97828125 22.77984375 -23.2265625 22.0546875 C-21.2864978 20.26438218 -19.31834174 18.52813485 -17.3125 16.8125 C-11.20362218 11.57282123 -5.64792821 5.72541503 0 0 Z " fill="#3B6732" transform="translate(206,145)"/>
<path d="M0 0 C0.66 0 1.32 0 2 0 C2.10054687 0.54527344 2.20109375 1.09054688 2.3046875 1.65234375 C4.60262743 10.85984279 11.66570556 15.58861802 19 21 C15.98968256 21.93423645 15.13349732 22.04449911 12 21 C12 20.34 12 19.68 12 19 C10.68 19 9.36 19 8 19 C6.125 16.4375 6.125 16.4375 5.1484375 14.80078125 C3.10669125 11.59926757 0.51561221 8.83425642 -2 6 C-1.34 5.01 -0.68 4.02 0 3 C0 2.01 0 1.02 0 0 Z " fill="#45773B" transform="translate(237,114)"/>
<path d="M0 0 C0 4.38968456 -2.12805101 5.76905739 -5 9 C-4.34 9.33 -3.68 9.66 -3 10 C-3.6496875 10.99 -3.6496875 10.99 -4.3125 12 C-6.30067416 15.53453183 -8.0877687 19.02764733 -9 23 C-8.36088728 25.45973985 -8.36088728 25.45973985 -7 27 C-8.32 26.34 -9.64 25.68 -11 25 C-11.74455128 17.62342713 -11.18777065 12.92909918 -6.66796875 6.94921875 C-4.55218502 4.47667523 -2.40532634 2.19309167 0 0 Z " fill="#3F6F34" transform="translate(107,218)"/>
<path d="M0 0 C2.125 0.375 2.125 0.375 4 1 C3.38125 1.226875 2.7625 1.45375 2.125 1.6875 C-0.61410209 3.37929835 -1.05024472 4.99244161 -2 8 C-2.66 8 -3.32 8 -4 8 C-4.0825 8.763125 -4.165 9.52625 -4.25 10.3125 C-5.19300361 13.69159628 -6.10123034 14.0929147 -9 16 C-10.1490692 17.05899964 -11.29462794 18.12181537 -12.4375 19.1875 C-14.8699491 21.31065062 -15.64933903 21.95523477 -18.9375 22.375 C-19.618125 22.25125 -20.29875 22.1275 -21 22 C-20.43023437 21.76539063 -19.86046875 21.53078125 -19.2734375 21.2890625 C-12.59907547 17.50463042 -7.61772334 9.74771792 -3.19140625 3.59375 C-2 2 -2 2 0 0 Z " fill="#42723A" transform="translate(280,115)"/>
<path d="M0 0 C0 0.99 0 1.98 0 3 C-1.98 3.99 -1.98 3.99 -4 5 C-4 4.01 -4 3.02 -4 2 C-4.44730469 2.40992188 -4.89460937 2.81984375 -5.35546875 3.2421875 C-8.7923123 6.30530179 -11.61171544 8.45817029 -16 10 C-17.36365283 10.95824253 -18.70794169 11.94721175 -20 13 C-16.42847166 4.99485026 -9.03297886 -2.31076203 0 0 Z " fill="#46763C" transform="translate(238,175)"/>
<path d="M0 0 C0 0.99 0 1.98 0 3 C-0.680625 3.639375 -1.36125 4.27875 -2.0625 4.9375 C-3.0215625 5.9584375 -3.0215625 5.9584375 -4 7 C-3.75243555 9.07361988 -3.75243555 9.07361988 -3 11 C-3.33 11.99 -3.66 12.98 -4 14 C3.1481479 14.68439714 7.75845413 13.62204181 13.96875 9.99609375 C14.6390625 9.66738281 15.309375 9.33867187 16 9 C16.66 9.33 17.32 9.66 18 10 C16.73168307 10.81642254 15.46024069 11.62799105 14.1875 12.4375 C13.12595703 13.11619141 13.12595703 13.11619141 12.04296875 13.80859375 C8.51846389 15.86399333 5.56963231 16.18475497 1.5625 16.25 C0.61503906 16.27578125 -0.33242187 16.3015625 -1.30859375 16.328125 C-4.3902834 15.95241828 -5.71972555 15.0484735 -8 13 C-7.88759583 8.3914291 -6.61543768 6.27090202 -3.4375 3.125 C-2.30330262 2.07067568 -1.16107206 1.02465367 0 0 Z " fill="#375B2E" transform="translate(130,252)"/>
<path d="M0 0 C2.45823172 3.68734758 3.01242616 6.69699971 4 11 C2.35 9.68 0.7 8.36 -1 7 C-1.309375 8.3303125 -1.309375 8.3303125 -1.625 9.6875 C-3.41081914 13.98970065 -5.19668666 15.36096625 -9 18 C-9.99 18 -10.98 18 -12 18 C-12 18.66 -12 19.32 -12 20 C-9.525 20.99 -9.525 20.99 -7 22 C-9 23 -9 23 -11.1640625 22.44140625 C-11.97617188 22.15136719 -12.78828125 21.86132812 -13.625 21.5625 C-14.85089844 21.13130859 -14.85089844 21.13130859 -16.1015625 20.69140625 C-16.72804688 20.46324219 -17.35453125 20.23507813 -18 20 C-15.78703405 17.78703405 -13.97945773 17.05338444 -11.125 15.8125 C-4.6595074 12.6449676 -3.18630421 9.26233658 -0.75 2.5625 C-0.5025 1.716875 -0.255 0.87125 0 0 Z " fill="#416538" transform="translate(101,110)"/>
<path d="M0 0 C2.62451617 2.62451617 2.5832868 4.4877828 3.125 8.125 C3.29257812 9.22070312 3.46015625 10.31640625 3.6328125 11.4453125 C3.75398438 12.28835937 3.87515625 13.13140625 4 14 C2.68 13.34 1.36 12.68 0 12 C0 12.66 0 13.32 0 14 C-0.99 14 -1.98 14 -3 14 C-3 14.99 -3 15.98 -3 17 C-3.66 17 -4.32 17 -5 17 C-6 14 -6 14 -5.29296875 12.16796875 C-4.92816406 11.51441406 -4.56335938 10.86085937 -4.1875 10.1875 C-2.41281338 6.86533577 -1.08588288 3.6196096 0 0 Z " fill="#4F7E47" transform="translate(272,175)"/>
<path d="M0 0 C2.5575499 3.83632485 1.85656825 5.41123236 1.09375 9.74609375 C0.98175205 12.43871119 1.52456587 13.76704433 3 16 C5.05000871 16.80528889 5.05000871 16.80528889 7 17 C6.67 17.66 6.34 18.32 6 19 C3.4551366 18.63644809 1.94651807 17.96332668 -0.1875 16.5 C-2.8056905 12.88870276 -3.23582103 9.41771394 -3 5 C-1.5625 1.9375 -1.5625 1.9375 0 0 Z " fill="#548749" transform="translate(110,163)"/>
<path d="M0 0 C0.68964844 0.47050781 1.37929687 0.94101563 2.08984375 1.42578125 C7.95802081 5.31375042 13.21666657 8.10956281 20 10 C16.3558226 12.4294516 14.28758728 12.16179575 10 12 C9.67 11.01 9.34 10.02 9 9 C6.57616923 7.83046584 6.57616923 7.83046584 4 7 C2 6 2 6 0.875 2.9375 C0.58625 1.968125 0.2975 0.99875 0 0 Z " fill="#4A7841" transform="translate(136,80)"/>
<path d="M0 0 C6.15020271 -0.43930019 10.96618948 0.17146805 16 4 C18.13558907 7.39503903 18.18090684 10.02004951 18 14 C17.34 13.67 16.68 13.34 16 13 C15.40644386 10.35139573 15.25790731 7.70802678 15 5 C13.948125 5.061875 13.948125 5.061875 12.875 5.125 C10 5 10 5 7 3.9375 C3.79045999 2.93451875 2.17757984 3.06541769 -1 4 C-0.67 2.68 -0.34 1.36 0 0 Z " fill="#436F3A" transform="translate(172,124)"/>
<path d="M0 0 C3.29148243 1.13499394 3.9959869 1.99283376 5.75 5.125 C6.1625 6.07375 6.575 7.0225 7 8 C7.061875 7.4225 7.12375 6.845 7.1875 6.25 C8.32027301 3.11309013 10.34197595 1.90832496 13 0 C13.66 0.33 14.32 0.66 15 1 C14.32517578 1.55107422 14.32517578 1.55107422 13.63671875 2.11328125 C11.4702333 4.61068572 10.79330432 7.042162 9.8125 10.1875 C9.46832031 11.27417969 9.12414062 12.36085937 8.76953125 13.48046875 C8.51558594 14.31191406 8.26164062 15.14335937 8 16 C6 15 6 15 5.25390625 12.890625 C5.02574219 12.01921875 4.79757813 11.1478125 4.5625 10.25 C3.48857839 6.42552406 2.30083326 3.28690466 0 0 Z " fill="#3F6336" transform="translate(94,133)"/>
<path d="M0 0 C1.92403219 4.94751134 -0.58886937 8.95863538 -2.47265625 13.59765625 C-5.51834571 20.38229952 -8.58755555 26.85077124 -15 31 C-14.71125 30.46375 -14.4225 29.9275 -14.125 29.375 C-12.88653423 26.91975191 -12.88653423 26.91975191 -12.0625 23.8125 C-11.711875 22.884375 -11.36125 21.95625 -11 21 C-10.01 20.67 -9.02 20.34 -8 20 C-4.37573203 13.81222541 -2.12414542 6.81962476 0 0 Z " fill="#325628" transform="translate(291,129)"/>
<path d="M0 0 C2.0625 1.625 2.0625 1.625 4 4 C3.92772058 7.46941226 3.49002569 9.35919718 1.375 12.125 C-0.27720088 13.92146668 -0.27720088 13.92146668 0.3125 16.25 C0.539375 16.8275 0.76625 17.405 1 18 C-0.32 17.67 -1.64 17.34 -3 17 C-2.67 14.69 -2.34 12.38 -2 10 C-1.34 10 -0.68 10 0 10 C0 6.7 0 3.4 0 0 Z " fill="#518A45" transform="translate(123,188)"/>
<path d="M0 0 C3.08977734 0.49436437 4.61528832 1.40632248 7.3125 3.1875 C10.45732211 5.06216718 10.93896025 5.00886061 14.875 4.4375 C15.90625 3.963125 16.9375 3.48875 18 3 C18.33 2.01 18.66 1.02 19 0 C19.99 0.33 20.98 0.66 22 1 C20.02 3.31 18.04 5.62 16 8 C9.28622802 6.8638232 5.25195602 5.35800606 0 1 C0 0.67 0 0.34 0 0 Z " fill="#E6F7E1" transform="translate(247,128)"/>
<path d="M0 0 C2.47359354 0.95752008 3.73064878 1.49496645 5 3.875 C5 6 5 6 3.0625 8.25 C2.381875 8.8275 1.70125 9.405 1 10 C-0.9375 9.1875 -0.9375 9.1875 -3 8 C-3.33 7.01 -3.66 6.02 -4 5 C-2.0625 2.3125 -2.0625 2.3125 0 0 Z " fill="#4D8B44" transform="translate(101,235)"/>
<path d="M0 0 C1.64956143 2.96921058 2.66052758 5.60527583 3 9 C2.0625 11.3125 2.0625 11.3125 1 13 C0.34 12.67 -0.32 12.34 -1 12 C-1 12.99 -1 13.98 -1 15 C-1.66 15 -2.32 15 -3 15 C-3.36263859 9.1977825 -2.25684543 5.36000789 0 0 Z " fill="#5A8C4D" transform="translate(133,65)"/>
<path d="M0 0 C1.21236328 0.01353516 1.21236328 0.01353516 2.44921875 0.02734375 C3.37154297 0.04474609 3.37154297 0.04474609 4.3125 0.0625 C2.00860176 2.36639824 1.18395788 2.39191723 -1.9375 2.875 C-6.68528945 3.88095218 -9.3452115 5.40930094 -12.6875 9.0625 C-14.26023974 11.98260245 -15.53622285 14.9540517 -16.6875 18.0625 C-17.68804954 14.92564199 -17.77537223 14.27339336 -16.4375 11.0625 C-12.51508621 4.33836207 -12.51508621 4.33836207 -8.6875 3.0625 C-8.3575 2.4025 -8.0275 1.7425 -7.6875 1.0625 C-4.80538698 0.10179566 -2.98899956 -0.04331883 0 0 Z " fill="#3D6434" transform="translate(151.6875,90.9375)"/>
<path d="M0 0 C-2.64932753 1.41928261 -5.07986225 2.31863453 -8 3 C-8.99 3.495 -8.99 3.495 -10 4 C-10.68729254 6.11846285 -10.68729254 6.11846285 -11.125 8.5625 C-11.29257813 9.38878906 -11.46015625 10.21507812 -11.6328125 11.06640625 C-11.75398437 11.70449219 -11.87515625 12.34257812 -12 13 C-12.99 13 -13.98 13 -15 13 C-14.41097759 8.3385985 -13.85198797 4.20683801 -10.3125 0.875 C-6.29496658 -1.39907552 -4.39121959 -1.14171709 0 0 Z " fill="#F2FDED" transform="translate(208,229)"/>
<path d="M0 0 C1.32 0.66 2.64 1.32 4 2 C3.67 3.32 3.34 4.64 3 6 C7.62 5.67 12.24 5.34 17 5 C17 5.66 17 6.32 17 7 C13.31561811 8.84219094 9.03040063 8.36121515 5 8 C1.9375 6.6875 1.9375 6.6875 0 5 C-0.33 4.01 -0.66 3.02 -1 2 C-0.67 1.34 -0.34 0.68 0 0 Z " fill="#528747" transform="translate(171,237)"/>
<path d="M0 0 C0 0.99 0 1.98 0 3 C-4.9830386 7.54973089 -7.32520123 9.14510432 -14 9 C-14 8.34 -14 7.68 -14 7 C-11.69 7 -9.38 7 -7 7 C-7 5.35 -7 3.7 -7 2 C-4.69 1.34 -2.38 0.68 0 0 Z " fill="#44723B" transform="translate(226,223)"/>
<path d="M0 0 C0.66 0.33 1.32 0.66 2 1 C3.20643566 4.61930698 3.32268559 7.19231005 3 11 C1.125 14.25 1.125 14.25 -1 17 C-1.66 17.99 -2.32 18.98 -3 20 C-3.66 20 -4.32 20 -5 20 C-4.62403791 17.21788056 -4.32681541 15.4120716 -2.5625 13.1875 C-1 12 -1 12 1 12 C0.9278125 11.38511719 0.855625 10.77023438 0.78125 10.13671875 C0.6884375 9.32847656 0.595625 8.52023438 0.5 7.6875 C0.4071875 6.88699219 0.314375 6.08648437 0.21875 5.26171875 C0 3 0 3 0 0 Z " fill="#E8F6E2" transform="translate(119,187)"/>
<path d="M0 0 C0.99 0.33 1.98 0.66 3 1 C-1.18461538 7.64615385 -1.18461538 7.64615385 -5.3125 9.4375 C-6.6428125 9.7159375 -6.6428125 9.7159375 -8 10 C-7.67 8.68 -7.34 7.36 -7 6 C-6.34 6 -5.68 6 -5 6 C-4.731875 5.38125 -4.46375 4.7625 -4.1875 4.125 C-3 2 -3 2 0 0 Z " fill="#4C7B41" transform="translate(215,190)"/>
<path d="M0 0 C0 1.66666667 0 3.33333333 0 5 C-1.43153813 6.23178862 -2.86956293 7.45729357 -4.34765625 8.6328125 C-6.23264727 10.143449 -6.23264727 10.143449 -8.625 12.6875 C-10.77385755 14.77980867 -12.33534757 15.76886312 -15 17 C-10.60502098 10.67467725 -5.54949524 5.32751543 0 0 Z " fill="#EFFCEB" transform="translate(255,96)"/>
<path d="M0 0 C1.28132813 0.00902344 2.56265625 0.01804688 3.8828125 0.02734375 C4.87023437 0.03894531 5.85765625 0.05054688 6.875 0.0625 C6.875 0.3925 6.875 0.7225 6.875 1.0625 C5.64523438 1.15337891 5.64523438 1.15337891 4.390625 1.24609375 C2.77414063 1.37177734 2.77414063 1.37177734 1.125 1.5 C0.05765625 1.58121094 -1.0096875 1.66242188 -2.109375 1.74609375 C-4.5795441 2.00526952 -6.78651999 2.23970148 -9.125 3.0625 C-11.65624675 7.23905714 -11.28519214 11.33683194 -11.125 16.0625 C-11.785 15.7325 -12.445 15.4025 -13.125 15.0625 C-13.125 11.7625 -13.125 8.4625 -13.125 5.0625 C-12.135 4.7325 -11.145 4.4025 -10.125 4.0625 C-9.795 3.0725 -9.465 2.0825 -9.125 1.0625 C-6.12186252 -0.43906874 -3.33432478 -0.03031204 0 0 Z " fill="#E9F7E4" transform="translate(119.125,159.9375)"/>
<path d="M0 0 C0.928125 0.20625 1.85625 0.4125 2.8125 0.625 C2.8125 0.955 2.8125 1.285 2.8125 1.625 C1.554375 1.8725 0.29625 2.12 -1 2.375 C-4.0151875 3.10885516 -4.95292813 3.35915188 -7.0625 5.75 C-7.43375 6.36875 -7.805 6.9875 -8.1875 7.625 C-8.8475 7.625 -9.5075 7.625 -10.1875 7.625 C-10.1875 8.285 -10.1875 8.945 -10.1875 9.625 C-12.14677063 11.3393618 -14.14630212 13.00905168 -16.1875 14.625 C-16.8475 14.295 -17.5075 13.965 -18.1875 13.625 C-16.25305623 11.66356399 -14.31513179 9.70579606 -12.375 7.75 C-11.82779297 7.19441406 -11.28058594 6.63882813 -10.71679688 6.06640625 C-10.18505859 5.53144531 -9.65332031 4.99648437 -9.10546875 4.4453125 C-8.37493286 3.70692139 -8.37493286 3.70692139 -7.62963867 2.95361328 C-4.88387625 0.42399772 -3.78553517 -0.44535708 0 0 Z " fill="#EAF9E6" transform="translate(236.1875,162.375)"/>
<path d="M0 0 C0.66 0.33 1.32 0.66 2 1 C0.73168307 1.81642254 -0.53975931 2.62799105 -1.8125 3.4375 C-2.87404297 4.11619141 -2.87404297 4.11619141 -3.95703125 4.80859375 C-7.99679517 7.16447902 -11.40009641 7.24642341 -16 7 C-16.99 6.34 -17.98 5.68 -19 5 C-16.69107126 4.25784433 -15.40934909 3.86795191 -13.0625 4.625 C-9.99935889 5.18193475 -8.56675259 3.62769677 -6 2 C-4.34259285 1.62331656 -2.67654729 1.27942455 -1 1 C-0.67 0.67 -0.34 0.34 0 0 Z " fill="#548849" transform="translate(145,260)"/>
<path d="M0 0 C7.21471629 -0.35482211 13.12418702 0.8408662 20 3 C20 3.33 20 3.66 20 4 C12.78528371 4.35482211 6.87581298 3.1591338 0 1 C0 0.67 0 0.34 0 0 Z " fill="#416A38" transform="translate(243,164)"/>
<path d="M0 0 C0.82177734 0.54527344 0.82177734 0.54527344 1.66015625 1.1015625 C0.97050781 1.34390625 0.28085938 1.58625 -0.4296875 1.8359375 C-6.52757632 4.01076753 -12.4675129 6.37564102 -18.33984375 9.1015625 C-18.33984375 7.1015625 -18.33984375 7.1015625 -16.52734375 5.2265625 C-12.0812091 2.26247273 -5.36371243 -2.0595223 0 0 Z " fill="#E6F6E2" transform="translate(237.33984375,84.8984375)"/>
<path d="M0 0 C1 2 1 2 0 6 C3.3 6.33 6.6 6.66 10 7 C9.67 7.66 9.34 8.32 9 9 C2.07 8.505 2.07 8.505 -5 8 C-3.47524303 4.95048605 -2.07114674 2.63600494 0 0 Z " fill="#39642E" transform="translate(121,199)"/>
<path d="M0 0 C0.66 0.33 1.32 0.66 2 1 C-0.12576705 2.86751623 -1.43745442 3.93888764 -4.29003906 4.2487793 C-5.5154541 4.16237183 -5.5154541 4.16237183 -6.765625 4.07421875 C-7.65507812 4.01943359 -8.54453125 3.96464844 -9.4609375 3.90820312 C-10.38132813 3.83537109 -11.30171875 3.76253906 -12.25 3.6875 C-13.18585938 3.62626953 -14.12171875 3.56503906 -15.0859375 3.50195312 C-17.3920088 3.34899942 -19.69600533 3.1812095 -22 3 C-19.16137709 1.38989846 -17.18360333 0.75974908 -13.92578125 0.83984375 C-13.17619141 0.85080078 -12.42660156 0.86175781 -11.65429688 0.87304688 C-10.88150391 0.89431641 -10.10871094 0.91558594 -9.3125 0.9375 C-6.53735733 0.99906849 -3.77676133 1.02065604 -1 1 C-0.67 0.67 -0.34 0.34 0 0 Z " fill="#558C4A" transform="translate(183,153)"/>
<path d="M0 0 C0.66 0.33 1.32 0.66 2 1 C-1.08545727 8.78710645 -1.08545727 8.78710645 -4 11 C-6.26171875 11.29296875 -6.26171875 11.29296875 -8.6875 11.1875 C-9.89986328 11.14689453 -9.89986328 11.14689453 -11.13671875 11.10546875 C-11.75160156 11.07066406 -12.36648437 11.03585938 -13 11 C-13 10.67 -13 10.34 -13 10 C-11.906875 9.938125 -10.81375 9.87625 -9.6875 9.8125 C-5.90774614 9.39782458 -5.90774614 9.39782458 -4.25 6.6875 C-3.8375 5.800625 -3.425 4.91375 -3 4 C-2.01755155 2.65368175 -1.02323436 1.31558703 0 0 Z " fill="#EAFAE7" transform="translate(165,127)"/>
<path d="M0 0 C2.8605891 1.35937085 4.85927699 2.64520469 7 5 C6.01 6.98 5.02 8.96 4 11 C1 9 1 9 0.48828125 6.8359375 C0.43027344 6.02382812 0.37226563 5.21171875 0.3125 4.375 C0.24675781 3.55773437 0.18101562 2.74046875 0.11328125 1.8984375 C0.07589844 1.27195313 0.03851563 0.64546875 0 0 Z " fill="#4E8B44" transform="translate(209,127)"/>
<path d="M0 0 C2.19050021 0.09017996 4.378466 0.24666208 6.5625 0.4375 C7.76003906 0.53933594 8.95757812 0.64117187 10.19140625 0.74609375 C11.11824219 0.82988281 12.04507813 0.91367188 13 1 C13 1.33 13 1.66 13 2 C12.29875 2.02578125 11.5975 2.0515625 10.875 2.078125 C4.2203829 2.47595537 -0.24053994 3.64904142 -6 7 C-6.99 7.495 -6.99 7.495 -8 8 C-7.875 6.1875 -7.875 6.1875 -7 4 C-4 2.3125 -4 2.3125 -1 1 C-0.67 0.67 -0.34 0.34 0 0 Z " fill="#EBFAE7" transform="translate(113,212)"/>
<path d="M0 0 C2.4375 0.8125 2.4375 0.8125 5 2 C6.10370043 5.3111013 5.92673641 7.24748949 5.5625 10.6875 C5.46066406 11.68136719 5.35882813 12.67523438 5.25390625 13.69921875 C5.12822266 14.83810547 5.12822266 14.83810547 5 16 C4.67 16 4.34 16 4 16 C3.87882812 15.34773437 3.75765625 14.69546875 3.6328125 14.0234375 C2.71056011 9.21353658 1.69832723 4.60974535 0 0 Z " fill="#45753A" transform="translate(118,182)"/>
<path d="M0 0 C1.95264401 3.90528803 0.68983707 8.8079132 0 13 C-0.8070377 15.25031148 -1.73145696 16.95930033 -3 19 C-3.33 18.34 -3.66 17.68 -4 17 C-3.67 16.34 -3.34 15.68 -3 15 C-3.00566907 13.58273206 -3.05278376 12.16543823 -3.125 10.75 C-3.19432409 6.45883891 -2.27949534 3.70417992 0 0 Z " fill="#396331" transform="translate(156,238)"/>
<path d="M0 0 C0 2.74047048 -0.14424028 5.39566948 -0.375 8.125 C-0.44460937 9.01445312 -0.51421875 9.90390625 -0.5859375 10.8203125 C-0.79089844 11.89925781 -0.79089844 11.89925781 -1 13 C-1.99 13.495 -1.99 13.495 -3 14 C-4.43304064 11.13391871 -4.30644155 9.18699217 -4 6 C-2 2.625 -2 2.625 0 0 Z " fill="#527F48" transform="translate(195,229)"/>
<path d="M0 0 C0.66 0.33 1.32 0.66 2 1 C0 3 0 3 -2 5 C-2.7425 5.86625 -2.7425 5.86625 -3.5 6.75 C-5 8 -5 8 -9 8 C-8.67 6.68 -8.34 5.36 -8 4 C-6.68 4 -5.36 4 -4 4 C-4 3.34 -4 2.68 -4 2 C-2.125 0.9375 -2.125 0.9375 0 0 Z " fill="#4F8443" transform="translate(115,231)"/>
<path d="M0 0 C0.99 0 1.98 0 3 0 C2.835 0.66 2.67 1.32 2.5 2 C1.87816701 5.73099794 1.93591074 9.21873378 2 13 C1.34 13 0.68 13 0 13 C-0.33 14.32 -0.66 15.64 -1 17 C-1.66 16.67 -2.32 16.34 -3 16 C-2.484375 15.360625 -1.96875 14.72125 -1.4375 14.0625 C0.34517897 10.26461871 -0.08095091 8.02778634 -0.7734375 3.98828125 C-1 2 -1 2 0 0 Z " fill="#558C4A" transform="translate(237,177)"/>
<path d="M0 0 C0.99 0.33 1.98 0.66 3 1 C2 4 2 4 0.3203125 5.171875 C-2.59247211 6.21145469 -5.03622087 6.26517828 -8.125 6.25 C-9.17945313 6.25515625 -10.23390625 6.2603125 -11.3203125 6.265625 C-14 6 -14 6 -16 4 C-11.05 4 -6.1 4 -1 4 C-0.67 2.68 -0.34 1.36 0 0 Z " fill="#396430" transform="translate(189,240)"/>
<path d="M0 0 C0 3.50942292 -0.18610233 5.86054327 -2.25 8.75 C-4.57769003 10.41263573 -6.20533514 10.22659445 -9 10 C-8.06409496 8.8944811 -7.12620142 7.79064547 -6.1875 6.6875 C-5.66542969 6.07261719 -5.14335937 5.45773438 -4.60546875 4.82421875 C-3.12827531 3.14575321 -1.59960869 1.56117966 0 0 Z " fill="#508C45" transform="translate(198,155)"/>
<path d="M0 0 C0.93423645 3.01031744 1.04449911 3.86650268 0 7 C-0.66 7 -1.32 7 -2 7 C-2.33 7.99 -2.66 8.98 -3 10 C-6.0625 11.1875 -6.0625 11.1875 -9 12 C-8.60167969 11.55269531 -8.20335937 11.10539063 -7.79296875 10.64453125 C-4.82015875 7.25220061 -2.1717806 3.98159776 0 0 Z " fill="#538A49" transform="translate(208,143)"/>
<path d="M0 0 C0.33 0.66 0.66 1.32 1 2 C0.67 2.99 0.34 3.98 0 5 C0.66 5.33 1.32 5.66 2 6 C1.34 7.32 0.68 8.64 0 10 C-0.66 10 -1.32 10 -2 10 C-2.33 10.66 -2.66 11.32 -3 12 C-2.88541307 10.56163249 -2.75790884 9.12429034 -2.625 7.6875 C-2.55539063 6.88699219 -2.48578125 6.08648437 -2.4140625 5.26171875 C-2 3 -2 3 0 0 Z " fill="#3C6D30" transform="translate(210,104)"/>
<path d="M0 0 C0.74609375 1.734375 0.74609375 1.734375 1 4 C-0.65234375 6.140625 -0.65234375 6.140625 -2.9375 8.25 C-3.68902344 8.95640625 -4.44054687 9.6628125 -5.21484375 10.390625 C-5.80394531 10.92171875 -6.39304688 11.4528125 -7 12 C-7.66 11.67 -8.32 11.34 -9 11 C-6.375 7.125 -6.375 7.125 -3 6 C-3.33 5.01 -3.66 4.02 -4 3 C-3.01 2.67 -2.02 2.34 -1 2 C-0.67 1.34 -0.34 0.68 0 0 Z " fill="#436D39" transform="translate(182,209)"/>
<path d="M0 0 C0.33 0 0.66 0 1 0 C1.06058594 0.69867188 1.12117187 1.39734375 1.18359375 2.1171875 C1.26738281 3.02726563 1.35117188 3.93734375 1.4375 4.875 C1.51871094 5.77992188 1.59992188 6.68484375 1.68359375 7.6171875 C1.86989285 10.01110861 1.86989285 10.01110861 3 12 C3.25 15.5 3.25 15.5 3 19 C2.01 19.66 1.02 20.32 0 21 C0 14.07 0 7.14 0 0 Z " fill="#E9F5E4" transform="translate(145,174)"/>
<path d="M0 0 C2.24012058 3.36018087 3.0791732 4.9621667 3 9 C0.93193419 11.37504432 -1.43055637 13.19305959 -4 15 C-4 14.01 -4 13.02 -4 12 C-3.01 11.34 -2.02 10.68 -1 10 C-0.00278877 6.64574405 0.09951212 3.48292433 0 0 Z " fill="#EAFAE4" transform="translate(208,132)"/>
<path d="M0 0 C0.671875 1.70703125 0.671875 1.70703125 1 4 C-0.109375 6.32421875 -0.109375 6.32421875 -1.75 8.6875 C-2.28109375 9.47511719 -2.8121875 10.26273437 -3.359375 11.07421875 C-5 13 -5 13 -8 14 C-8 9.77679562 -5.92905729 8.92905729 -3 6 C-1.20679176 2.83354526 -1.20679176 2.83354526 0 0 Z " fill="#E6F5E3" transform="translate(155,251)"/>
<path d="M0 0 C0.33 0 0.66 0 1 0 C0.97679688 0.74765625 0.95359375 1.4953125 0.9296875 2.265625 C0.91164063 3.25046875 0.89359375 4.2353125 0.875 5.25 C0.84019531 6.71179688 0.84019531 6.71179688 0.8046875 8.203125 C1.00137219 11.0196498 1.55431084 12.60949036 3 15 C1.0625 14.0625 1.0625 14.0625 -1 12 C-1.7961692 9.01018978 -2.16799958 6.09119233 -2 3 C-1.34 2.01 -0.68 1.02 0 0 Z " fill="#375B30" transform="translate(109,165)"/>
<path d="M0 0 C0 3 0 3 -1.2421875 4.5 C-1.78101563 4.995 -2.31984375 5.49 -2.875 6 C-5.00080434 7.97176054 -6.35557907 9.5333686 -8 12 C-7.92303847 8.76761586 -7.62561345 6.66772205 -5.375 4.265625 C-3.62229929 2.78148327 -1.84920638 1.36155666 0 0 Z " fill="#E7F8E5" transform="translate(232,198)"/>
<path d="M0 0 C1.32 0.66 2.64 1.32 4 2 C1.03 4.64 -1.94 7.28 -5 10 C-5 7 -5 7 -3 4 C-2.34 4 -1.68 4 -1 4 C-0.67 2.68 -0.34 1.36 0 0 Z " fill="#518A44" transform="translate(229,194)"/>
<path d="M0 0 C0.99 0.33 1.98 0.66 3 1 C0.03 3.97 -2.94 6.94 -6 10 C-6.33 9.01 -6.66 8.02 -7 7 C-5.37660195 5.29115995 -3.70680947 3.62553283 -2 2 C-1.34 2 -0.68 2 0 2 C0 1.34 0 0.68 0 0 Z " fill="#EBFBE7" transform="translate(161,186)"/>
<path d="M0 0 C0.66 0.28875 1.32 0.5775 2 0.875 C1.2265625 1.24625 1.2265625 1.24625 0.4375 1.625 C-0.9817981 2.35284518 -2.38831876 3.10937502 -3.75390625 3.93359375 C-5.47048188 4.96927299 -7.23377351 5.92647096 -9 6.875 C-9.66 6.545 -10.32 6.215 -11 5.875 C-3.9452954 -0.16438731 -3.9452954 -0.16438731 0 0 Z " fill="#DBEED6" transform="translate(120,233.125)"/>
<path d="M0 0 C0 0.99 0 1.98 0 3 C-5.625 6 -5.625 6 -9 6 C-8.00269864 3.5067466 -7.34925469 2.22532561 -5.0625 0.75 C-3 0 -3 0 0 0 Z " fill="#48773E" transform="translate(115,215)"/>
<path d="M0 0 C0.66 0 1.32 0 2 0 C1.57405412 1.44096586 1.13373367 2.87768712 0.6875 4.3125 C0.44386719 5.11300781 0.20023437 5.91351563 -0.05078125 6.73828125 C-1.04182023 9.09964573 -2.08074943 10.33879993 -4 12 C-5 9 -5 9 -4.00390625 6.73828125 C-3.52824219 5.93777344 -3.05257813 5.13726562 -2.5625 4.3125 C-2.08941406 3.50425781 -1.61632812 2.69601563 -1.12890625 1.86328125 C-0.75636719 1.24839844 -0.38382812 0.63351563 0 0 Z " fill="#EAF9E7" transform="translate(269,179)"/>
<path d="M0 0 C0.66 0.33 1.32 0.66 2 1 C0.496 4.76 0.496 4.76 -1.9375 5.9375 C-4.71944543 7.3706234 -5.56938502 9.28183153 -7 12 C-7.33 11.34 -7.66 10.68 -8 10 C-5.61820737 6.25718301 -3.25524265 3.02272532 0 0 Z " fill="#E9F8E4" transform="translate(154,161)"/>
<path d="M0 0 C2.64 0.66 5.28 1.32 8 2 C8 2.66 8 3.32 8 4 C3.545 5.485 3.545 5.485 -1 7 C-0.01 6.01 0.98 5.02 2 4 C1.34 2.68 0.68 1.36 0 0 Z " fill="#3F6337" transform="translate(110,126)"/>
<path d="M0 0 C2.76223278 2.76223278 2.57856291 5.20706617 3 9 C2.34 8.34 1.68 7.68 1 7 C0.01 7.66 -0.98 8.32 -2 9 C-1.125 1.125 -1.125 1.125 0 0 Z " fill="#466440" transform="translate(272,175)"/>
<path d="M0 0 C1.1446875 0.0928125 1.1446875 0.0928125 2.3125 0.1875 C1.9825 0.8475 1.6525 1.5075 1.3125 2.1875 C-0.3375 2.1875 -1.9875 2.1875 -3.6875 2.1875 C-3.6875 3.1775 -3.6875 4.1675 -3.6875 5.1875 C-4.3475 5.1875 -5.0075 5.1875 -5.6875 5.1875 C-5.6875 5.8475 -5.6875 6.5075 -5.6875 7.1875 C-7.0075 6.8575 -8.3275 6.5275 -9.6875 6.1875 C-9.6875 5.5275 -9.6875 4.8675 -9.6875 4.1875 C-9.089375 4.084375 -8.49125 3.98125 -7.875 3.875 C-5.60866717 3.36265064 -5.60866717 3.36265064 -4.25 1.625 C-2.6875 0.1875 -2.6875 0.1875 0 0 Z " fill="#53864A" transform="translate(270.6875,160.8125)"/>
<path d="M0 0 C1 3 1 3 0.25 5.5625 C-1 8 -1 8 -4 10 C-3.38819554 6.32917327 -2.72185913 2.72185913 0 0 Z " fill="#487A3D" transform="translate(213,136)"/>
<path d="M0 0 C0.99 0.33 1.98 0.66 3 1 C1.68 3.64 0.36 6.28 -1 9 C-1.66 9 -2.32 9 -3 9 C-3.33 9.66 -3.66 10.32 -4 11 C-3.43279178 7.02954249 -2.14988186 4.36503247 0 1 C0 0.67 0 0.34 0 0 Z " fill="#528549" transform="translate(170,124)"/>
<path d="M0 0 C-1.625 1.5625 -1.625 1.5625 -4 3 C-7.25 2.6875 -7.25 2.6875 -10 2 C-10 1.34 -10 0.68 -10 0 C-6.33694766 -0.74926071 -3.57644848 -1.2380014 0 0 Z " fill="#4E8143" transform="translate(135,204)"/>
<path d="M0 0 C2.89932357 2.39509338 3.50168276 4.31245243 4 8 C2.68 7.34 1.36 6.68 0 6 C-0.33 6.66 -0.66 7.32 -1 8 C-1.125 2.25 -1.125 2.25 0 0 Z " fill="#588F4D" transform="translate(272,181)"/>
<path d="M0 0 C0.99 0.33 1.98 0.66 3 1 C0.03 3.97 -2.94 6.94 -6 10 C-6 6.41087588 -5.33563446 5.89142971 -3 3.3125 C-2.443125 2.68988281 -1.88625 2.06726563 -1.3125 1.42578125 C-0.879375 0.95527344 -0.44625 0.48476562 0 0 Z " fill="#F1FEEC" transform="translate(171,176)"/>
<path d="M0 0 C0.99 0 1.98 0 3 0 C2.84518205 2.70931419 2.51827919 4.46584039 0.59765625 6.4453125 C-0.89771708 7.67679642 -2.4462924 8.8429837 -4 10 C-3.71125 9.46375 -3.4225 8.9275 -3.125 8.375 C-1.83288192 5.64719516 -0.91441408 2.87387282 0 0 Z " fill="#3E6936" transform="translate(280,150)"/>
<path d="M0 0 C0.66 0 1.32 0 2 0 C2 0.66 2 1.32 2 2 C2.99 2.33 3.98 2.66 5 3 C2.03 4.65 -0.94 6.3 -4 8 C-4 7.01 -4 6.02 -4 5 C-3.01 5 -2.02 5 -1 5 C-0.67 3.35 -0.34 1.7 0 0 Z " fill="#548D49" transform="translate(109,127)"/>
<path d="M0 0 C0.66 0.33 1.32 0.66 2 1 C2 1.66 2 2.32 2 3 C3.9600281 4.63676257 3.9600281 4.63676257 6 6 C5.67 6.66 5.34 7.32 5 8 C3.66144944 7.21718695 2.32926356 6.42348123 1 5.625 C0.2575 5.18414062 -0.485 4.74328125 -1.25 4.2890625 C-1.8275 3.86367187 -2.405 3.43828125 -3 3 C-3 2.34 -3 1.68 -3 1 C-2.01 0.67 -1.02 0.34 0 0 Z " fill="#548D49" transform="translate(92,127)"/>
<path d="M0 0 C0.66 0.33 1.32 0.66 2 1 C-1.16952847 4.26008643 -4.39937989 7.22237877 -8 10 C-6.34908222 5.70761377 -3.26245434 3.1206085 0 0 Z " fill="#375D30" transform="translate(226,178)"/>
<path d="M0 0 C2 3 2 3 1.8125 6.0625 C1 9 1 9 -2 11 C-1.34 7.37 -0.68 3.74 0 0 Z " fill="#D0E5CB" transform="translate(130,148)"/>
<path d="M0 0 C0.33 0.99 0.66 1.98 1 3 C1.66 3 2.32 3 3 3 C2.67 4.32 2.34 5.64 2 7 C1.34 7 0.68 7 0 7 C0 6.34 0 5.68 0 5 C-0.66 5 -1.32 5 -2 5 C-1.34 3.35 -0.68 1.7 0 0 Z " fill="#4A7F41" transform="translate(131,135)"/>
<path d="M0 0 C0.66 0.33 1.32 0.66 2 1 C2.6328125 3.06640625 2.6328125 3.06640625 3.125 5.5625 C3.29257813 6.38878906 3.46015625 7.21507812 3.6328125 8.06640625 C3.75398437 8.70449219 3.87515625 9.34257812 4 10 C3.01 9.67 2.02 9.34 1 9 C0.234375 7.1875 0.234375 7.1875 -0.25 5 C-0.42015625 4.278125 -0.5903125 3.55625 -0.765625 2.8125 C-0.84296875 2.214375 -0.9203125 1.61625 -1 1 C-0.67 0.67 -0.34 0.34 0 0 Z " fill="#538C48" transform="translate(186,130)"/>
<path d="M0 0 C2.45823172 3.68734758 3.01242616 6.69699971 4 11 C1.22355795 8.67137119 0.09655054 7.37877519 -0.8125 3.8125 C-0.874375 2.884375 -0.93625 1.95625 -1 1 C-0.67 0.67 -0.34 0.34 0 0 Z " fill="#4E6A47" transform="translate(101,110)"/>
<path d="M0 0 C0.99 0 1.98 0 3 0 C4.625 3.3125 4.625 3.3125 6 7 C5.01 8.485 5.01 8.485 4 10 C1.125 3.375 1.125 3.375 0 0 Z " fill="#E1F1DC" transform="translate(225,211)"/>
<path d="M0 0 C-0.33 0.99 -0.66 1.98 -1 3 C-3.31 3.33 -5.62 3.66 -8 4 C-7 1 -7 1 -5.125 -0.25 C-3 -1 -3 -1 0 0 Z " fill="#496B40" transform="translate(289,195)"/>
<path d="M0 0 C0.66 0 1.32 0 2 0 C0.4169423 4.2742558 -2.50568404 6.26531794 -6 9 C-6 7.68 -6 6.36 -6 5 C-3.5625 3.375 -3.5625 3.375 -1 2 C-0.67 1.34 -0.34 0.68 0 0 Z " fill="#578B4C" transform="translate(192,143)"/>
<path d="M0 0 C3.4375 1.3125 3.4375 1.3125 7 3 C7.33 3.99 7.66 4.98 8 6 C4.54074837 4.7508258 1.85306797 3.32472205 -1 1 C-0.67 0.67 -0.34 0.34 0 0 Z " fill="#E8F8E4" transform="translate(144,131)"/>
<path d="M0 0 C2.475 0.495 2.475 0.495 5 1 C4.67 2.98 4.34 4.96 4 7 C3.34 7 2.68 7 2 7 C1.34 4.69 0.68 2.38 0 0 Z " fill="#447538" transform="translate(127,99)"/>
<path d="M0 0 C1.65 0 3.3 0 5 0 C1.63576723 2.96052484 -1.69159287 3.92289822 -6 5 C-5.67 4.01 -5.34 3.02 -5 2 C-4.01 1.67 -3.02 1.34 -2 1 C-1.34 1.33 -0.68 1.66 0 2 C0 1.34 0 0.68 0 0 Z " fill="#DDEDD9" transform="translate(116,86)"/>
<path d="M0 0 C1.42944945 2.35438733 2.08661261 3.48032433 1.625 6.25 C1.41875 6.8275 1.2125 7.405 1 8 C0.01 8 -0.98 8 -2 8 C-1.125 1.125 -1.125 1.125 0 0 Z " fill="#476040" transform="translate(133,65)"/>
<path d="M0 0 C0.66 0.33 1.32 0.66 2 1 C1.2884375 1.61875 1.2884375 1.61875 0.5625 2.25 C-1.15276627 3.89078817 -1.15276627 3.89078817 -1.5 6.125 C-1.665 6.74375 -1.83 7.3625 -2 8 C-2.99 8.33 -3.98 8.66 -5 9 C-4.5206753 4.68607774 -3.2542015 2.83430453 0 0 Z " fill="#48723F" transform="translate(144,205)"/>
<path d="M0 0 C4.21912747 0.4794463 6.79663178 1.16625119 10 4 C7.03 3.67 4.06 3.34 1 3 C0.67 2.01 0.34 1.02 0 0 Z " fill="#EBF8E5" transform="translate(256,197)"/>
<path d="M0 0 C-1.09445838 0.86657116 -2.20097781 1.71792724 -3.3125 2.5625 C-3.92738281 3.03816406 -4.54226563 3.51382813 -5.17578125 4.00390625 C-5.77777344 4.33261719 -6.37976563 4.66132813 -7 5 C-7.99 4.67 -8.98 4.34 -10 4 C-9.34 4 -8.68 4 -8 4 C-8 3.01 -8 2.02 -8 1 C-2.25 -1.125 -2.25 -1.125 0 0 Z " fill="#3F6637" transform="translate(275,162)"/>
<path d="M0 0 C0.33 0.99 0.66 1.98 1 3 C0.34 3 -0.32 3 -1 3 C-1 3.99 -1 4.98 -1 6 C-1.99 6.66 -2.98 7.32 -4 8 C-4.99 7.67 -5.98 7.34 -7 7 C-4.66666667 4.66666667 -2.33333333 2.33333333 0 0 Z " fill="#548D49" transform="translate(270,130)"/>
<path d="M0 0 C2.6875 -0.3125 2.6875 -0.3125 5 0 C5.33 0.99 5.66 1.98 6 3 C3.03 3.66 0.06 4.32 -3 5 C-1.8125 2.5 -1.8125 2.5 0 0 Z " fill="#57844C" transform="translate(282,114)"/>
<path d="M0 0 C1.093125 0.226875 2.18625 0.45375 3.3125 0.6875 C-0.0894487 2.78100689 -2.74022412 2.86692163 -6.6875 2.6875 C-4.58035839 -0.41123767 -3.86755884 -0.32775922 0 0 Z " fill="#E8FAE3" transform="translate(204.6875,228.3125)"/>
<path d="M0 0 C1 2 1 2 0.3125 4.5625 C-1 7 -1 7 -3.125 7.8125 C-3.74375 7.874375 -4.3625 7.93625 -5 8 C-3.62845496 5.04590299 -2.01136276 2.55991624 0 0 Z " fill="#46673D" transform="translate(121,199)"/>
<path d="M0 0 C-2.97 1.32 -5.94 2.64 -9 4 C-6.37789678 -1.24420645 -5.61031397 -1.40257849 0 0 Z " fill="#E2F1DE" transform="translate(265,192)"/>
<path d="M0 0 C0.99 0 1.98 0 3 0 C3 0.99 3 1.98 3 3 C0 5.1875 0 5.1875 -3 7 C-1.125 1.125 -1.125 1.125 0 0 Z " fill="#56894B" transform="translate(175,175)"/>
<path d="M0 0 C1.32 0.33 2.64 0.66 4 1 C0.535 3.97 0.535 3.97 -3 7 C-2 3 -2 3 0 0 Z " fill="#548C4B" transform="translate(218,170)"/>
<path d="M0 0 C0.66 0.66 1.32 1.32 2 2 C-0.01822917 1.96744792 -2.03645833 1.93489583 -4.0546875 1.90234375 C-6.08185404 1.87350758 -6.08185404 1.87350758 -8 3 C-7.67 2.01 -7.34 1.02 -7 0 C-4.29393021 -1.35303489 -2.8671629 -0.7884698 0 0 Z " fill="#436E3A" transform="translate(119,162)"/>
<path d="M0 0 C1.32 0.66 2.64 1.32 4 2 C2.02805885 3.97194115 0.49095467 4.832365 -2 6 C-2.99 6.495 -2.99 6.495 -4 7 C-4 4 -4 4 -2 1.8125 C-1.34 1.214375 -0.68 0.61625 0 0 Z " fill="#57874C" transform="translate(229,160)"/>
<path d="M0 0 C0.33 0.66 0.66 1.32 1 2 C-3.30769231 6.92307692 -3.30769231 6.92307692 -6.8125 7.3125 C-7.8953125 7.1578125 -7.8953125 7.1578125 -9 7 C-8.443125 6.773125 -7.88625 6.54625 -7.3125 6.3125 C-4.36753316 4.64103234 -2.31843456 2.44723648 0 0 Z " fill="#345D2C" transform="translate(268,130)"/>
<path d="M0 0 C0.99 0.33 1.98 0.66 3 1 C-0.465 3.97 -0.465 3.97 -4 7 C-4 5.68 -4 4.36 -4 3 C-3.01 2.67 -2.02 2.34 -1 2 C-0.67 1.34 -0.34 0.68 0 0 Z " fill="#548C48" transform="translate(164,226)"/>
<path d="M0 0 C-1.39332574 3.36720387 -2.9789286 4.9859524 -6 7 C-5.37162381 3.35541809 -4.14650034 0 0 0 Z " fill="#3B6532" transform="translate(182,170)"/>
<path d="M0 0 C2.97 0.99 5.94 1.98 9 3 C9 3.66 9 4.32 9 5 C5.7 4.01 2.4 3.02 -1 2 C-0.67 1.34 -0.34 0.68 0 0 Z " fill="#548D49" transform="translate(145,136)"/>
<path d="M0 0 C0.66 0.33 1.32 0.66 2 1 C0.125 4.875 0.125 4.875 -1 6 C-2.66617115 6.04063832 -4.33388095 6.042721 -6 6 C-4 4 -4 4 -1 2 C-0.67 1.34 -0.34 0.68 0 0 Z " fill="#5A8C4F" transform="translate(163,135)"/>
<path d="M0 0 C0.33 0.99 0.66 1.98 1 3 C0.01 3.99 -0.98 4.98 -2 6 C-2.66 4.68 -3.32 3.36 -4 2 C-2.68 1.34 -1.36 0.68 0 0 Z " fill="#4F8E43" transform="translate(135,100)"/>
</svg>
