<?xml version="1.0" encoding="UTF-8"?>
<svg version="1.1" xmlns="http://www.w3.org/2000/svg" width="100" height="100">
<path d="M0 0 C0.99 0.66 1.98 1.32 3 2 C3 2.99 3 3.98 3 5 C5.87687128 4.57379685 7.06571107 3.94316881 9.3125 2 C12.6813637 -0.50706136 14.8184148 -0.92663886 19 -1 C22.52639082 0.22067375 24.4496513 1.35792651 26.875 4.1875 C29.02352006 9.55880014 28.54488763 14.03494397 26.4375 19.25 C26.14746094 19.87390625 25.85742188 20.4978125 25.55859375 21.140625 C24.85924348 23.46853219 25.32495357 24.69321882 26 27 C26 28.32 26 29.64 26 31 C24.21166992 32.52392578 24.21166992 32.52392578 21.73046875 33.9453125 C20.39725586 34.72455078 20.39725586 34.72455078 19.03710938 35.51953125 C18.09673828 36.04933594 17.15636719 36.57914063 16.1875 37.125 C14.34754028 38.18990382 12.50769184 39.25499993 10.66796875 40.3203125 C9.84578857 40.78711426 9.0236084 41.25391602 8.17651367 41.73486328 C6.41275016 42.76008174 4.69745084 43.86836611 3 45 C0.5625 45.4375 0.5625 45.4375 -2 45 C-4.125 42.6875 -4.125 42.6875 -6 40 C-8.69561157 36.53421369 -11.78511212 35.92870411 -16 35 C-20.3673274 34.52719048 -20.3673274 34.52719048 -24.0625 36.5625 C-26 38 -26 38 -28.75 37.6875 C-29.4925 37.460625 -30.235 37.23375 -31 37 C-32.18681726 33.43954823 -32.09689832 30.56191663 -32.0625 26.8125 C-32.05347656 25.54019531 -32.04445312 24.26789062 -32.03515625 22.95703125 C-32.02355469 21.98121094 -32.01195312 21.00539063 -32 20 C-29.33610275 18.97637281 -28.26441513 18.89575942 -25.5625 19.9609375 C-24.2940625 20.66089844 -24.2940625 20.66089844 -23 21.375 C-19.99720819 23.0137187 -17.36575816 24.32996481 -14 25 C-14.49595946 22.76818244 -15.05938507 20.87773662 -16.0625 18.8125 C-17.39761496 14.80715511 -17.72013259 11.17382971 -17 7 C-15.27221225 3.63009992 -12.86795352 1.52534029 -9.625 -0.4375 C-6.14385835 -1.18345892 -3.45920595 -0.76871243 0 0 Z M-10.3125 5.625 C-12.31233339 8.43958033 -12.69029053 10.59319587 -13 14 C-7.52067211 12.45454854 -2.88570819 9.84456788 2 7 C-0.51956252 4.95285545 -1.71546336 4.04149493 -5 3.5625 C-8.05270539 3.77746351 -8.05270539 3.77746351 -10.3125 5.625 Z M14 4 C12.59915017 7.06594808 12.59915017 7.06594808 14.43359375 10.13671875 C15.09135973 11.3260128 15.75977815 12.50946371 16.4375 13.6875 C16.77587891 14.29400391 17.11425781 14.90050781 17.46289062 15.52539062 C18.29957915 17.0220025 19.14862831 18.51169189 20 20 C22.18108265 19.14388536 22.18108265 19.14388536 23.1875 16.875 C24.22612634 13.19986064 23.88960847 10.69529672 23 7 C21.95625978 4.95548981 21.95625978 4.95548981 20 4 C16.87450983 3.74951364 16.87450983 3.74951364 14 4 Z M11 14 C12 16 12 16 12 16 Z M15 21 C16 23 16 23 16 23 Z M16 23 C17 25 17 25 17 25 Z M-26 26 C-26 27.65 -26 29.3 -26 31 C-25.01 30.67 -24.02 30.34 -23 30 C-23.66 28.68 -24.32 27.36 -25 26 C-25.33 26 -25.66 26 -26 26 Z M18 26 C19 29 19 29 19 29 Z M-16 29 C-14.515 29.99 -14.515 29.99 -13 31 C-12.01 30.67 -11.02 30.34 -10 30 C-11.06645115 28.70366379 -11.06645115 28.70366379 -13.5625 28.9375 C-14.366875 28.958125 -15.17125 28.97875 -16 29 Z " fill="#437238" transform="translate(65,36)"/>
<path d="M0 0 C0 0.66 0 1.32 0 2 C-1.98 2.33 -3.96 2.66 -6 3 C-5.67 4.98 -5.34 6.96 -5 9 C-6.32 8.67 -7.64 8.34 -9 8 C-9 8.66 -9 9.32 -9 10 C-8.34 10.33 -7.68 10.66 -7 11 C-7 11.99 -7 12.98 -7 14 C-6.01 14.33 -5.02 14.66 -4 15 C-3.29618843 16.98723268 -2.6288189 18.98777953 -2 21 C-1.34 21.33 -0.68 21.66 0 22 C1.35308313 23.31328657 2.68870078 24.64499081 4 26 C2 29 2 29 -0.625 29.6875 C-1.40875 29.790625 -2.1925 29.89375 -3 30 C-3 30.66 -3 31.32 -3 32 C-5.64738916 33.4606285 -6.89448334 34 -10 34 C-10.33 34.66 -10.66 35.32 -11 36 C-9.68 36.33 -8.36 36.66 -7 37 C-11.00018165 39.66678777 -14.96366743 40.56364302 -19.625 41.5625 C-23.03740164 40.75429961 -23.9848707 38.71213649 -25.7890625 35.82421875 C-27.02339404 33.96475801 -28.37724658 32.52426261 -30 31 C-29.34 31 -28.68 31 -28 31 C-28 30.34 -28 29.68 -28 29 C-28.66 29 -29.32 29 -30 29 C-31.98362069 26.08291076 -31.9876191 24.87619096 -31.625 21.25 C-31.41875 20.1775 -31.2125 19.105 -31 18 C-30.01 17.67 -29.02 17.34 -28 17 C-27.505 16.484375 -27.01 15.96875 -26.5 15.4375 C-25 14 -25 14 -22 14 C-22.33 12.68 -22.66 11.36 -23 10 C-20 11 -20 11 -18 12 C-17.34 11.67 -16.68 11.34 -16 11 C-15.67 10.01 -15.34 9.02 -15 8 C-14.34 7.67 -13.68 7.34 -13 7 C-12.71125 6.21625 -12.4225 5.4325 -12.125 4.625 C-9.49240403 -1.51772394 -6.10780457 -1.29203558 0 0 Z M-5 19 C-4 21 -4 21 -4 21 Z M-4 21 C-3 23 -3 23 -3 23 Z M-2 24 C-1 27 -1 27 -1 27 Z " fill="#407B31" transform="translate(85,38)"/>
<path d="M0 0 C2.92090003 1.30936898 4.75619462 2.75619462 7 5 C7.99 5.33 8.98 5.66 10 6 C10 4.35 10 2.7 10 1 C10.99 1 11.98 1 13 1 C13.33 1.99 13.66 2.98 14 4 C14.763125 3.319375 15.52625 2.63875 16.3125 1.9375 C17.199375 1.298125 18.08625 0.65875 19 0 C19.99 0.33 20.98 0.66 22 1 C22 1.99 22 2.98 22 4 C22.763125 3.34 23.52625 2.68 24.3125 2 C27 0 27 0 30 0 C29.67 1.65 29.34 3.3 29 5 C29.763125 4.175 30.52625 3.35 31.3125 2.5 C34 0 34 0 37 0 C36.67 1.65 36.34 3.3 36 5 C36.598125 4.505 37.19625 4.01 37.8125 3.5 C40 2 40 2 43 2 C42.67 3.32 42.34 4.64 42 6 C42.721875 5.484375 43.44375 4.96875 44.1875 4.4375 C47.53447604 2.72682336 48.46445381 3.27475976 52 4 C53.36161311 3.03886134 54.69855198 2.04115841 56 1 C59 2 59 2 60 3 C60.99 2.34 61.98 1.68 63 1 C63.99 1 64.98 1 66 1 C66 1.99 66 2.98 66 4 C66.433125 3.505 66.86625 3.01 67.3125 2.5 C69 1 69 1 72 1 C72 2.32 72 3.64 72 5 C72.598125 4.505 73.19625 4.01 73.8125 3.5 C76 2 76 2 79 2 C79.12375 2.598125 79.2475 3.19625 79.375 3.8125 C79.95475985 6.26231348 79.95475985 6.26231348 82 9 C79.40508975 11.59491025 77.63754653 11.23591161 74.10310364 11.24884033 C73.27807846 11.24164978 72.45305328 11.23445923 71.60302734 11.22705078 C70.30048759 11.22748886 70.30048759 11.22748886 68.97163391 11.22793579 C66.09296782 11.22653917 63.21455854 11.21096242 60.3359375 11.1953125 C58.3433954 11.19158355 56.35085147 11.18873602 54.35830688 11.18673706 C49.10737061 11.17909132 43.85654452 11.15943477 38.60565186 11.1373291 C33.25013724 11.11689091 27.89460486 11.10773969 22.5390625 11.09765625 C12.02599319 11.07618975 1.51300575 11.04204249 -9 11 C-9.33 9.68 -9.66 8.36 -10 7 C-9.01 6.34 -8.02 5.68 -7 5 C-7 4.01 -7 3.02 -7 2 C-2.25 3.875 -2.25 3.875 0 5 C-0.2784375 4.0409375 -0.2784375 4.0409375 -0.5625 3.0625 C-0.706875 2.381875 -0.85125 1.70125 -1 1 C-0.67 0.67 -0.34 0.34 0 0 Z " fill="#557F49" transform="translate(14,82)"/>
<path d="M0 0 C0 0.66 0 1.32 0 2 C-1.98 2.33 -3.96 2.66 -6 3 C-5.67 4.98 -5.34 6.96 -5 9 C-6.32 8.67 -7.64 8.34 -9 8 C-9 8.66 -9 9.32 -9 10 C-8.34 10.33 -7.68 10.66 -7 11 C-7 11.99 -7 12.98 -7 14 C-6.01 14.33 -5.02 14.66 -4 15 C-3.29618843 16.98723268 -2.6288189 18.98777953 -2 21 C-1.34 21.33 -0.68 21.66 0 22 C1.35308313 23.31328657 2.68870078 24.64499081 4 26 C2 29 2 29 -0.625 29.6875 C-1.40875 29.790625 -2.1925 29.89375 -3 30 C-3 30.66 -3 31.32 -3 32 C-5.91708924 33.98362069 -7.12380904 33.9876191 -10.75 33.625 C-11.8225 33.41875 -12.895 33.2125 -14 33 C-14 31.68 -14 30.36 -14 29 C-11.69 28.34 -9.38 27.68 -7 27 C-6.04497842 25.27523089 -6.04497842 25.27523089 -6 23 C-7.11375 21.88625 -7.11375 21.88625 -8.25 20.75 C-11.5974072 17.4025928 -12.56370364 14.39623143 -14 10 C-14.33 9.34 -14.66 8.68 -15 8 C-14.34 7.67 -13.68 7.34 -13 7 C-12.71125 6.21625 -12.4225 5.4325 -12.125 4.625 C-9.49240403 -1.51772394 -6.10780457 -1.29203558 0 0 Z M-5 19 C-4 21 -4 21 -4 21 Z M-4 21 C-3 23 -3 23 -3 23 Z M-2 24 C-1 27 -1 27 -1 27 Z " fill="#3C6E31" transform="translate(85,38)"/>
<path d="M0 0 C0.721875 0.474375 1.44375 0.94875 2.1875 1.4375 C4.89475226 2.94152903 6.96194275 3.56599182 10 4 C9.67 4.99 9.34 5.98 9 7 C9.78375 7.556875 10.5675 8.11375 11.375 8.6875 C14.08704858 11.07668565 14.96133543 12.60073413 16 16 C16.9075 15.649375 17.815 15.29875 18.75 14.9375 C21.87758436 14.03531221 23.05208081 13.86618493 26 15 C23.47454967 16.73173737 21.45950406 17.91034067 18.4375 18.5 C14.92199003 17.77886975 14.0075957 15.87755384 12 13 C9.30438843 9.53421369 6.21488788 8.92870411 2 8 C-2.3673274 7.52719048 -2.3673274 7.52719048 -6.0625 9.5625 C-8 11 -8 11 -10.75 10.6875 C-11.4925 10.460625 -12.235 10.23375 -13 10 C-13.33 8.02 -13.66 6.04 -14 4 C-13.34 3.67 -12.68 3.34 -12 3 C-12 4.98 -12 6.96 -12 9 C-10.68 9 -9.36 9 -8 9 C-8 8.34 -8 7.68 -8 7 C-6.865625 6.5875 -5.73125 6.175 -4.5625 5.75 C-0.90456616 4.43314602 -0.90456616 4.43314602 -0.0625 1.8125 C-0.041875 1.214375 -0.02125 0.61625 0 0 Z " fill="#4D7341" transform="translate(47,63)"/>
<path d="M0 0 C0.99 0.66 1.98 1.32 3 2 C2.67 2.99 2.34 3.98 2 5 C1.608125 4.484375 1.21625 3.96875 0.8125 3.4375 C-0.0846875 2.7259375 -0.0846875 2.7259375 -1 2 C-3.55936559 2.32852082 -3.55936559 2.32852082 -6 3 C-6.66 2.67 -7.32 2.34 -8 2 C-8 2.99 -8 3.98 -8 5 C-9 6 -10 7 -11 8 C-11.99373439 10.2603044 -11.99373439 10.2603044 -12.6875 12.6875 C-12.93886719 13.49574219 -13.19023438 14.30398437 -13.44921875 15.13671875 C-13.63097656 15.75160156 -13.81273437 16.36648437 -14 17 C-13.01 17.33 -12.02 17.66 -11 18 C-11.66 18.99 -12.32 19.98 -13 21 C-13.99 20.67 -14.98 20.34 -16 20 C-17.52474063 15.89216937 -17.66336526 11.30069388 -17 7 C-15.28141998 3.62701929 -12.86525757 1.52370853 -9.625 -0.4375 C-6.14385835 -1.18345892 -3.45920595 -0.76871243 0 0 Z " fill="#4A7240" transform="translate(65,36)"/>
<path d="M0 0 C1.485 0.99 1.485 0.99 3 2 C3 2.66 3 3.32 3 4 C3.763125 3.319375 4.52625 2.63875 5.3125 1.9375 C6.199375 1.298125 7.08625 0.65875 8 0 C8.99 0.33 9.98 0.66 11 1 C11 1.99 11 2.98 11 4 C11.763125 3.34 12.52625 2.68 13.3125 2 C16 0 16 0 19 0 C18.67 1.32 18.34 2.64 18 4 C16.68 4 15.36 4 14 4 C13.5875 4.515625 13.175 5.03125 12.75 5.5625 C11 7 11 7 9.10546875 7.01171875 C6.16877623 6.65719911 3.66007132 6.33003566 1 5 C0.67 5.99 0.34 6.98 0 8 C-0.38063221 5.6739143 -0.71269945 3.33944736 -1 1 C-0.67 0.67 -0.34 0.34 0 0 Z " fill="#587D4B" transform="translate(25,82)"/>
<path d="M0 0 C2.4375 1.9375 2.4375 1.9375 4 4 C4 4.66 4 5.32 4 6 C2.02 5.34 0.04 4.68 -2 4 C-2 3.34 -2 2.68 -2 2 C-2.99 2.33 -3.98 2.66 -5 3 C-5 2.34 -5 1.68 -5 1 C-10.68251083 3.00295557 -10.68251083 3.00295557 -14.1875 7.625 C-14.455625 8.40875 -14.72375 9.1925 -15 10 C-16.32 8.68 -17.64 7.36 -19 6 C-17.33779419 4.99260254 -15.66979326 3.99477045 -14 3 C-13.45730469 2.62875 -12.91460937 2.2575 -12.35546875 1.875 C-7.96572777 -0.97882709 -5.23070195 -1.57907984 0 0 Z " fill="#527448" transform="translate(87,36)"/>
<path d="M0 0 C0.99 0.66 1.98 1.32 3 2 C2.67 2.99 2.34 3.98 2 5 C2.99 5.33 3.98 5.66 5 6 C5 6.33 5 6.66 5 7 C4.39671875 7.03738281 3.7934375 7.07476562 3.171875 7.11328125 C-1.62576045 7.50792546 -4.17140485 7.99181809 -8 11 C-10.75 10.6875 -10.75 10.6875 -13 10 C-13.33 8.02 -13.66 6.04 -14 4 C-13.34 3.67 -12.68 3.34 -12 3 C-12 4.98 -12 6.96 -12 9 C-10.68 9 -9.36 9 -8 9 C-8 8.34 -8 7.68 -8 7 C-6.865625 6.5875 -5.73125 6.175 -4.5625 5.75 C-0.90456616 4.43314602 -0.90456616 4.43314602 -0.0625 1.8125 C-0.041875 1.214375 -0.02125 0.61625 0 0 Z " fill="#527947" transform="translate(47,63)"/>
<path d="M0 0 C3.4550284 0.31409349 5.95481963 1.47366929 8.9375 3.125 C12.63339593 5.0746377 14.90471479 5.22858556 19 4 C19 4.99 19 5.98 19 7 C16.03 7 13.06 7 10 7 C10 6.34 10 5.68 10 5 C9.1646875 5.3403125 9.1646875 5.3403125 8.3125 5.6875 C5.07876916 6.12449065 3.60926022 4.81198627 1 3 C1 4.32 1 5.64 1 7 C0.34 7 -0.32 7 -1 7 C-1.04254356 5.00045254 -1.04080783 2.99958364 -1 1 C-0.67 0.67 -0.34 0.34 0 0 Z " fill="#507645" transform="translate(34,55)"/>
<path d="M0 0 C0.66 0.66 1.32 1.32 2 2 C1.75 4.0625 1.75 4.0625 1 6 C-1.76452033 7.38226016 -4.0461363 7.09525387 -7.125 7.0625 C-8.22070312 7.05347656 -9.31640625 7.04445313 -10.4453125 7.03515625 C-11.70988281 7.01775391 -11.70988281 7.01775391 -13 7 C-13 6.01 -13 5.02 -13 4 C-9.37 4 -5.74 4 -2 4 C-1.34 2.68 -0.68 1.36 0 0 Z " fill="#467D37" transform="translate(40,84)"/>
<path d="M0 0 C0.99 0.33 1.98 0.66 3 1 C3 2.65 3 4.3 3 6 C1.68 6.33 0.36 6.66 -1 7 C-1 6.34 -1 5.68 -1 5 C-2.98 5.33 -4.96 5.66 -7 6 C-7 5.34 -7 4.68 -7 4 C-7.99 4.33 -8.98 4.66 -10 5 C-9.67 4.01 -9.34 3.02 -9 2 C-8.2575 2.226875 -7.515 2.45375 -6.75 2.6875 C-3.94611211 3.31496211 -3.94611211 3.31496211 -1.875 1.5 C-1.25625 1.005 -0.6375 0.51 0 0 Z " fill="#5B7E50" transform="translate(70,83)"/>
<path d="M0 0 C1.051875 0.2475 2.10375 0.495 3.1875 0.75 C3.1875 1.41 3.1875 2.07 3.1875 2.75 C-1.2675 3.245 -1.2675 3.245 -5.8125 3.75 C-5.4825 5.07 -5.1525 6.39 -4.8125 7.75 C-5.8025 8.08 -6.7925 8.41 -7.8125 8.75 C-8.1425 7.1 -8.4725 5.45 -8.8125 3.75 C-5.66311307 0.60061307 -4.55934222 -0.29897326 0 0 Z " fill="#417234" transform="translate(81.8125,37.25)"/>
<path d="M0 0 C0.33 0.66 0.66 1.32 1 2 C1.66 2 2.32 2 3 2 C3 2.99 3 3.98 3 5 C-1.62 5 -6.24 5 -11 5 C-11.33 3.68 -11.66 2.36 -12 1 C-11.34 1 -10.68 1 -10 1 C-10 1.66 -10 2.32 -10 3 C-8.02 2.67 -6.04 2.34 -4 2 C-4 2.66 -4 3.32 -4 4 C-3.01 3.67 -2.02 3.34 -1 3 C-0.67 2.01 -0.34 1.02 0 0 Z " fill="#467C35" transform="translate(73,86)"/>
<path d="M0 0 C0.99 0 1.98 0 3 0 C3.33 0.66 3.66 1.32 4 2 C5.65 1.67 7.3 1.34 9 1 C9 1.66 9 2.32 9 3 C8.01 3.495 8.01 3.495 7 4 C6.67 4.66 6.34 5.32 6 6 C5.34 6 4.68 6 4 6 C2.62689293 7.29233607 1.28965176 8.62437146 0 10 C0.66 8.02 1.32 6.04 2 4 C1.34 3.67 0.68 3.34 0 3 C0 2.01 0 1.02 0 0 Z " fill="#38622A" transform="translate(51,50)"/>
<path d="M0 0 C2.00720923 0.28674418 4.0085944 0.61866701 6 1 C6 1.99 6 2.98 6 4 C7.32 4.33 8.64 4.66 10 5 C8.35 5.66 6.7 6.32 5 7 C5 6.01 5 5.02 5 4 C3.35 4.66 1.7 5.32 0 6 C-0.38218767 4.34385343 -0.71395102 2.67542976 -1 1 C-0.67 0.67 -0.34 0.34 0 0 Z " fill="#3B632F" transform="translate(68,70)"/>
<path d="M0 0 C1.485 0.99 1.485 0.99 3 2 C3.99 2.33 4.98 2.66 6 3 C6.70381157 4.98723268 7.3711811 6.98777953 8 9 C8.66 9.33 9.32 9.66 10 10 C9.34 10.66 8.68 11.32 8 12 C4.125 7.25 4.125 7.25 3 5 C2.34 5 1.68 5 1 5 C0.67 3.35 0.34 1.7 0 0 Z " fill="#38612F" transform="translate(75,50)"/>
<path d="M0 0 C2.475 0.99 2.475 0.99 5 2 C4.34 3.65 3.68 5.3 3 7 C1.35 7 -0.3 7 -2 7 C-1.67 6.401875 -1.34 5.80375 -1 5.1875 C0.20787988 2.94613529 0.20787988 2.94613529 0 0 Z " fill="#547948" transform="translate(7,84)"/>
<path d="M0 0 C0.99 0 1.98 0 3 0 C3 0.99 3 1.98 3 3 C-0.50776784 4.60355101 -3.14354879 5.22036864 -7 5 C-7 4.01 -7 3.02 -7 2 C-6.030625 1.855625 -5.06125 1.71125 -4.0625 1.5625 C-1.13513227 1.32437659 -1.13513227 1.32437659 0 0 Z " fill="#487D3A" transform="translate(70,74)"/>
<path d="M0 0 C-0.66 2.31 -1.32 4.62 -2 7 C-2.66 7 -3.32 7 -4 7 C-4 6.34 -4 5.68 -4 5 C-4.66 5 -5.32 5 -6 5 C-5.625 3.0625 -5.625 3.0625 -5 1 C-3 0 -3 0 0 0 Z " fill="#5E7E4E" transform="translate(80,83)"/>
<path d="M0 0 C-0.33 2.31 -0.66 4.62 -1 7 C-1.99 7 -2.98 7 -4 7 C-4 6.01 -4 5.02 -4 4 C-5.98 4.99 -5.98 4.99 -8 6 C-3.375 0 -3.375 0 0 0 Z " fill="#5B7C4E" transform="translate(51,82)"/>
<path d="M0 0 C-2 3 -2 3 -4.4375 3.625 C-5.283125 3.74875 -6.12875 3.8725 -7 4 C-7.99 4.33 -8.98 4.66 -10 5 C-10 3.68 -10 2.36 -10 1 C-8.71073008 0.63720544 -7.41846728 0.28503302 -6.125 -0.0625 C-5.40570313 -0.25972656 -4.68640625 -0.45695312 -3.9453125 -0.66015625 C-2 -1 -2 -1 0 0 Z " fill="#335C29" transform="translate(81,66)"/>
<path d="M0 0 C6.625 0.75 6.625 0.75 10 3 C9.67 3.99 9.34 4.98 9 6 C8.608125 5.484375 8.21625 4.96875 7.8125 4.4375 C7.214375 3.963125 6.61625 3.48875 6 3 C3.44063441 3.32852082 3.44063441 3.32852082 1 4 C0.34 3.67 -0.32 3.34 -1 3 C-0.67 2.01 -0.34 1.02 0 0 Z " fill="#557C4E" transform="translate(58,35)"/>
<path d="M0 0 C1.65 0.99 3.3 1.98 5 3 C4.67 3.99 4.34 4.98 4 6 C3.34 5.34 2.68 4.68 2 4 C1.67 5.32 1.34 6.64 1 8 C1.66 8.33 2.32 8.66 3 9 C2.01 9 1.02 9 0 9 C0 6.03 0 3.06 0 0 Z M4 1 C6 2 6 2 6 2 Z " fill="#3F6831" transform="translate(38,59)"/>
<path d="M0 0 C4 4.625 4 4.625 4 8 C2.35 8 0.7 8 -1 8 C-0.7525 7.13375 -0.7525 7.13375 -0.5 6.25 C0.14462031 3.73335631 0.14462031 3.73335631 0 0 Z " fill="#3D6435" transform="translate(79,57)"/>
<path d="M0 0 C1.32 0.66 2.64 1.32 4 2 C4 2.66 4 3.32 4 4 C0.04 4 -3.92 4 -8 4 C-8 3.67 -8 3.34 -8 3 C-6.865625 2.87625 -5.73125 2.7525 -4.5625 2.625 C-3.386875 2.41875 -2.21125 2.2125 -1 2 C-0.67 1.34 -0.34 0.68 0 0 Z " fill="#568646" transform="translate(89,88)"/>
<path d="M0 0 C0.66 0 1.32 0 2 0 C2 2.64 2 5.28 2 8 C1.01 8 0.02 8 -1 8 C-1.125 2.25 -1.125 2.25 0 0 Z " fill="#4B7444" transform="translate(91,43)"/>
<path d="M0 0 C0.99 0.33 1.98 0.66 3 1 C2.67 2.32 2.34 3.64 2 5 C0.68 4.67 -0.64 4.34 -2 4 C-1.34 2.68 -0.68 1.36 0 0 Z " fill="#587250" transform="translate(28,64)"/>
<path d="M0 0 C0.99 0.33 1.98 0.66 3 1 C2.6875 2.9375 2.6875 2.9375 2 5 C1.01 5.33 0.02 5.66 -1 6 C-1.33 4.35 -1.66 2.7 -2 1 C-1.34 0.67 -0.68 0.34 0 0 Z " fill="#38662A" transform="translate(67,45)"/>
<path d="M0 0 C3.4375 1.25 3.4375 1.25 7 3 C7.9375 5.1875 7.9375 5.1875 8 7 C4.125 5.25 4.125 5.25 3 3 C2.01 2.67 1.02 2.34 0 2 C0 1.34 0 0.68 0 0 Z " fill="#567D4D" transform="translate(83,35)"/>
<path d="M0 0 C0.99 0.33 1.98 0.66 3 1 C2.67 2.32 2.34 3.64 2 5 C0.35 4.67 -1.3 4.34 -3 4 C-2.01 2.68 -1.02 1.36 0 0 Z " fill="#617C53" transform="translate(33,82)"/>
<path d="M0 0 C3.36720387 1.39332574 4.9859524 2.9789286 7 6 C6.4225 5.690625 5.845 5.38125 5.25 5.0625 C3.15705816 4.07416636 1.25464725 3.4831387 -1 3 C-0.67 2.01 -0.34 1.02 0 0 Z " fill="#59714C" transform="translate(14,82)"/>
<path d="M0 0 C1.32 0 2.64 0 4 0 C3.67 1.32 3.34 2.64 3 4 C1.68 3.67 0.36 3.34 -1 3 C-0.67 2.01 -0.34 1.02 0 0 Z " fill="#607653" transform="translate(10,70)"/>
<path d="M0 0 C0.99 0.33 1.98 0.66 3 1 C2.67 2.32 2.34 3.64 2 5 C1.01 4.67 0.02 4.34 -1 4 C-0.67 2.68 -0.34 1.36 0 0 Z " fill="#5B7354" transform="translate(20,79)"/>
<path d="M0 0 C1.98 0.495 1.98 0.495 4 1 C3.67 1.99 3.34 2.98 3 4 C1.68 3.67 0.36 3.34 -1 3 C-0.67 2.01 -0.34 1.02 0 0 Z " fill="#5E7757" transform="translate(13,77)"/>
<path d="M0 0 C0.99 0 1.98 0 3 0 C2.67 1.65 2.34 3.3 2 5 C1.01 4.67 0.02 4.34 -1 4 C-0.67 2.68 -0.34 1.36 0 0 Z " fill="#576C4B" transform="translate(24,74)"/>
<path d="M0 0 C1.32 0 2.64 0 4 0 C3.67 1.32 3.34 2.64 3 4 C1.68 3.67 0.36 3.34 -1 3 C-0.67 2.01 -0.34 1.02 0 0 Z " fill="#52684B" transform="translate(14,65)"/>
<path d="M0 0 C1.98 0.495 1.98 0.495 4 1 C3.67 1.99 3.34 2.98 3 4 C1.68 3.67 0.36 3.34 -1 3 C-0.67 2.01 -0.34 1.02 0 0 Z " fill="#607354" transform="translate(20,62)"/>
<path d="M0 0 C1.98 0.495 1.98 0.495 4 1 C3.67 1.99 3.34 2.98 3 4 C1.68 3.67 0.36 3.34 -1 3 C-0.67 2.01 -0.34 1.02 0 0 Z " fill="#5F6F4B" transform="translate(27,59)"/>
<path d="M0 0 C1.98 0.495 1.98 0.495 4 1 C3.34 2.32 2.68 3.64 2 5 C1.01 4.01 0.02 3.02 -1 2 C-0.67 1.34 -0.34 0.68 0 0 Z " fill="#4D6343" transform="translate(17,72)"/>
<path d="M0 0 C0.99 0 1.98 0 3 0 C3.33 0.99 3.66 1.98 4 3 C2.68 3.33 1.36 3.66 0 4 C-0.33 3.34 -0.66 2.68 -1 2 C-0.67 1.34 -0.34 0.68 0 0 Z " fill="#5E7253" transform="translate(7,76)"/>
<path d="M0 0 C0.99 0.33 1.98 0.66 3 1 C3 1.99 3 2.98 3 4 C1.68 4 0.36 4 -1 4 C-0.67 2.68 -0.34 1.36 0 0 Z " fill="#58724E" transform="translate(29,70)"/>
<path d="M0 0 C0.99 0.33 1.98 0.66 3 1 C2.67 2.32 2.34 3.64 2 5 C1.34 4.67 0.68 4.34 0 4 C0 2.68 0 1.36 0 0 Z " fill="#5F7354" transform="translate(22,68)"/>
</svg>
