<?xml version="1.0" encoding="UTF-8"?>
<svg version="1.1" xmlns="http://www.w3.org/2000/svg" width="100" height="100">
<path d="M0 0 C3.29461382 0.70782719 5.47092428 2.27072042 8 4.4296875 C8.33 5.4196875 8.66 6.4096875 9 7.4296875 C9.66 7.4296875 10.32 7.4296875 11 7.4296875 C12.18359375 8.78515625 12.18359375 8.78515625 13.4375 10.6171875 C13.87449219 11.25527344 14.31148437 11.89335938 14.76171875 12.55078125 C17.29784788 16.39897718 19.51159793 19.79021002 20.36230469 24.38769531 C21.638937 28.47565576 25.28032988 31.22120258 28.25 34.1796875 C28.91902344 34.87707031 29.58804688 35.57445312 30.27734375 36.29296875 C30.93347656 36.95167969 31.58960938 37.61039063 32.265625 38.2890625 C33.15942871 39.19350098 33.15942871 39.19350098 34.07128906 40.11621094 C36.52844285 41.78956377 38.08252564 41.51418841 41 41.4296875 C43.7109375 43.44140625 43.7109375 43.44140625 46.375 46.1171875 C47.26960938 46.98730469 48.16421875 47.85742188 49.0859375 48.75390625 C51 51.4296875 51 51.4296875 50.8671875 54.1484375 C49.89948681 56.69410056 49.25718097 57.89802899 47 59.4296875 C43.56893524 59.93408335 42.28873496 59.62838217 39.39453125 57.63671875 C38.54246094 56.84652344 37.69039062 56.05632812 36.8125 55.2421875 C35.95269531 54.46488281 35.09289063 53.68757813 34.20703125 52.88671875 C32 50.4296875 32 50.4296875 31.0793457 48.02539062 C29.91243875 45.2191127 28.61780035 43.62451329 26.5234375 41.44140625 C25.853125 40.73564453 25.1828125 40.02988281 24.4921875 39.30273438 C23.79351562 38.58150391 23.09484375 37.86027344 22.375 37.1171875 C21.66859375 36.37662109 20.9621875 35.63605469 20.234375 34.87304688 C18.4959038 33.05235069 16.75105852 31.23826718 15 29.4296875 C14.13375 29.6771875 14.13375 29.6771875 13.25 29.9296875 C11 30.4296875 11 30.4296875 7 30.4296875 C6.34 29.7696875 5.68 29.1096875 5 28.4296875 C3.9171875 28.1203125 3.9171875 28.1203125 2.8125 27.8046875 C-1.52257459 25.6853177 -3.98278558 22.11183306 -7 18.4296875 C-7.804375 17.6046875 -8.60875 16.7796875 -9.4375 15.9296875 C-11.64014536 12.40545493 -11.92099007 9.4722634 -11 5.4296875 C-8.03608175 0.98381013 -5.40756626 -0.34821449 0 0 Z " fill="#447E35" transform="translate(27,31.5703125)"/>
<path d="M0 0 C0.33 0.99 0.66 1.98 1 3 C0.01 4.485 0.01 4.485 -1 6 C-1.66 6 -2.32 6 -3 6 C-3 8.31 -3 10.62 -3 13 C-1.02 13 0.96 13 3 13 C3.33 12.01 3.66 11.02 4 10 C4.66 10 5.32 10 6 10 C6 9.34 6 8.68 6 8 C7.9375 8.375 7.9375 8.375 10 9 C11.46650366 11.93300732 11.36440295 13.72037344 11 17 C8.76087656 21.9149224 6.13985175 25.91958381 1 28 C-0.670625 28.12375 -0.670625 28.12375 -2.375 28.25 C-6.36692151 29.07591479 -6.9958068 29.73288748 -9.625 32.625 C-12.70382653 35.97244898 -12.70382653 35.97244898 -15.6875 36.25 C-20.49950116 33.64891829 -23.08212853 28.4810169 -26 24 C-25.43410156 23.49210937 -24.86820313 22.98421875 -24.28515625 22.4609375 C-18.68824593 17.26071229 -18.68824593 17.26071229 -17 10 C-15.39806712 5.49933143 -14.25202819 2.39176586 -10 0 C-6.30581799 -1.231394 -3.7943739 -0.64432764 0 0 Z M-10.625 5.5625 C-13.67787905 8.69571797 -13.69844971 10.70290841 -14 15 C-14.49222467 20.04530283 -16.67662109 22.33576172 -20 26 C-17.11562221 24.70700306 -15.12780579 23.34058637 -13 21 C-12.319375 21.309375 -11.63875 21.61875 -10.9375 21.9375 C-6.39373183 23.58099061 -2.73973698 24.68076664 1.875 22.875 C4.40940132 20.63876354 4.73136414 19.31317555 5 16 C4.01 16.495 4.01 16.495 3 17 C-0.5817622 17.38932198 -2.36281721 17.43596718 -5.375 15.375 C-7.45406883 12.33636094 -7.46155369 10.61550392 -7 7 C-6.34 6.01 -5.68 5.02 -5 4 C-8.07949312 3.74425807 -8.07949312 3.74425807 -10.625 5.5625 Z " fill="#3A6936" transform="translate(75,32)"/>
<path d="M0 0 C3.01605049 1.4759396 4.89693876 3.29073921 7.19921875 5.73046875 C7.98941406 6.55675781 8.77960937 7.38304688 9.59375 8.234375 C10.18542969 8.87246094 10.77710937 9.51054688 11.38671875 10.16796875 C9.97400555 14.92612549 7.1860393 17.64544686 3.57421875 20.85546875 C3.05279297 21.34080078 2.53136719 21.82613281 1.99414062 22.32617188 C-2.01701717 25.95674541 -5.18084443 28.26725189 -10.67578125 28.04296875 C-14.11212803 27.01937609 -15.47095982 26.02439732 -17.61328125 23.16796875 C-18.55078125 20.73046875 -18.55078125 20.73046875 -18.61328125 18.16796875 C-16.30658205 13.48069031 -12.8595592 9.97949495 -9.23828125 6.29296875 C-8.39136719 5.38417969 -8.39136719 5.38417969 -7.52734375 4.45703125 C-3.36361507 0.21619648 -3.36361507 0.21619648 0 0 Z M-10.61328125 17.16796875 C-10.94328125 18.48796875 -11.27328125 19.80796875 -11.61328125 21.16796875 C-10.29328125 20.83796875 -8.97328125 20.50796875 -7.61328125 20.16796875 C-7.94328125 19.17796875 -8.27328125 18.18796875 -8.61328125 17.16796875 C-9.27328125 17.16796875 -9.93328125 17.16796875 -10.61328125 17.16796875 Z " fill="#467635" transform="translate(41.61328125,62.83203125)"/>
<path d="M0 0 C1.35386936 1.65002828 2.68678142 3.3174387 4 5 C6.63460948 5.87943404 6.63460948 5.87943404 9 6 C9 4.68 9 3.36 9 2 C12 3 12 3 14 6 C14.680625 6.165 15.36125 6.33 16.0625 6.5 C16.701875 6.665 17.34125 6.83 18 7 C18.89553252 9.68659757 19.55900361 12.20702289 20 15 C19.67 15.33 19.34 15.66 19 16 C19.44730469 16.36351563 19.89460938 16.72703125 20.35546875 17.1015625 C24.38793652 20.4547873 27.76004454 23.87642033 31 28 C27.30165104 28 26.72918572 27.18635778 24.0625 24.75 C23.36253906 24.11191406 22.66257812 23.47382812 21.94140625 22.81640625 C21.30074219 22.21699219 20.66007812 21.61757812 20 21 C19.175 20.236875 18.35 19.47375 17.5 18.6875 C16 17 16 17 16 15 C10.91696314 14.88679144 10.91696314 14.88679144 6 16 C5.67 15.34 5.34 14.68 5 14 C2.97536745 13.34786708 2.97536745 13.34786708 1 13 C1 12.34 1 11.68 1 11 C0.443125 10.773125 -0.11375 10.54625 -0.6875 10.3125 C-3.68041199 8.61382022 -5.73527237 6.57927313 -8 4 C-8 3.01 -8 2.02 -8 1 C-4.93309225 -0.02230258 -3.18373032 -0.46591175 0 0 Z " fill="#417E31" transform="translate(28,44)"/>
<path d="M0 0 C0.33 0.99 0.66 1.98 1 3 C0.01 4.485 0.01 4.485 -1 6 C-1.66 6 -2.32 6 -3 6 C-3.33 6.66 -3.66 7.32 -4 8 C-5.32 7.67 -6.64 7.34 -8 7 C-7.34 6.34 -6.68 5.68 -6 5 C-9.59668828 6.13042529 -9.59668828 6.13042529 -12.3125 8.625 C-13.22063924 11.18527314 -13.22063924 11.18527314 -12.5625 14.6875 C-12.42144554 17.94401828 -12.92257743 18.90227484 -14.99609375 21.51953125 C-17.26624394 23.76843198 -19.5741563 25.9207054 -22 28 C-23.32 26.68 -24.64 25.36 -26 24 C-25.43410156 23.49210937 -24.86820313 22.98421875 -24.28515625 22.4609375 C-18.68824593 17.26071229 -18.68824593 17.26071229 -17 10 C-15.39806712 5.49933143 -14.25202819 2.39176586 -10 0 C-6.30581799 -1.231394 -3.7943739 -0.64432764 0 0 Z " fill="#295220" transform="translate(75,32)"/>
<path d="M0 0 C4.03520597 1.58962659 8.01811282 3.28232318 12 5 C9.76024052 7.26758258 7.47726679 9.47409457 5.125 11.625 C4.13886719 12.54152344 4.13886719 12.54152344 3.1328125 13.4765625 C0.73251708 15.19105923 -1.10019656 15.62615775 -4 16 C-5.65 14.02 -7.3 12.04 -9 10 C-7.61811547 6.78956118 -6.07578097 4.95063635 -3.375 2.75 C-2.74335937 2.22921875 -2.11171875 1.7084375 -1.4609375 1.171875 C-0.73777344 0.59179688 -0.73777344 0.59179688 0 0 Z " fill="#457A38" transform="translate(62,52)"/>
<path d="M0 0 C6.4040699 -0.45743356 10.57651592 0.51165578 16 4 C16.66 4.66 17.32 5.32 18 6 C17.78739686 8.76384076 17.32831986 10.52393621 15.75 12.8125 C13.24627193 14.51145833 11.97201476 14.56609805 9 14 C6.375 11.75 6.375 11.75 4 9 C3.4225 8.34 2.845 7.68 2.25 7 C0.79983027 4.67972842 0.37404958 2.69315696 0 0 Z " fill="#477C3E" transform="translate(60,77)"/>
<path d="M0 0 C2.99053254 0.25874824 4.58081834 0.61250594 6.80859375 2.671875 C7.34613281 3.35765625 7.88367188 4.0434375 8.4375 4.75 C11.37193542 8.32795196 14.35719535 11.15683539 18 14 C18.21982158 11.77078597 18.21982158 11.77078597 16.1015625 9.8359375 C15.28429687 9.02382812 14.46703125 8.21171875 13.625 7.375 C12.81289063 6.55773437 12.00078125 5.74046875 11.1640625 4.8984375 C9.22921403 2.78017842 9.22921403 2.78017842 7 3 C7 2.34 7 1.68 7 1 C10.28950911 1.57496481 11.81993805 2.48640217 14.05859375 4.94140625 C14.88520508 5.81635742 14.88520508 5.81635742 15.72851562 6.70898438 C16.86799648 7.94483276 18.00342422 9.18443053 19.13476562 10.42773438 C22.2945531 14.01638758 22.2945531 14.01638758 26.703125 15.18359375 C27.46109375 15.12300781 28.2190625 15.06242187 29 15 C30.80078125 16.53125 30.80078125 16.53125 32.3125 18.5 C32.82425781 19.1496875 33.33601563 19.799375 33.86328125 20.46875 C34.23839844 20.9740625 34.61351562 21.479375 35 22 C34.41476563 21.84660156 33.82953125 21.69320312 33.2265625 21.53515625 C29.55379647 20.65240371 25.78314321 20 22 20 C23.12451727 22.9719385 24.22293791 25.33440687 26 28 C22.58003118 26.40401455 20.49356817 25.2817784 19.08349609 21.61987305 C17.93914883 18.85286302 16.70215643 17.25398422 14.6640625 15.08203125 C14.01179688 14.38529297 13.35953125 13.68855469 12.6875 12.97070312 C12.006875 12.25849609 11.32625 11.54628906 10.625 10.8125 C9.95210937 10.08869141 9.27921875 9.36488281 8.5859375 8.61914062 C4.32258405 4.1023175 4.32258405 4.1023175 -1 1 C-0.67 0.67 -0.34 0.34 0 0 Z " fill="#628D5C" transform="translate(39,58)"/>
<path d="M0 0 C3.62613199 0.56959153 5.25517741 1.92374534 7.75 4.5625 C8.36359375 5.20316406 8.9771875 5.84382813 9.609375 6.50390625 C10.06828125 6.99761719 10.5271875 7.49132812 11 8 C9.55284248 13.01009596 6.67912706 15.50705781 2.875 18.8125 C2.03001953 19.56563477 2.03001953 19.56563477 1.16796875 20.33398438 C-0.214297 21.56396661 -1.60620732 22.78309538 -3 24 C-3.99 23.67 -4.98 23.34 -6 23 C-5.34 22.38125 -4.68 21.7625 -4 21.125 C-1.7715451 19.24362573 -1.7715451 19.24362573 -2 17 C-3.45833358 15.37485532 -3.45833358 15.37485532 -5 14 C-3.35 13.67 -1.7 13.34 0 13 C0 12.34 0 11.68 0 11 C0.66 11 1.32 11 2 11 C2 10.34 2 9.68 2 9 C2.66 9 3.32 9 4 9 C2.88145414 5.27385847 2.88145414 5.27385847 0 3 C0 2.01 0 1.02 0 0 Z " fill="#467F39" transform="translate(42,65)"/>
<path d="M0 0 C2.81939117 2.20979308 5.53058944 4.40062046 8 7 C6.79618552 9.49361571 5.54571278 11.68143083 4 14 C0.39389712 15.12189867 -1.30712643 15.33068966 -4.75 13.6875 C-7 12 -7 12 -9 10 C-8.6730244 7.38419521 -8.17960932 5.35921863 -7 3 C-6.34 3.33 -5.68 3.66 -5 4 C-4.34 3.67 -3.68 3.34 -3 3 C-2.01 3 -1.02 3 0 3 C0 2.01 0 1.02 0 0 Z M-2 4 C-2.33 5.32 -2.66 6.64 -3 8 C-1.68 7.67 -0.36 7.34 1 7 C0.67 6.01 0.34 5.02 0 4 C-0.66 4 -1.32 4 -2 4 Z " fill="#3E7832" transform="translate(33,76)"/>
<path d="M0 0 C1.9375 0.8125 1.9375 0.8125 4 2 C4.33 2.99 4.66 3.98 5 5 C5.66 5 6.32 5 7 5 C10.25494123 8.51858133 12.55946315 12.15409462 13 17 C10.11562221 15.70700306 8.12780579 14.34058637 6 12 C6 13.32 6 14.64 6 16 C5.01 16.33 4.02 16.66 3 17 C-1.40026234 13.84329006 -4.65295116 10.23303235 -8 6 C-7.34 5.67 -6.68 5.34 -6 5 C-5.67 4.34 -5.34 3.68 -5 3 C-3.948125 4.1446875 -3.948125 4.1446875 -2.875 5.3125 C-0.03647396 7.96590478 2.46949051 9.44000743 6 11 C5.65066406 10.37351562 5.30132812 9.74703125 4.94140625 9.1015625 C4.48636719 8.28429688 4.03132813 7.46703125 3.5625 6.625 C3.11003906 5.81289063 2.65757813 5.00078125 2.19140625 4.1640625 C1.4349464 2.79003378 0.70145369 1.40290739 0 0 Z " fill="#528948" transform="translate(31,34)"/>
<path d="M0 0 C0.33 0 0.66 0 1 0 C1.33 1.65 1.66 3.3 2 5 C2.99 5.33 3.98 5.66 5 6 C4.67 7.65 4.34 9.3 4 11 C4.556875 11.226875 5.11375 11.45375 5.6875 11.6875 C8.66159588 13.37550036 10.72008865 15.46676517 13 18 C13 18.66 13 19.32 13 20 C14.65 20 16.3 20 18 20 C18 20.99 18 21.98 18 23 C19.32 22.34 20.64 21.68 22 21 C22.33 21.99 22.66 22.98 23 24 C21.02 24.99 21.02 24.99 19 26 C18.608125 25.54625 18.21625 25.0925 17.8125 24.625 C16.09604961 22.85680302 16.09604961 22.85680302 13.75 22.3125 C9.4329892 20.25210848 6.98900488 16.64771923 4 13 C3.195625 12.175 2.39125 11.35 1.5625 10.5 C-0.70449906 6.87280151 -0.28647186 4.22545999 0 0 Z " fill="#416D39" transform="translate(16,37)"/>
<path d="M0 0 C2.81277206 0.26965418 4.51830563 0.57809439 6.66796875 2.4609375 C7.42013672 3.40839844 7.42013672 3.40839844 8.1875 4.375 C11.89027625 8.90152163 15.84714989 13.13687684 19.86328125 17.38671875 C21.93892098 19.92529824 22.91948218 21.94106926 24 25 C24.66 25.99 25.32 26.98 26 28 C22.58003118 26.40401455 20.49356817 25.2817784 19.08349609 21.61987305 C17.93914883 18.85286302 16.70215643 17.25398422 14.6640625 15.08203125 C14.01179688 14.38529297 13.35953125 13.68855469 12.6875 12.97070312 C12.006875 12.25849609 11.32625 11.54628906 10.625 10.8125 C9.95210937 10.08869141 9.27921875 9.36488281 8.5859375 8.61914062 C4.32258405 4.1023175 4.32258405 4.1023175 -1 1 C-0.67 0.67 -0.34 0.34 0 0 Z " fill="#79A97F" transform="translate(39,58)"/>
<path d="M0 0 C1.32 1.32 2.64 2.64 4 4 C1.93758357 8.01628463 0.14386369 10.125395 -4 12 C-6.8125 12.1875 -6.8125 12.1875 -9 12 C-8.34 11.34 -7.68 10.68 -7 10 C-7.33 9.34 -7.66 8.68 -8 8 C-6.576875 7.4121875 -6.576875 7.4121875 -5.125 6.8125 C-1.65872662 4.80206144 -1.0197307 3.77300358 0 0 Z " fill="#2A5B24" transform="translate(80,48)"/>
<path d="M0 0 C1.9375 0.8125 1.9375 0.8125 4 2 C4.33 2.99 4.66 3.98 5 5 C1.6895495 10.10724106 -3.72646105 15.8802579 -9 19 C-9.99 18.67 -10.98 18.34 -12 18 C-11.34 17.38125 -10.68 16.7625 -10 16.125 C-7.7715451 14.24362573 -7.7715451 14.24362573 -8 12 C-9.45833358 10.37485532 -9.45833358 10.37485532 -11 9 C-10.01 9 -9.02 9 -8 9 C-7.67 9.33 -7.34 9.66 -7 10 C-3.65275979 10.45232976 -2.38321304 10.28236751 0.375 8.25 C2.24882436 6.17255378 2.24882436 6.17255378 1.8125 3.875 C1.24551958 2.56658365 0.63771783 1.27543566 0 0 Z M-8 8 C-6 9 -6 9 -6 9 Z " fill="#85AD81" transform="translate(48,70)"/>
<path d="M0 0 C0.4375 2.0625 0.4375 2.0625 0 5 C-2.12080183 7.57260172 -4.50627561 9.79254499 -7 12 C-8.32 10.68 -9.64 9.36 -11 8 C-3.34782609 0 -3.34782609 0 0 0 Z " fill="#46743D" transform="translate(60,48)"/>
<path d="M0 0 C-0.639375 0.350625 -1.27875 0.70125 -1.9375 1.0625 C-4.8519264 3.8002945 -4.66316815 6.09275052 -5 10 C-5.31966139 11.66934283 -5.64731066 13.3373217 -6 15 C-6.66 14.01 -7.32 13.02 -8 12 C-8.99 12 -9.98 12 -11 12 C-9.66666667 8 -8.33333333 4 -7 0 C-4.05610218 -1.17755913 -3.10046087 -1.03348696 0 0 Z " fill="#3D602F" transform="translate(67,37)"/>
<path d="M0 0 C4.17443363 3.50074982 8.3145494 6.97950843 12 11 C12 11.66 12 12.32 12 13 C11.01 13.33 10.02 13.66 9 14 C4.59973766 10.84329006 1.34704884 7.23303235 -2 3 C-1.34 2.67 -0.68 2.34 0 2 C0 1.34 0 0.68 0 0 Z " fill="#5B945A" transform="translate(25,37)"/>
<path d="M0 0 C1.65 0.33 3.3 0.66 5 1 C5.75 2.6875 5.75 2.6875 6 5 C3.86618551 8.2769294 2.74981988 9.75006004 -1 11 C-1.66 9.68 -2.32 8.36 -3 7 C-1.68 5.35 -0.36 3.7 1 2 C0.67 1.34 0.34 0.68 0 0 Z " fill="#3D7531" transform="translate(37,69)"/>
<path d="M0 0 C2.1875 0.3125 2.1875 0.3125 4 1 C3.8125 2.875 3.8125 2.875 3 5 C-0.91405938 7.30238787 -4.54719212 7.17461992 -9 7 C-9 6.34 -9 5.68 -9 5 C-5.25 3.875 -5.25 3.875 -3 5 C-3 4.34 -3 3.68 -3 3 C-1.75 1.3125 -1.75 1.3125 0 0 Z " fill="#407D33" transform="translate(37,81)"/>
<path d="M0 0 C1.0828125 0.37125 1.0828125 0.37125 2.1875 0.75 C1.5275 2.07 0.8675 3.39 0.1875 4.75 C-0.4725 4.75 -1.1325 4.75 -1.8125 4.75 C-2.1425 5.41 -2.4725 6.07 -2.8125 6.75 C-4.875 7.375 -4.875 7.375 -6.8125 7.75 C-7.1425 6.43 -7.4725 5.11 -7.8125 3.75 C-3.50480769 -0.31153846 -3.50480769 -0.31153846 0 0 Z " fill="#3E7A2D" transform="translate(60.8125,56.25)"/>
<path d="M0 0 C2 2 2 2 2.3125 4.9375 C2 8 2 8 0.5 9.875 C-0.2425 10.431875 -0.2425 10.431875 -1 11 C-2.06652192 8.69631264 -3.06421005 6.35981813 -4 4 C-3.67 3.34 -3.34 2.68 -3 2 C-2.01 2 -1.02 2 0 2 C0 1.34 0 0.68 0 0 Z " fill="#3F7D44" transform="translate(84,41)"/>
<path d="M0 0 C1.9375 0.375 1.9375 0.375 4 1 C5.35439668 3.70879335 5.06501451 6.00933268 5 9 C1.31245243 8.50168276 -0.60490662 7.89932357 -3 5 C-2.01 5 -1.02 5 0 5 C0 4.34 0 3.68 0 3 C0 2.01 0 1.02 0 0 Z " fill="#3F7E32" transform="translate(70,79)"/>
<path d="M0 0 C0.99 0.66 1.98 1.32 3 2 C2.67 2.33 2.34 2.66 2 3 C3.65 3 5.3 3 7 3 C6.3125 4.9375 6.3125 4.9375 5 7 C2.375 7.75 2.375 7.75 0 8 C-0.99 6.35 -1.98 4.7 -3 3 C-2.01 3 -1.02 3 0 3 C0 2.01 0 1.02 0 0 Z " fill="#5B8D54" transform="translate(58,60)"/>
<path d="M0 0 C1.485 0.99 1.485 0.99 3 2 C3 2.66 3 3.32 3 4 C6.3 3.67 9.6 3.34 13 3 C12.67 3.99 12.34 4.98 12 6 C8.47078888 6.90282145 6.59289113 7.25033181 3.1875 5.8125 C0.83246285 3.86118351 0.30891997 2.98622637 0 0 Z " fill="#50784B" transform="translate(25,84)"/>
<path d="M0 0 C1.051875 0.2475 2.10375 0.495 3.1875 0.75 C3.1875 1.74 3.1875 2.73 3.1875 3.75 C2.65125 3.523125 2.115 3.29625 1.5625 3.0625 C-1.87331901 2.61041855 -3.87016694 4.07821985 -6.8125 5.75 C-7.4725 5.09 -8.1325 4.43 -8.8125 3.75 C-5.66311307 0.60061307 -4.55934222 -0.29897326 0 0 Z " fill="#729467" transform="translate(68.8125,32.25)"/>
<path d="M0 0 C0.66 0.33 1.32 0.66 2 1 C1 4 1 4 -0.9375 5.0625 C-1.618125 5.371875 -2.29875 5.68125 -3 6 C-3.66 6.66 -4.32 7.32 -5 8 C-5.33 6.68 -5.66 5.36 -6 4 C-6.66 5.32 -7.32 6.64 -8 8 C-8.33 7.34 -8.66 6.68 -9 6 C-7.5625 3.375 -7.5625 3.375 -6 1 C-5.67 1.66 -5.34 2.32 -5 3 C-2.3094472 1.77992056 -2.3094472 1.77992056 0 0 Z " fill="#366B26" transform="translate(32,75)"/>
<path d="M0 0 C1.65 1.65 3.3 3.3 5 5 C3.68 6.32 2.36 7.64 1 9 C0.67 7.68 0.34 6.36 0 5 C-1.32 5.33 -2.64 5.66 -4 6 C-3.67 5.01 -3.34 4.02 -3 3 C-2.01 3 -1.02 3 0 3 C0 2.01 0 1.02 0 0 Z " fill="#4A7741" transform="translate(33,76)"/>
<path d="M0 0 C3.53586014 3.17320782 5.58578031 5.16743695 6 10 C3.54896452 9.01958581 2.23241214 8.3486182 0.75 6.125 C0 4 0 4 0 0 Z " fill="#56824E" transform="translate(38,41)"/>
<path d="M0 0 C2.64 0 5.28 0 8 0 C8.33 0.99 8.66 1.98 9 3 C7.35 3.66 5.7 4.32 4 5 C2.64567325 3.68799596 1.31266518 2.35368596 0 1 C0 0.67 0 0.34 0 0 Z " fill="#3F7231" transform="translate(21,32)"/>
<path d="M0 0 C1.32 0.66 2.64 1.32 4 2 C4 3.32 4 4.64 4 6 C3.34 6 2.68 6 2 6 C2 6.66 2 7.32 2 8 C1.34 8 0.68 8 0 8 C0 8.66 0 9.32 0 10 C-0.66 9.67 -1.32 9.34 -2 9 C-1.67 8.443125 -1.34 7.88625 -1 7.3125 C0.1309601 4.69715478 0.15662974 2.8193354 0 0 Z " fill="#3F7B2B" transform="translate(42,68)"/>
<path d="M0 0 C1.32 1.32 2.64 2.64 4 4 C3.34 5.32 2.68 6.64 2 8 C0.68 7.67 -0.64 7.34 -2 7 C-1.34 4.69 -0.68 2.38 0 0 Z " fill="#366A34" transform="translate(80,48)"/>
<path d="M0 0 C1.65 0 3.3 0 5 0 C5 0.99 5 1.98 5 3 C6.32 2.34 7.64 1.68 9 1 C9.33 1.99 9.66 2.98 10 4 C8.02 4.99 8.02 4.99 6 6 C3.97945196 4.35830472 1.97956942 2.69088222 0 1 C0 0.67 0 0.34 0 0 Z " fill="#4B7742" transform="translate(29,57)"/>
<path d="M0 0 C-0.61875 0.4125 -1.2375 0.825 -1.875 1.25 C-4.06768281 3.05573879 -4.92788417 4.4090534 -6 7 C-7.0625 5.1875 -7.0625 5.1875 -8 3 C-7.67 2.01 -7.34 1.02 -7 0 C-4.05610218 -1.17755913 -3.10046087 -1.03348696 0 0 Z " fill="#0F1D0B" transform="translate(67,37)"/>
<path d="M0 0 C1.65 0.33 3.3 0.66 5 1 C4.6875 2.875 4.6875 2.875 4 5 C3.01 5.66 2.02 6.32 1 7 C0.34 6.34 -0.32 5.68 -1 5 C-0.34 4.01 0.32 3.02 1 2 C0.67 1.34 0.34 0.68 0 0 Z " fill="#356430" transform="translate(37,69)"/>
<path d="M0 0 C3.4375 0.8125 3.4375 0.8125 7 2 C7.33 2.99 7.66 3.98 8 5 C7.01 5.33 6.02 5.66 5 6 C3.35 4.02 1.7 2.04 0 0 Z " fill="#4E8243" transform="translate(54,71)"/>
<path d="M0 0 C2.64 0.99 5.28 1.98 8 3 C7.01 3.99 6.02 4.98 5 6 C4.34 6 3.68 6 3 6 C3 5.01 3 4.02 3 3 C2.01 2.67 1.02 2.34 0 2 C0 1.34 0 0.68 0 0 Z " fill="#3A6F33" transform="translate(66,54)"/>
<path d="M0 0 C1.32 0.99 2.64 1.98 4 3 C3.625 5.4375 3.625 5.4375 3 8 C2.01 8.495 2.01 8.495 1 9 C0.67 6.03 0.34 3.06 0 0 Z " fill="#507F4E" transform="translate(74,80)"/>
<path d="M0 0 C1.485 0.99 1.485 0.99 3 2 C3.125 4.5 3.125 4.5 3 7 C3.33 7.66 3.66 8.32 4 9 C3.01 9 2.02 9 1 9 C-0.4783226 6.04335481 -0.06032783 3.25770263 0 0 Z " fill="#4A7543" transform="translate(44,50)"/>
<path d="M0 0 C0.66 0.33 1.32 0.66 2 1 C1.2884375 2.0828125 1.2884375 2.0828125 0.5625 3.1875 C-0.94152903 5.89475226 -1.56599182 7.96194275 -2 11 C-2.33 11 -2.66 11 -3 11 C-3.36923077 3.49230769 -3.36923077 3.49230769 -1.5 1 C-1.005 0.67 -0.51 0.34 0 0 Z " fill="#4E7C46" transform="translate(20,33)"/>
<path d="M0 0 C2.31 0.33 4.62 0.66 7 1 C6.67 1.66 6.34 2.32 6 3 C2.9375 3.625 2.9375 3.625 0 4 C-0.33 3.34 -0.66 2.68 -1 2 C-0.67 1.34 -0.34 0.68 0 0 Z " fill="#3E7C2E" transform="translate(63,77)"/>
<path d="M0 0 C4.2742558 1.5830577 6.26531794 4.50568404 9 8 C6.64277278 7.82539058 5.30294138 7.3003668 3.62109375 5.6328125 C0 1.32051282 0 1.32051282 0 0 Z " fill="#5F8664" transform="translate(23,39)"/>
<path d="M0 0 C2.88575819 0.39803561 3.82189513 0.79009069 5.75 3.0625 C6.1625 3.701875 6.575 4.34125 7 5 C4.69 4.34 2.38 3.68 0 3 C0 2.01 0 1.02 0 0 Z " fill="#548350" transform="translate(42,65)"/>
<path d="M0 0 C0 3.57575896 -1.08840607 5.05295935 -3 8 C-3.66 6.68 -4.32 5.36 -5 4 C-3.35 2.68 -1.7 1.36 0 0 Z " fill="#4A7142" transform="translate(58,56)"/>
</svg>
