<?xml version="1.0" encoding="UTF-8"?>
<svg version="1.1" xmlns="http://www.w3.org/2000/svg" width="100" height="100">
<path d="M0 0 C0.99 0.495 0.99 0.495 2 1 C1.34 3.64 0.68 6.28 0 9 C0.598125 8.34 1.19625 7.68 1.8125 7 C4 5 4 5 7 5 C6.67 6.65 6.34 8.3 6 10 C6.7425 9.505 7.485 9.01 8.25 8.5 C11 7 11 7 15 7 C14.67 8.32 14.34 9.64 14 11 C14.99 11.33 15.98 11.66 17 12 C17 13.32 17 14.64 17 16 C-12.04 16 -41.08 16 -71 16 C-71 14.68 -71 13.36 -71 12 C-70.01 12 -69.02 12 -68 12 C-68.66 10.35 -69.32 8.7 -70 7 C-67.39417629 6.06934867 -66.35801776 5.85082593 -63.75 6.9375 C-63.1725 7.288125 -62.595 7.63875 -62 8 C-62.33 6.68 -62.66 5.36 -63 4 C-60.21788056 4.37596209 -58.4120716 4.67318459 -56.1875 6.4375 C-55 8 -55 8 -55 10 C-54.34 10 -53.68 10 -53 10 C-53.020625 9.05125 -53.04125 8.1025 -53.0625 7.125 C-53 4 -53 4 -52 2 C-50.68 2 -49.36 2 -48 2 C-47.67 4.64 -47.34 7.28 -47 10 C-46.236875 9.175 -45.47375 8.35 -44.6875 7.5 C-42 5 -42 5 -39 5 C-39 6.32 -39 7.64 -39 9 C-38.401875 8.34 -37.80375 7.68 -37.1875 7 C-35 5 -35 5 -32 5 C-32.33 6.65 -32.66 8.3 -33 10 C-28.68607774 9.5206753 -26.83430453 8.2542015 -24 5 C-21 6 -21 6 -20 7 C-18.35 6.01 -16.7 5.02 -15 4 C-14.505 5.98 -14.505 5.98 -14 8 C-13.401875 7.175 -12.80375 6.35 -12.1875 5.5 C-11.465625 4.675 -10.74375 3.85 -10 3 C-9.01 3 -8.02 3 -7 3 C-7 4.65 -7 6.3 -7 8 C-6.66226563 7.50628906 -6.32453125 7.01257813 -5.9765625 6.50390625 C-5.30753906 5.54291016 -5.30753906 5.54291016 -4.625 4.5625 C-3.96371094 3.60537109 -3.96371094 3.60537109 -3.2890625 2.62890625 C-2 1 -2 1 0 0 Z M-16 9 C-15 11 -15 11 -15 11 Z M-9 9 C-8 11 -8 11 -8 11 Z " fill="#497A3B" transform="translate(78,77)"/>
<path d="M0 0 C0 1.32 0 2.64 0 4 C-3.24569391 5.71988316 -5.84936983 6.11009033 -9.44921875 6.02734375 C-23.85991112 5.71920448 -32.49960999 9.47651192 -44 18 C-42.41416752 17.23432134 -40.83143506 16.46222035 -39.25 15.6875 C-37.92742188 15.04361328 -37.92742188 15.04361328 -36.578125 14.38671875 C-34.18173892 13.09775351 -32.16027838 11.64106984 -30 10 C-25.76801388 8.55221527 -23.09560617 9.38080686 -19 11 C-20.52708963 14.43595166 -22.59927045 17.11912454 -25 20 C-23.6696875 19.319375 -23.6696875 19.319375 -22.3125 18.625 C-17.68148073 16.5995234 -12.87300933 16.13565812 -7.890625 15.52734375 C-4.81630534 15.16380078 -4.81630534 15.16380078 -2 13 C-1.01 13 -0.02 13 1 13 C0.67522284 16.00418869 0.42029035 17.57970965 -1.75 19.75 C-4 21 -4 21 -6.625 21.4375 C-7.40875 21.623125 -8.1925 21.80875 -9 22 C-9.309375 22.61875 -9.61875 23.2375 -9.9375 23.875 C-11.58583204 27.17166409 -13.58204638 27.79738669 -17 29 C-22.54602799 28.73164381 -27.64267608 27.40519972 -33 26 C-34.66394675 25.65334443 -36.32943851 25.31323028 -38 25 C-38.33 24.01 -38.66 23.02 -39 22 C-39.66 22.33 -40.32 22.66 -41 23 C-40.67 24.32 -40.34 25.64 -40 27 C-41.32 27.33 -42.64 27.66 -44 28 C-44.0928125 27.071875 -44.0928125 27.071875 -44.1875 26.125 C-44.5896875 25.073125 -44.5896875 25.073125 -45 24 C-45.825 23.67 -46.65 23.34 -47.5 23 C-50 22 -50 22 -51.125 20.1875 C-50.96094579 17.31655136 -49.66552164 16.32707197 -47.65332031 14.39770508 C-44.4368994 11.67856602 -40.87106247 9.48957027 -37.3125 7.25 C-36.54099609 6.75628906 -35.76949219 6.26257812 -34.97460938 5.75390625 C-27.36373876 0.90156079 -27.36373876 0.90156079 -22.421875 0.68359375 C-21.50792969 0.64169922 -20.59398438 0.59980469 -19.65234375 0.55664062 C-18.21568359 0.49766602 -18.21568359 0.49766602 -16.75 0.4375 C-15.80769531 0.39431641 -14.86539063 0.35113281 -13.89453125 0.30664062 C-9.25955093 0.1018694 -4.64072885 -0.0545052 0 0 Z " fill="#4B7A3C" transform="translate(81,37)"/>
<path d="M0 0 C0.66 0.33 1.32 0.66 2 1 C1.34 3.64 0.68 6.28 0 9 C1.32 9 2.64 9 4 9 C4.66 8.34 5.32 7.68 6 7 C6 7.99 6 8.98 6 10 C6.88300781 9.98839844 7.76601562 9.97679688 8.67578125 9.96484375 C16.18570191 9.90837818 23.53750129 10.147143 31 11 C31 10.34 31 9.68 31 9 C29.35 9 27.7 9 26 9 C26.66 7.68 27.32 6.36 28 5 C28.66 5 29.32 5 30 5 C30 5.66 30 6.32 30 7 C30.99 7.33 31.98 7.66 33 8 C33 9.32 33 10.64 33 12 C3.96 12 -25.08 12 -55 12 C-55 10.68 -55 9.36 -55 8 C-51.125 8.875 -51.125 8.875 -50 10 C-47.04294679 10.08868299 -44.10934944 10.11520296 -41.15234375 10.09765625 C-40.2659169 10.0962413 -39.37949005 10.09482635 -38.46620178 10.09336853 C-35.62326746 10.08775215 -32.78041069 10.07519691 -29.9375 10.0625 C-28.01497509 10.05748711 -26.09244896 10.05292384 -24.16992188 10.04882812 C-19.44658451 10.03777741 -14.72330542 10.02050183 -10 10 C-9.67 8.68 -9.34 7.36 -9 6 C-7 7 -5 8 -3 9 C-3.495 6.03 -3.495 6.03 -4 3 C-2.68 2.01 -1.36 1.02 0 0 Z " fill="#537A48" transform="translate(62,81)"/>
<path d="M0 0 C0 4 0 4 -1.53125 5.703125 C-2.1809375 6.21359375 -2.830625 6.7240625 -3.5 7.25 C-4.1496875 7.77078125 -4.799375 8.2915625 -5.46875 8.828125 C-5.9740625 9.21484375 -6.479375 9.6015625 -7 10 C-6.21007484 5.75074742 -4.15346563 3.91089135 -1 1 C-2.98 1 -4.96 1 -7 1 C-7 1.66 -7 2.32 -7 3 C-7.99 3.495 -7.99 3.495 -9 4 C-8.67 4.66 -8.34 5.32 -8 6 C-8.33 6.66 -8.66 7.32 -9 8 C-9.804375 8.12375 -10.60875 8.2475 -11.4375 8.375 C-14.13823654 8.71493933 -14.13823654 8.71493933 -15.1875 10.9375 C-15.455625 11.618125 -15.72375 12.29875 -16 13 C-16.66 13.66 -17.32 14.32 -18 15 C-18.33 14.01 -18.66 13.02 -19 12 C-19.99 12.495 -19.99 12.495 -21 13 C-20.67 14.32 -20.34 15.64 -20 17 C-21.32 17.33 -22.64 17.66 -24 18 C-24.0928125 17.071875 -24.0928125 17.071875 -24.1875 16.125 C-24.828919 13.72238859 -24.828919 13.72238859 -27.5625 12.75 C-28.366875 12.5025 -29.17125 12.255 -30 12 C-28 11 -28 11 -25 10 C-23.65136399 9.02073564 -22.3203296 8.01710743 -21 7 C-19.15690891 5.77483931 -17.30202792 4.56728316 -15.4375 3.375 C-14.48746094 2.76398437 -13.53742187 2.15296875 -12.55859375 1.5234375 C-7.95558877 -1.21728302 -5.18251217 -0.88004924 0 0 Z " fill="#48713A" transform="translate(61,47)"/>
<path d="M0 0 C0.99 0.33 1.98 0.66 3 1 C3 1.66 3 2.32 3 3 C3.66 3.33 4.32 3.66 5 4 C5.33 4.66 5.66 5.32 6 6 C5.67 6.66 5.34 7.32 5 8 C0.125 7.125 0.125 7.125 -1 6 C-1.33 6.99 -1.66 7.98 -2 9 C-3.8125 9.8125 -3.8125 9.8125 -6 10 C-8.25 9.0625 -8.25 9.0625 -10 8 C-10 7.34 -10 6.68 -10 6 C-8.63875 5.62875 -8.63875 5.62875 -7.25 5.25 C-3.89648511 3.96018658 -2.32291764 2.68028958 0 0 Z " fill="#487337" transform="translate(54,82)"/>
<path d="M0 0 C0 0.99 0 1.98 0 3 C-1.11375 3.2475 -2.2275 3.495 -3.375 3.75 C-7.04876124 4.58449544 -7.04876124 4.58449544 -8.25 7.0625 C-8.4975 7.701875 -8.745 8.34125 -9 9 C-9.99 9.33 -10.98 9.66 -12 10 C-12 8.35 -12 6.7 -12 5 C-13.32 4.34 -14.64 3.68 -16 3 C-14 1 -14 1 -11.65234375 0.8046875 C-10.75644531 0.82789063 -9.86054687 0.85109375 -8.9375 0.875 C-8.03902344 0.89304688 -7.14054687 0.91109375 -6.21484375 0.9296875 C-5.11849609 0.96449219 -5.11849609 0.96449219 -4 1 C-2.63106761 1.05270463 -2.63106761 1.05270463 0 0 Z " fill="#487C38" transform="translate(79,54)"/>
<path d="M0 0 C1.98 0 3.96 0 6 0 C6 1.32 6 2.64 6 4 C2.07142246 5.85131483 -0.98775112 6.22004943 -5.3125 6.125 C-6.38113281 6.10695313 -7.44976562 6.08890625 -8.55078125 6.0703125 C-9.35902344 6.04710937 -10.16726562 6.02390625 -11 6 C-11 5.34 -11 4.68 -11 4 C-7.37 4 -3.74 4 0 4 C0 2.68 0 1.36 0 0 Z " fill="#557947" transform="translate(75,37)"/>
<path d="M0 0 C1.18613892 0.00785522 1.18613892 0.00785522 2.39624023 0.01586914 C3.67724609 0.02070312 3.67724609 0.02070312 4.98413086 0.02563477 C5.88196289 0.03401367 6.77979492 0.04239258 7.70483398 0.05102539 C8.6065332 0.05553711 9.50823242 0.06004883 10.43725586 0.06469727 C12.67234712 0.07652315 14.90730835 0.09300319 17.14233398 0.11352539 C17.14233398 0.77352539 17.14233398 1.43352539 17.14233398 2.11352539 C13.51233398 2.11352539 9.88233398 2.11352539 6.14233398 2.11352539 C6.14233398 2.77352539 6.14233398 3.43352539 6.14233398 4.11352539 C2.99608406 4.37571288 1.52396381 4.36106906 -1.17016602 2.61352539 C-1.72704102 2.11852539 -2.28391602 1.62352539 -2.85766602 1.11352539 C-1.85766602 0.11352539 -1.85766602 0.11352539 0 0 Z " fill="#487836" transform="translate(57.857666015625,38.886474609375)"/>
<path d="M0 0 C0.66 0 1.32 0 2 0 C2 0.66 2 1.32 2 2 C4.31 2.33 6.62 2.66 9 3 C5.07575658 5.61616228 2.39391825 4.76128151 -2 4 C-3.155 3.814375 -4.31 3.62875 -5.5 3.4375 C-6.7375 3.2209375 -6.7375 3.2209375 -8 3 C-8 2.67 -8 2.34 -8 2 C-6.865625 1.855625 -5.73125 1.71125 -4.5625 1.5625 C-1.19222799 1.38828522 -1.19222799 1.38828522 0 0 Z " fill="#4B743E" transform="translate(58,61)"/>
<path d="M0 0 C3.625 0.375 3.625 0.375 7 1 C7 5 7 5 5.46875 6.703125 C4.8190625 7.21359375 4.169375 7.7240625 3.5 8.25 C2.8503125 8.77078125 2.200625 9.2915625 1.53125 9.828125 C1.0259375 10.21484375 0.520625 10.6015625 0 11 C0.78992516 6.75074742 2.84653437 4.91089135 6 2 C3.36 2 0.72 2 -2 2 C-1.34 1.34 -0.68 0.68 0 0 Z " fill="#4A6A3E" transform="translate(54,46)"/>
<path d="M0 0 C0.99 0.33 1.98 0.66 3 1 C3 1.66 3 2.32 3 3 C3.66 3.66 4.32 4.32 5 5 C-2.42857143 5.28571429 -2.42857143 5.28571429 -6 3 C-6 2.34 -6 1.68 -6 1 C-4.68 1 -3.36 1 -2 1 C-2 1.66 -2 2.32 -2 3 C-1.34 2.34 -0.68 1.68 0 1 C0 0.67 0 0.34 0 0 Z " fill="#548444" transform="translate(50,58)"/>
<path d="M0 0 C-0.33 1.65 -0.66 3.3 -1 5 C-3.31 4.67 -5.62 4.34 -8 4 C-8 3.34 -8 2.68 -8 2 C-3.61016949 -1.20338983 -3.61016949 -1.20338983 0 0 Z " fill="#6CA25E" transform="translate(68,59)"/>
<path d="M0 0 C0.66 0.33 1.32 0.66 2 1 C1.34 3.64 0.68 6.28 0 9 C-0.33 8.01 -0.66 7.02 -1 6 C-1.99 5.67 -2.98 5.34 -4 5 C-2.25 1.125 -2.25 1.125 0 0 Z " fill="#537845" transform="translate(62,81)"/>
<path d="M0 0 C0.66 0.33 1.32 0.66 2 1 C1.34 3.31 0.68 5.62 0 8 C-0.33 7.34 -0.66 6.68 -1 6 C-1.99 6 -2.98 6 -4 6 C-3.6875 4.125 -3.6875 4.125 -3 2 C-2.01 1.34 -1.02 0.68 0 0 Z " fill="#426C37" transform="translate(78,77)"/>
<path d="M0 0 C0.99 0.33 1.98 0.66 3 1 C3 1.66 3 2.32 3 3 C2.01 3.495 2.01 3.495 1 4 C1.33 4.66 1.66 5.32 2 6 C1.67 6.66 1.34 7.32 1 8 C0.01 7.67 -0.98 7.34 -2 7 C-2.33 5.35 -2.66 3.7 -3 2 C-2.01 1.34 -1.02 0.68 0 0 Z " fill="#417432" transform="translate(51,47)"/>
<path d="M0 0 C0.66 0 1.32 0 2 0 C2 0.66 2 1.32 2 2 C2.66 2 3.32 2 4 2 C4 3.32 4 4.64 4 6 C2.35 6 0.7 6 -1 6 C-0.67 4.02 -0.34 2.04 0 0 Z " fill="#467E32" transform="translate(21,85)"/>
<path d="M0 0 C1.65 0.33 3.3 0.66 5 1 C5 1.99 5 2.98 5 4 C4.34 3.67 3.68 3.34 3 3 C3.33 4.32 3.66 5.64 4 7 C2.35 5.35 0.7 3.7 -1 2 C-0.67 1.34 -0.34 0.68 0 0 Z " fill="#597A4D" transform="translate(9,83)"/>
<path d="M0 0 C0.33 0.99 0.66 1.98 1 3 C2.32 2.67 3.64 2.34 5 2 C5 2.66 5 3.32 5 4 C5.66 4.33 6.32 4.66 7 5 C3.71303767 5.79953138 2.28976808 6.09658936 -1 5 C-0.67 3.35 -0.34 1.7 0 0 Z " fill="#547C44" transform="translate(31,53)"/>
<path d="M0 0 C1.32 0 2.64 0 4 0 C3.67 1.65 3.34 3.3 3 5 C1.68 4.67 0.36 4.34 -1 4 C-0.67 2.68 -0.34 1.36 0 0 Z " fill="#4B6F3F" transform="translate(40,72)"/>
<path d="M0 0 C0.99 0 1.98 0 3 0 C2.67 1.98 2.34 3.96 2 6 C0.68 5.67 -0.64 5.34 -2 5 C-1.125 1.125 -1.125 1.125 0 0 Z " fill="#547642" transform="translate(68,80)"/>
<path d="M0 0 C1.65 0.33 3.3 0.66 5 1 C4.34 2.32 3.68 3.64 3 5 C1.68 4.34 0.36 3.68 -1 3 C-0.67 2.01 -0.34 1.02 0 0 Z " fill="#52713F" transform="translate(26,71)"/>
<path d="M0 0 C1.98 0.495 1.98 0.495 4 1 C3.67 2.32 3.34 3.64 3 5 C1.68 4.67 0.36 4.34 -1 4 C-0.67 2.68 -0.34 1.36 0 0 Z " fill="#547544" transform="translate(35,67)"/>
<path d="M0 0 C0.99 0 1.98 0 3 0 C3.33 0.99 3.66 1.98 4 3 C3.67 3.66 3.34 4.32 3 5 C1.68 5 0.36 5 -1 5 C-0.67 3.35 -0.34 1.7 0 0 Z " fill="#486740" transform="translate(30,63)"/>
<path d="M0 0 C-0.33 1.65 -0.66 3.3 -1 5 C-1.33 4.34 -1.66 3.68 -2 3 C-4.31 3.33 -6.62 3.66 -9 4 C-3 0 -3 0 0 0 Z " fill="#4D6940" transform="translate(82,50)"/>
<path d="M0 0 C1.9375 0.3125 1.9375 0.3125 4 1 C4.33 1.99 4.66 2.98 5 4 C3.35 4 1.7 4 0 4 C0 2.68 0 1.36 0 0 Z " fill="#5A7D4D" transform="translate(7,89)"/>
<path d="M0 0 C0.99 0 1.98 0 3 0 C2.47731534 2.76276177 1.89130413 5.3260876 1 8 C0.34 8 -0.32 8 -1 8 C-0.67 5.36 -0.34 2.72 0 0 Z " fill="#517A46" transform="translate(82,82)"/>
<path d="M0 0 C1.98 0.495 1.98 0.495 4 1 C3.67 2.32 3.34 3.64 3 5 C1.68 4.34 0.36 3.68 -1 3 C-0.67 2.01 -0.34 1.02 0 0 Z " fill="#527148" transform="translate(33,76)"/>
<path d="M0 0 C2.475 0.495 2.475 0.495 5 1 C4.34 2.32 3.68 3.64 3 5 C2.01 4.67 1.02 4.34 0 4 C0 2.68 0 1.36 0 0 Z " fill="#4D6E40" transform="translate(43,65)"/>
<path d="M0 0 C1.98 0 3.96 0 6 0 C4.71389765 2.5722047 3.66606019 3.00974907 1 4 C-1.25 3.625 -1.25 3.625 -3 3 C-2.01 2.67 -1.02 2.34 0 2 C0 1.34 0 0.68 0 0 Z " fill="#4F8843" transform="translate(54,48)"/>
<path d="M0 0 C0.99 0.33 1.98 0.66 3 1 C3 2.32 3 3.64 3 5 C1.35 5 -0.3 5 -2 5 C-1.34 3.35 -0.68 1.7 0 0 Z " fill="#447631" transform="translate(63,86)"/>
<path d="M0 0 C4 1 4 1 4 1 Z " fill="#616161" transform="translate(51,0)"/>
</svg>
