<?xml version="1.0" encoding="UTF-8"?>
<svg version="1.1" xmlns="http://www.w3.org/2000/svg" width="100" height="100">
<path d="M0 0 C5.45454545 0.45454545 5.45454545 0.45454545 8 3 C8 3.99 8 4.98 8 6 C14.27 6.33 20.54 6.66 27 7 C28.97733355 10.95466709 29.20595062 11.89609266 28.9140625 16.02734375 C28.87152344 16.98447266 28.82898438 17.94160156 28.78515625 18.92773438 C28.67851913 20.93173193 28.54834861 22.93461762 28.39453125 24.93554688 C28.28983811 27.81848575 28.27939149 30.20319689 29 33 C30.88728617 34.8749772 32.62313229 35.90725563 35.02514648 37.03271484 C38.4662077 38.71814994 40.32696268 41.65392537 42 45 C42.5238576 50.25575165 42.66505372 54.64526095 40.3125 59.4375 C35.61641885 64.6412656 32.53300864 66.6755084 25.49609375 67.09375 C20.09415329 66.89086022 16.93500273 64.93500273 13.1875 61.1875 C9.71731029 56.13093786 8.36464553 52.20997603 9.40625 46.01953125 C10.54108582 42.15959627 12.27203321 40.01817602 15 37 C17.64 35.68 20.28 34.36 23 33 C23 26.4 23 19.8 23 13 C21.35 13 19.7 13 18 13 C17.01 14.485 17.01 14.485 16 16 C13.31030273 16.35644531 13.31030273 16.35644531 9.93359375 16.328125 C8.72638672 16.32296875 7.51917969 16.3178125 6.27539062 16.3125 C5.00888672 16.291875 3.74238281 16.27125 2.4375 16.25 C0.53194336 16.24226563 0.53194336 16.24226563 -1.41210938 16.234375 C-10.84630222 16.15369778 -10.84630222 16.15369778 -12 15 C-12.14115161 12.32941149 -12.04247107 9.67567762 -12 7 C-7.545 6.505 -7.545 6.505 -3 6 C-2.67 4.68 -2.34 3.36 -2 2 C-1.34 1.34 -0.68 0.68 0 0 Z M30.0546875 44.75 C29.33539063 45.4925 28.61609375 46.235 27.875 47 C27.15054688 47.7425 26.42609375 48.485 25.6796875 49.25 C25.12539062 49.8275 24.57109375 50.405 24 51 C22.02 50.34 20.04 49.68 18 49 C17.69302969 52.08039699 17.69302969 52.08039699 19.75 54.25 C21.76866017 56.21609869 21.76866017 56.21609869 23.84375 55.89453125 C26.82780521 54.65658081 28.52427648 52.7614172 30.75 50.4375 C31.54921875 49.61121094 32.3484375 48.78492188 33.171875 47.93359375 C33.77515625 47.29550781 34.3784375 46.65742187 35 46 C34.67 45.01 34.34 44.02 34 43 C31.81170957 42.77706675 31.81170957 42.77706675 30.0546875 44.75 Z " fill="#417434" transform="translate(45,30)"/>
<path d="M0 0 C0 1.98 0 3.96 0 6 C-1.32 6 -2.64 6 -4 6 C-4 20.85 -4 35.7 -4 51 C4.58 51 13.16 51 22 51 C22.66 52.98 23.32 54.96 24 57 C21.38067525 59.61932475 14.35864376 58.31864046 10.80908203 58.35009766 C9.44334827 58.36661471 8.07769945 58.39384955 6.71240234 58.43212891 C4.74109168 58.48711332 2.76887231 58.50567176 0.796875 58.5234375 C-0.97671387 58.5531665 -0.97671387 58.5531665 -2.78613281 58.58349609 C-6 58 -6 58 -8.88549805 56.15893555 C-12.00258515 51.5021996 -11.69932241 47.42244363 -11.62890625 41.93359375 C-11.63252419 40.3270266 -11.63252419 40.3270266 -11.63621521 38.68800354 C-11.63523722 36.42778819 -11.6218553 34.16754875 -11.59692383 31.9074707 C-11.56258384 28.44595139 -11.57627671 24.98698044 -11.59570312 21.52539062 C-11.58880557 19.32811412 -11.57913401 17.13084421 -11.56640625 14.93359375 C-11.57136612 13.89810898 -11.57632599 12.86262421 -11.58143616 11.79576111 C-11.46474803 4.6883966 -11.46474803 4.6883966 -9.19897461 1.33227539 C-6.08910198 -0.5518786 -3.55682037 -0.27360157 0 0 Z " fill="#3D792F" transform="translate(32,37)"/>
<path d="M0 0 C1.32 0 2.64 0 4 0 C4.08226668 3.04386724 3.97608217 5.07175348 3 8 C3.30421875 9.051875 3.6084375 10.10375 3.921875 11.1875 C5.06093906 15.21549466 5.29762529 18.85660007 5.25 23 C5.25773437 23.67289063 5.26546875 24.34578125 5.2734375 25.0390625 C5.25549416 29.68638651 4.35143551 33.57902493 3 38 C2.62362837 40.48287809 2.62362837 40.48287809 2.625 42.75 C2.59664062 43.48734375 2.56828125 44.2246875 2.5390625 44.984375 C2.83682309 47.13572832 2.83682309 47.13572832 4.66259766 48.59399414 C7.55998256 50.33684349 9.49145621 50.42580245 12.859375 50.51171875 C13.97441406 50.54716797 15.08945312 50.58261719 16.23828125 50.61914062 C17.39714844 50.64169922 18.55601563 50.66425781 19.75 50.6875 C20.92433594 50.72166016 22.09867188 50.75582031 23.30859375 50.79101562 C26.20563389 50.87345173 29.10237298 50.94261811 32 51 C32.495 50.01 32.495 50.01 33 49 C33.33 49.99 33.66 50.98 34 52 C31.38067525 54.61932475 24.35864376 53.31864046 20.80908203 53.35009766 C19.44334827 53.36661471 18.07769945 53.39384955 16.71240234 53.43212891 C14.74109168 53.48711332 12.76887231 53.50567176 10.796875 53.5234375 C9.02328613 53.5531665 9.02328613 53.5531665 7.21386719 53.58349609 C4 53 4 53 1.10791016 51.10644531 C-1.90862645 46.66094939 -1.64896437 43.02889218 -1.5234375 37.7734375 C-1.51873444 36.78880524 -1.51403137 35.80417297 -1.50918579 34.78970337 C-1.48787259 31.65075161 -1.43126791 28.51349901 -1.375 25.375 C-1.35848983 23.25522424 -1.34414255 21.13543046 -1.33203125 19.015625 C-1.2980953 15.14089285 -1.26322389 11.26634556 -1.19287109 7.39208984 C-1.18001068 6.61441254 -1.16715027 5.83673523 -1.15390015 5.03549194 C-1 3 -1 3 0 0 Z " fill="#477B3B" transform="translate(22,42)"/>
<path d="M0 0 C0.763125 0.639375 1.52625 1.27875 2.3125 1.9375 C4.88246713 4.14232781 4.88246713 4.14232781 8 5 C8 5.66 8 6.32 8 7 C11.45411499 6.29920746 11.45411499 6.29920746 15 5 C16.13350534 2.98330173 16.13350534 2.98330173 17 1 C20.60112861 -0.2652614 23.34745949 0.0607753 27 1 C27.3125 3.1875 27.3125 3.1875 27 6 C24.6875 8.8125 24.6875 8.8125 22 11 C19 11 19 11 17.3125 9.5 C16.879375 9.005 16.44625 8.51 16 8 C15.67 9.65 15.34 11.3 15 13 C13.56666979 13.39063507 12.12807321 13.76198474 10.6875 14.125 C9.88699219 14.33382812 9.08648437 14.54265625 8.26171875 14.7578125 C6 15 6 15 3 13 C3.33 12.01 3.66 11.02 4 10 C3.34 9.67 2.68 9.34 2 9 C1.375 5.9375 1.375 5.9375 1 3 C0.34 3 -0.32 3 -1 3 C-0.67 2.01 -0.34 1.02 0 0 Z " fill="#3F7A31" transform="translate(58,81)"/>
<path d="M0 0 C5.45454545 0.45454545 5.45454545 0.45454545 8 3 C8 3.99 8 4.98 8 6 C9.98 6 11.96 6 14 6 C14 6.66 14 7.32 14 8 C9.32538149 8.32613618 6.83325617 7.70582788 3 5 C2.319375 5.474375 1.63875 5.94875 0.9375 6.4375 C-2.41841956 8.2225636 -5.24161481 8.63153086 -9 9 C-8.34 9.66 -7.68 10.32 -7 11 C-7 11.99 -7 12.98 -7 14 C1.02408469 13.50311992 9.01795622 12.98025099 17 12 C16.67 13.32 16.34 14.64 16 16 C11.52084672 16.02886338 7.04171709 16.04675187 2.5625 16.0625 C1.28310547 16.07087891 0.00371094 16.07925781 -1.31445312 16.08789062 C-3.13686523 16.09272461 -3.13686523 16.09272461 -4.99609375 16.09765625 C-6.12200928 16.10289307 -7.2479248 16.10812988 -8.40795898 16.11352539 C-11 16 -11 16 -12 15 C-12.14115161 12.32941149 -12.04247107 9.67567762 -12 7 C-7.545 6.505 -7.545 6.505 -3 6 C-2.67 4.68 -2.34 3.36 -2 2 C-1.34 1.34 -0.68 0.68 0 0 Z " fill="#437737" transform="translate(45,30)"/>
<path d="M0 0 C4.875 2.75 4.875 2.75 6 5 C5.030625 5.268125 4.06125 5.53625 3.0625 5.8125 C2.051875 6.204375 1.04125 6.59625 0 7 C-0.33 7.99 -0.66 8.98 -1 10 C-2.32796291 10.35412344 -3.66216607 10.68521554 -5 11 C-5.4125 11.53625 -5.825 12.0725 -6.25 12.625 C-8 14 -8 14 -11.9375 13.6875 C-12.94103516 13.50767578 -12.94103516 13.50767578 -13.96484375 13.32421875 C-16.31489459 12.89511658 -16.31489459 12.89511658 -20 13 C-18.75871539 9.56259645 -17.60612495 6.60612495 -15 4 C-11.8125 3.25 -11.8125 3.25 -9 3 C-9 3.99 -9 4.98 -9 6 C-8.2575 5.525625 -7.515 5.05125 -6.75 4.5625 C-4.38949985 3.22130673 -2.63351523 2.487688 0 2 C0 1.34 0 0.68 0 0 Z " fill="#3E782F" transform="translate(77,65)"/>
<path d="M0 0 C0.33 0 0.66 0 1 0 C1 7.26 1 14.52 1 22 C-1 23 -1 23 -5 22 C-5 15.4 -5 8.8 -5 2 C-6.65 2 -8.3 2 -10 2 C-10 1.67 -10 1.34 -10 1 C-9.36191406 1.01160156 -8.72382812 1.02320313 -8.06640625 1.03515625 C-7.24011719 1.04417969 -6.41382812 1.05320313 -5.5625 1.0625 C-4.32693359 1.07990234 -4.32693359 1.07990234 -3.06640625 1.09765625 C-1.00836062 1.23267348 -1.00836062 1.23267348 0 0 Z " fill="#36612E" transform="translate(73,41)"/>
<path d="M0 0 C0 1.98 0 3.96 0 6 C-1.32 6 -2.64 6 -4 6 C-4 18.21 -4 30.42 -4 43 C-4.33 41.68 -4.66 40.36 -5 39 C-5.66 38.67 -6.32 38.34 -7 38 C-6.75830078 36.72962891 -6.75830078 36.72962891 -6.51171875 35.43359375 C-5.4856644 28.54884741 -4.87699147 20.64169508 -7.0625 13.9375 C-8.07065455 10.77861573 -7.9495108 9.13338565 -7 6 C-7.99 5.67 -8.98 5.34 -10 5 C-10.33 5.99 -10.66 6.98 -11 8 C-10.6875 5.125 -10.6875 5.125 -10 2 C-6.3558226 -0.4294516 -4.28758728 -0.16179575 0 0 Z " fill="#37672C" transform="translate(32,37)"/>
<path d="M0 0 C5.61 0 11.22 0 17 0 C17 0.99 17 1.98 17 3 C11.63904667 4.12862175 6.44693314 4.09688221 1 4 C0.67 2.68 0.34 1.36 0 0 Z " fill="#3F5F32" transform="translate(45,54)"/>
<path d="M0 0 C0.66 0.99 1.32 1.98 2 3 C1 4 1 4 -1.77563477 4.11352539 C-2.98533936 4.10828857 -4.19504395 4.10305176 -5.44140625 4.09765625 C-6.74658203 4.09443359 -8.05175781 4.09121094 -9.39648438 4.08789062 C-10.7851569 4.07953401 -12.17382877 4.07106905 -13.5625 4.0625 C-14.95507656 4.05748666 -16.34765481 4.05292347 -17.74023438 4.04882812 C-21.1601987 4.03699434 -24.58007844 4.0205088 -28 4 C-28 3.34 -28 2.68 -28 2 C-18.76 2 -9.52 2 0 2 C0 1.34 0 0.68 0 0 Z " fill="#5C8552" transform="translate(54,91)"/>
<path d="M0 0 C0.33 0 0.66 0 1 0 C1 2.64 1 5.28 1 8 C9.58 8 18.16 8 27 8 C22.66936068 10.88709288 18.6043595 10.5381725 13.5 10.75 C12.53707031 10.80542969 11.57414062 10.86085938 10.58203125 10.91796875 C9.65777344 10.96050781 8.73351562 11.00304687 7.78125 11.046875 C6.5137793 11.10633301 6.5137793 11.10633301 5.22070312 11.16699219 C3 11 3 11 0 9 C-0.29296875 6.8359375 -0.29296875 6.8359375 -0.1875 4.375 C-0.16042969 3.55773437 -0.13335938 2.74046875 -0.10546875 1.8984375 C-0.05326172 0.95871094 -0.05326172 0.95871094 0 0 Z " fill="#416939" transform="translate(27,80)"/>
<path d="M0 0 C-0.33 1.32 -0.66 2.64 -1 4 C-8.26 4 -15.52 4 -23 4 C-23 3.01 -23 2.02 -23 1 C-20.47932687 0.83054298 -17.95850616 0.66436516 -15.4375 0.5 C-14.73302734 0.45230469 -14.02855469 0.40460938 -13.30273438 0.35546875 C-8.85739865 0.0686729 -4.45455341 -0.04682842 0 0 Z " fill="#457D39" transform="translate(55,89)"/>
<path d="M0 0 C0.66 0 1.32 0 2 0 C1.654156 3.11259604 1.12620033 4.82872813 -0.75 7.375 C-3 9 -3 9 -5.625 9 C-8 8 -8 8 -9.3125 5.9375 C-9.539375 5.298125 -9.76625 4.65875 -10 4 C-8.68 4 -7.36 4 -6 4 C-3.406659 2.93215371 -2.002501 2.002501 0 0 Z " fill="#395833" transform="translate(40,51)"/>
<path d="M0 0 C0.66 0 1.32 0 2 0 C1.69381595 3.67420866 1.24228216 4.78135513 -1.5625 7.3125 C-2.366875 7.869375 -3.17125 8.42625 -4 9 C-6.5 7.6875 -6.5 7.6875 -9 6 C-9 5.01 -9 4.02 -9 3 C-8.2575 3.2475 -7.515 3.495 -6.75 3.75 C-5.38875 3.87375 -5.38875 3.87375 -4 4 C-1.7914234 2.12491838 -1.7914234 2.12491838 0 0 Z " fill="#3C6236" transform="translate(40,63)"/>
<path d="M0 0 C0.66 0 1.32 0 2 0 C1.67226629 3.03153686 1.35865103 4.61573103 -0.75 6.875 C-3 8 -3 8 -5.625 7.9375 C-8 7 -8 7 -9.3125 4.9375 C-9.539375 4.298125 -9.76625 3.65875 -10 3 C-8.68 3 -7.36 3 -6 3 C-3.03810132 2.477312 -2.18963764 2.18963764 0 0 Z " fill="#3D6036" transform="translate(40,74)"/>
<path d="M0 0 C0.66 1.32 1.32 2.64 2 4 C9.59 3.67 17.18 3.34 25 3 C25.33 2.34 25.66 1.68 26 1 C26.99 1 27.98 1 29 1 C28.67 2.32 28.34 3.64 28 5 C19.09 5 10.18 5 1 5 C0.67 3.35 0.34 1.7 0 0 Z " fill="#42603C" transform="translate(33,41)"/>
<path d="M0 0 C4.29 0 8.58 0 13 0 C13 0.99 13 1.98 13 3 C8.71 3 4.42 3 0 3 C0 2.01 0 1.02 0 0 Z " fill="#3A5C31" transform="translate(45,65)"/>
<path d="M0 0 C0.99 0.33 1.98 0.66 3 1 C3.19466332 2.79090253 3.38051213 4.58276505 3.5625 6.375 C3.66691406 7.37273438 3.77132812 8.37046875 3.87890625 9.3984375 C4 12 4 12 3 14 C2.01 14 1.02 14 0 14 C0 9.38 0 4.76 0 0 Z " fill="#447838" transform="translate(70,47)"/>
<path d="M0 0 C0 1.98 0 3.96 0 6 C-1.32 6 -2.64 6 -4 6 C-4 8.31 -4 10.62 -4 13 C-4.33 13 -4.66 13 -5 13 C-5.05399736 11.54207116 -5.09279177 10.08357288 -5.125 8.625 C-5.14820313 7.81289063 -5.17140625 7.00078125 -5.1953125 6.1640625 C-5 4 -5 4 -3 2 C-4.65 2 -6.3 2 -8 2 C-8 2.66 -8 3.32 -8 4 C-8.66 4 -9.32 4 -10 4 C-9.67 3.01 -9.34 2.02 -9 1 C-6.04335481 -0.4783226 -3.25770263 -0.06032783 0 0 Z " fill="#2E5222" transform="translate(32,37)"/>
<path d="M0 0 C5.75 0.75 5.75 0.75 8 3 C8 3.99 8 4.98 8 6 C9.98 6 11.96 6 14 6 C14 6.66 14 7.32 14 8 C11.25 8.25 11.25 8.25 8 8 C5.625 6 5.625 6 4 4 C4.33 3.67 4.66 3.34 5 3 C3.35 2.67 1.7 2.34 0 2 C0 1.34 0 0.68 0 0 Z " fill="#537949" transform="translate(45,30)"/>
<path d="M0 0 C0.99 0.33 1.98 0.66 3 1 C0.03 3.97 0.03 3.97 -3 7 C-4.98 6.34 -6.96 5.68 -9 5 C-9.66 5.66 -10.32 6.32 -11 7 C-10.67 5.35 -10.34 3.7 -10 2 C-7.03 2.33 -4.06 2.66 -1 3 C-0.67 2.01 -0.34 1.02 0 0 Z " fill="#456C41" transform="translate(72,75)"/>
<path d="M0 0 C2.64 0 5.28 0 8 0 C7.67 1.32 7.34 2.64 7 4 C5.02 4 3.04 4 1 4 C0.67 2.68 0.34 1.36 0 0 Z " fill="#3B6036" transform="translate(45,76)"/>
<path d="M0 0 C3.96 0 7.92 0 12 0 C12 0.33 12 0.66 12 1 C9.36 1.33 6.72 1.66 4 2 C6.31 2.33 8.62 2.66 11 3 C11 3.33 11 3.66 11 4 C7.7 4 4.4 4 1 4 C0.67 2.68 0.34 1.36 0 0 Z " fill="#2D4C21" transform="translate(45,54)"/>
<path d="M0 0 C0.66 0 1.32 0 2 0 C2 5.28 2 10.56 2 16 C1.34 16 0.68 16 0 16 C-0.66 14.02 -1.32 12.04 -2 10 C-1.34 9.34 -0.68 8.68 0 8 C0.24212873 6.01871492 0.24212873 6.01871492 0.125 3.875 C0.063125 1.956875 0.063125 1.956875 0 0 Z " fill="#3C7330" transform="translate(25,57)"/>
<path d="M0 0 C0.33 0.66 0.66 1.32 1 2 C-3.14285714 8.42857143 -3.14285714 8.42857143 -6 11 C-6.99 10.67 -7.98 10.34 -9 10 C-8.34 10 -7.68 10 -7 10 C-6.71125 9.38125 -6.4225 8.7625 -6.125 8.125 C-5 6 -5 6 -3 4 C-2.67 3.34 -2.34 2.68 -2 2 C-1.34 1.34 -0.68 0.68 0 0 Z " fill="#4E7246" transform="translate(86,84)"/>
<path d="M0 0 C-2 2 -2 2 -5.125 2.125 C-6.548125 2.063125 -6.548125 2.063125 -8 2 C-8.33 1.34 -8.66 0.68 -9 0 C-5.67465243 -1.10844919 -3.37817425 -0.84454356 0 0 Z " fill="#4F7345" transform="translate(76,95)"/>
<path d="M0 0 C1.65 1.65 3.3 3.3 5 5 C4.34 5.66 3.68 6.32 3 7 C2.34 6.67 1.68 6.34 1 6 C1 5.01 1 4.02 1 3 C0.34 3 -0.32 3 -1 3 C-0.67 2.01 -0.34 1.02 0 0 Z " fill="#3A7C2B" transform="translate(58,81)"/>
<path d="M0 0 C1.11375 0.185625 2.2275 0.37125 3.375 0.5625 C6.82568861 1.31680657 6.82568861 1.31680657 9 0 C8.67 0.99 8.34 1.98 8 3 C5.6875 3.625 5.6875 3.625 3 4 C2.01 3.34 1.02 2.68 0 2 C0 1.34 0 0.68 0 0 Z " fill="#4A6C44" transform="translate(31,78)"/>
<path d="M0 0 C-0.33 1.32 -0.66 2.64 -1 4 C-4.75 5.125 -4.75 5.125 -7 4 C-2.25 0 -2.25 0 0 0 Z " fill="#406933" transform="translate(65,65)"/>
<path d="M0 0 C1 3 1 3 0.0625 5.1875 C-0.4634375 6.0846875 -0.4634375 6.0846875 -1 7 C-3.97 6.505 -3.97 6.505 -7 6 C-7 5.67 -7 5.34 -7 5 C-5.35 5 -3.7 5 -2 5 C-1.855625 4.360625 -1.71125 3.72125 -1.5625 3.0625 C-1 1 -1 1 0 0 Z " fill="#466738" transform="translate(44,31)"/>
<path d="M0 0 C2.64 0 5.28 0 8 0 C8 0.33 8 0.66 8 1 C7.21625 1.0825 6.4325 1.165 5.625 1.25 C2.85250896 1.72806339 2.85250896 1.72806339 1.6875 4.0625 C1.460625 4.701875 1.23375 5.34125 1 6 C0.67 4.02 0.34 2.04 0 0 Z " fill="#527844" transform="translate(33,37)"/>
</svg>
