<?xml version="1.0" encoding="UTF-8"?>
<svg version="1.1" xmlns="http://www.w3.org/2000/svg" width="100" height="100">
<path d="M0 0 C3.30616302 2.46203629 4.76204427 3.88160805 5.625 7.9375 C4.75867782 12.18247866 3.18243821 14.0884076 0 17 C-3.8125 17.875 -3.8125 17.875 -7 18 C-6.505 19.98 -6.505 19.98 -6 22 C-7.216875 21.95875 -8.43375 21.9175 -9.6875 21.875 C-14.63245258 21.90111771 -17.61967011 22.65801261 -21.25 26.1875 C-22.1575 27.115625 -23.065 28.04375 -24 29 C-25.03643527 30.03908388 -26.07424103 31.07680222 -27.11328125 32.11328125 C-27.63857422 32.63857422 -28.16386719 33.16386719 -28.70507812 33.70507812 C-31.13671875 36.13671875 -33.56835938 38.56835938 -36 41 C-35.21625 41.763125 -34.4325 42.52625 -33.625 43.3125 C-29.03344482 48.01337793 -29.03344482 48.01337793 -28.875 52.6875 C-28.91625 53.780625 -28.9575 54.87375 -29 56 C-28.01 56.33 -27.02 56.66 -26 57 C-26 55.35 -26 53.7 -26 52 C-21.25 52.75 -21.25 52.75 -19 55 C-18.1028125 53.7625 -18.1028125 53.7625 -17.1875 52.5 C-16.465625 51.675 -15.74375 50.85 -15 50 C-14.01 50 -13.02 50 -12 50 C-12 51.65 -12 53.3 -12 55 C-9.36 52.69 -6.72 50.38 -4 48 C-3.34 48.33 -2.68 48.66 -2 49 C-2.4640625 50.1446875 -2.4640625 50.1446875 -2.9375 51.3125 C-3.67893593 53.18789677 -4.36228217 55.08684652 -5 57 C-4.18595703 56.45859375 -4.18595703 56.45859375 -3.35546875 55.90625 C-2.64003906 55.4421875 -1.92460938 54.978125 -1.1875 54.5 C-0.47980469 54.0359375 0.22789063 53.571875 0.95703125 53.09375 C3 52 3 52 6 52 C5.67 53.32 5.34 54.64 5 56 C6.65 56.66 8.3 57.32 10 58 C9.67 59.32 9.34 60.64 9 62 C-20.7 62 -50.4 62 -81 62 C-81.33 60.68 -81.66 59.36 -82 58 C-80.68 57.34 -79.36 56.68 -78 56 C-78.33 54.35 -78.66 52.7 -79 51 C-77.0373772 48.95204577 -75.5722693 48.05023362 -72.73046875 47.80078125 C-70.48045617 47.81141123 -68.24614438 47.87041475 -66 48 C-66.33 48.99 -66.66 49.98 -67 51 C-69.5625 52.1875 -69.5625 52.1875 -72 53 C-70.35 53.66 -68.7 54.32 -67 55 C-66.71125 54.360625 -66.4225 53.72125 -66.125 53.0625 C-65 51 -65 51 -63 50 C-63.061875 49.071875 -63.12375 48.14375 -63.1875 47.1875 C-63 44 -63 44 -61.9375 42.25 C-58.24934342 39.87054414 -54.54667149 38.79377714 -50.1875 39.375 C-49.465625 39.58125 -48.74375 39.7875 -48 40 C-45.13027087 40 -44.35394564 38.6705995 -42.296875 36.7109375 C-41.56339844 36.01613281 -40.82992187 35.32132813 -40.07421875 34.60546875 C-38.92373047 33.50138672 -38.92373047 33.50138672 -37.75 32.375 C-36.99847656 31.66214844 -36.24695312 30.94929688 -35.47265625 30.21484375 C-33.30518538 28.15328769 -31.15104639 26.07867139 -29 24 C-28.38745361 23.41734375 -27.77490723 22.8346875 -27.14379883 22.234375 C-24.01228976 19.20589757 -22.36876822 17.42521861 -22 13 C-21.67 12.34 -21.34 11.68 -21 11 C-20.34 11 -19.68 11 -19 11 C-18.67 10.01 -18.34 9.02 -18 8 C-17.34 8 -16.68 8 -16 8 C-15.773125 7.4225 -15.54625 6.845 -15.3125 6.25 C-11.58132285 -0.14630368 -6.86601459 -1.6292238 0 0 Z M-3 7 C-2.34 7.66 -1.68 8.32 -1 9 C-1 8.34 -1 7.68 -1 7 C-1.66 7 -2.32 7 -3 7 Z M-58 51 C-58 51.33 -58 51.66 -58 52 C-55.69 52 -53.38 52 -51 52 C-51 51.67 -51 51.34 -51 51 C-53.31 51 -55.62 51 -58 51 Z M-39 54 C-39.99 54.99 -40.98 55.98 -42 57 C-40.02 57 -38.04 57 -36 57 C-36.99 56.01 -37.98 55.02 -39 54 Z " fill="#4C7E3C" transform="translate(85,31)"/>
<path d="M0 0 C0 0.99 0 1.98 0 3 C0.66 3 1.32 3 2 3 C3.7143618 4.95927063 5.38405168 6.95880212 7 9 C6.34 9 5.68 9 5 9 C5.495 11.97 5.495 11.97 6 15 C7.98 15.33 9.96 15.66 12 16 C12 16.66 12 17.32 12 18 C14.64 18 17.28 18 20 18 C20 18.33 20 18.66 20 19 C8.78 19 -2.44 19 -14 19 C-13.67 18.01 -13.34 17.02 -13 16 C-13.50015625 16.49113281 -14.0003125 16.98226562 -14.515625 17.48828125 C-17.893107 19.54344718 -20.92763623 19.32839999 -24.75 19.1875 C-25.44738281 19.17396484 -26.14476562 19.16042969 -26.86328125 19.14648438 C-28.57585541 19.1112945 -30.28802941 19.05749155 -32 19 C-32 18.67 -32 18.34 -32 18 C-27.71 18 -23.42 18 -19 18 C-19 17.34 -19 16.68 -19 16 C-18.34 15.67 -17.68 15.34 -17 15 C-16.34444881 12.47266765 -16.34444881 12.47266765 -16 10 C-15.01 9.67 -14.02 9.34 -13 9 C-12.28293018 7.01751285 -11.61709587 5.01584651 -11 3 C-7.72430636 -0.27569364 -4.48909309 -0.12469703 0 0 Z M-9 10 C-9 10.33 -9 10.66 -9 11 C-6.69 11 -4.38 11 -2 11 C-2 10.67 -2 10.34 -2 10 C-4.31 10 -6.62 10 -9 10 Z " fill="#477E38" transform="translate(36,72)"/>
<path d="M0 0 C-0.33 0.99 -0.66 1.98 -1 3 C-3.5625 4.1875 -3.5625 4.1875 -6 5 C-4.02 5.99 -2.04 6.98 0 8 C-0.99 8.495 -0.99 8.495 -2 9 C-1.67 9.33 -1.34 9.66 -1 10 C0.67542976 9.71395102 2.34385343 9.38218767 4 9 C4 9.66 4 10.32 4 11 C24.79 11.33 45.58 11.66 67 12 C67.33 10.68 67.66 9.36 68 8 C67.01 7.505 67.01 7.505 66 7 C66 7.66 66 8.32 66 9 C65.01 9.33 64.02 9.66 63 10 C63.99730136 7.5067466 64.65074531 6.22532561 66.9375 4.75 C69 4 69 4 72 4 C71.67 5.32 71.34 6.64 71 8 C72.65 8.66 74.3 9.32 76 10 C75.67 11.32 75.34 12.64 75 14 C45.3 14 15.6 14 -15 14 C-15.33 12.68 -15.66 11.36 -16 10 C-14.68 9.34 -13.36 8.68 -12 8 C-12.33 6.35 -12.66 4.7 -13 3 C-9.21656826 -0.94792877 -5.07874402 -0.29300446 0 0 Z " fill="#5A814E" transform="translate(19,79)"/>
<path d="M0 0 C3.30616302 2.46203629 4.76204427 3.88160805 5.625 7.9375 C4.75867782 12.18247866 3.18243821 14.0884076 0 17 C-3.8125 17.875 -3.8125 17.875 -7 18 C-6.67 19.32 -6.34 20.64 -6 22 C-9.3 22 -12.6 22 -16 22 C-15.01 20.68 -14.02 19.36 -13 18 C-13 16.68 -13 15.36 -13 14 C-13 13.34 -13 12.68 -13 12 C-13.61875 11.87625 -14.2375 11.7525 -14.875 11.625 C-17 11 -17 11 -19 9 C-18.01 8.67 -17.02 8.34 -16 8 C-15.71125 7.401875 -15.4225 6.80375 -15.125 6.1875 C-11.77529891 -0.32580767 -6.61890464 -1.57058754 0 0 Z M-3 7 C-2.34 7.66 -1.68 8.32 -1 9 C-1 8.34 -1 7.68 -1 7 C-1.66 7 -2.32 7 -3 7 Z " fill="#427932" transform="translate(85,31)"/>
<path d="M0 0 C3.30616302 2.46203629 4.76204427 3.88160805 5.625 7.9375 C4.75697586 12.19081827 3.22341676 14.11949992 0 17 C-3.8125 17.375 -3.8125 17.375 -7 17 C-6.67 16.34 -6.34 15.68 -6 15 C-5.401875 14.87625 -4.80375 14.7525 -4.1875 14.625 C-1.29805668 13.79944477 0.01607936 12.19648357 2 10 C1.34 9.67 0.68 9.34 0 9 C0.33 8.67 0.66 8.34 1 8 C-2.50776784 6.39644899 -5.14354879 5.77963136 -9 6 C-9 5.34 -9 4.68 -9 4 C-10.32 4.33 -11.64 4.66 -13 5 C-13 5.66 -13 6.32 -13 7 C-13.99 6.67 -14.98 6.34 -16 6 C-14.87720538 5.01830524 -13.75168527 4.03972702 -12.625 3.0625 C-11.68527344 2.24458984 -11.68527344 2.24458984 -10.7265625 1.41015625 C-7.02161117 -1.61583341 -4.59003829 -1.08916163 0 0 Z " fill="#4B753D" transform="translate(85,31)"/>
<path d="M0 0 C0 0.99 0 1.98 0 3 C0.66 3 1.32 3 2 3 C2.66 4.32 3.32 5.64 4 7 C3.01 7.33 2.02 7.66 1 8 C1.33 9.32 1.66 10.64 2 12 C0.68 12 -0.64 12 -2 12 C-2 11.34 -2 10.68 -2 10 C-5.63 10.33 -9.26 10.66 -13 11 C-12.39252336 4.56074766 -12.39252336 4.56074766 -10.6875 2.125 C-7.27603896 -0.14930736 -4.01290767 -0.11146966 0 0 Z " fill="#437F33" transform="translate(36,72)"/>
<path d="M0 0 C2.33512959 0.32050798 4.66822025 0.65596692 7 1 C7.928125 1.103125 8.85625 1.20625 9.8125 1.3125 C12 2 12 2 13.3125 3.6875 C14.15900919 6.53484909 14.13428922 9.04563706 14 12 C13.01 12 12.02 12 11 12 C10.34 12.66 9.68 13.32 9 14 C7.62437146 12.71034824 6.29233607 11.37310707 5 10 C5 9.34 5 8.68 5 8 C6.98 8 8.96 8 11 8 C11 7.34 11 6.68 11 6 C9.02 6.33 7.04 6.66 5 7 C4.67 6.01 4.34 5.02 4 4 C1.99983534 2.79117904 1.99983534 2.79117904 0 2 C0 1.34 0 0.68 0 0 Z " fill="#447734" transform="translate(40,75)"/>
<path d="M0 0 C1.21236328 0.02707031 1.21236328 0.02707031 2.44921875 0.0546875 C3.37154297 0.08949219 3.37154297 0.08949219 4.3125 0.125 C3.9825 1.115 3.6525 2.105 3.3125 3.125 C0.75 4.3125 0.75 4.3125 -1.6875 5.125 C-1.6875 6.775 -1.6875 8.425 -1.6875 10.125 C-4.0625 10.3125 -4.0625 10.3125 -6.6875 10.125 C-8.6875 7.125 -8.6875 7.125 -8.5 4.5625 C-7.01950215 0.12100645 -4.18677534 -0.12135581 0 0 Z " fill="#4C7E3D" transform="translate(14.6875,78.875)"/>
<path d="M0 0 C0 0.66 0 1.32 0 2 C0.66 2 1.32 2 2 2 C1.67 3.65 1.34 5.3 1 7 C-5.4 8.35384615 -5.4 8.35384615 -8.4375 6.5625 C-8.953125 6.046875 -9.46875 5.53125 -10 5 C-7 3 -7 3 -4 3 C-4 2.34 -4 1.68 -4 1 C-2 0 -2 0 0 0 Z " fill="#427633" transform="translate(76,35)"/>
<path d="M0 0 C1.18851563 0.44601563 2.37703125 0.89203125 3.6015625 1.3515625 C3.6015625 2.0115625 3.6015625 2.6715625 3.6015625 3.3515625 C1.9515625 4.0115625 0.3015625 4.6715625 -1.3984375 5.3515625 C-1.3984375 4.6915625 -1.3984375 4.0315625 -1.3984375 3.3515625 C-4.93015599 3.94149321 -6.72849245 5.25282123 -9.3359375 7.6640625 C-12.28077903 10.33918957 -15.2612362 12.90062398 -18.3984375 15.3515625 C-16.72047821 11.20720521 -13.8048017 8.1734106 -10.7734375 4.9765625 C-10.02900391 4.11998047 -10.02900391 4.11998047 -9.26953125 3.24609375 C-6.15155166 -0.01469407 -4.52170056 -1.1259413 0 0 Z " fill="#527845" transform="translate(65.3984375,50.6484375)"/>
<path d="M0 0 C0 0.99 0 1.98 0 3 C-0.33 2.67 -0.66 2.34 -1 2 C-3.07292724 1.94836132 -3.07292724 1.94836132 -5.4375 2.1875 C-6.64212891 2.27064453 -6.64212891 2.27064453 -7.87109375 2.35546875 C-10.15211486 2.79767744 -10.15211486 2.79767744 -11.22265625 4.86328125 C-11.84208943 6.5659443 -12.42704634 8.28113903 -13 10 C-13.66 10 -14.32 10 -15 10 C-15.36042403 4.59363958 -15.36042403 4.59363958 -13.9375 2.25 C-9.47170487 -0.63115815 -5.08812378 -1.54185569 0 0 Z " fill="#567648" transform="translate(37,71)"/>
<path d="M0 0 C2.4375 0.375 2.4375 0.375 5 1 C5.33 1.66 5.66 2.32 6 3 C5.34 3 4.68 3 4 3 C4 3.66 4 4.32 4 5 C-1.94 5.495 -1.94 5.495 -8 6 C-7.67 6.66 -7.34 7.32 -7 8 C-7.99 7.67 -8.98 7.34 -10 7 C-10 6.01 -10 5.02 -10 4 C-3.25 3 -3.25 3 -1 3 C-0.67 2.01 -0.34 1.02 0 0 Z " fill="#648455" transform="translate(13,85)"/>
<path d="M0 0 C3.96 0.33 7.92 0.66 12 1 C11.01 1.495 11.01 1.495 10 2 C10 3.98 10 5.96 10 8 C8.35 8 6.7 8 5 8 C5 6.35 5 4.7 5 3 C3.35 2.67 1.7 2.34 0 2 C-0.33 2.66 -0.66 3.32 -1 4 C-0.67 2.68 -0.34 1.36 0 0 Z " fill="#518145" transform="translate(20,82)"/>
<path d="M0 0 C0.66 0.99 1.32 1.98 2 3 C-3.75 4.125 -3.75 4.125 -6 3 C-5.67 3.99 -5.34 4.98 -5 6 C-6.65 6.66 -8.3 7.32 -10 8 C-10 5.69 -10 3.38 -10 1 C-7.98177083 1.03255208 -5.96354167 1.06510417 -3.9453125 1.09765625 C-1.91814596 1.12649242 -1.91814596 1.12649242 0 0 Z " fill="#557C40" transform="translate(51,80)"/>
<path d="M0 0 C1.32 0 2.64 0 4 0 C2.55873214 3.36295835 0.79407345 5.62927102 -2 8 C-2.99 8 -3.98 8 -5 8 C-5.33 6.35 -5.66 4.7 -6 3 C-5.38125 2.87625 -4.7625 2.7525 -4.125 2.625 C-1.80879168 2.12802644 -1.80879168 2.12802644 0 0 Z " fill="#427B31" transform="translate(51,62)"/>
<path d="M0 0 C0.33 0 0.66 0 1 0 C1 1.98 1 3.96 1 6 C1.66 6.33 2.32 6.66 3 7 C3 7.66 3 8.32 3 9 C-0.3 9 -3.6 9 -7 9 C-6.34 7.68 -5.68 6.36 -5 5 C-3.68 5 -2.36 5 -1 5 C-0.67 3.35 -0.34 1.7 0 0 Z " fill="#5D7F52" transform="translate(55,81)"/>
<path d="M0 0 C0.66 0.33 1.32 0.66 2 1 C0.92598892 3.91517292 0.22189824 5.77810176 -2 8 C-2.33 7.01 -2.66 6.02 -3 5 C-4.98 5.99 -4.98 5.99 -7 7 C-2.25 1.125 -2.25 1.125 0 0 Z " fill="#57784B" transform="translate(81,79)"/>
<path d="M0 0 C0.66 0.33 1.32 0.66 2 1 C1.67 2.32 1.34 3.64 1 5 C2.32 5.66 3.64 6.32 5 7 C4.67 7.66 4.34 8.32 4 9 C1.13275314 8.42655063 0.1385485 8.1385485 -2 6 C-1.44444444 1.44444444 -1.44444444 1.44444444 0 0 Z " fill="#5A7E4A" transform="translate(8,80)"/>
<path d="M0 0 C4.62 0 9.24 0 14 0 C14.33 0.99 14.66 1.98 15 3 C13.68 3 12.36 3 11 3 C11 2.34 11 1.68 11 1 C7.37 1.33 3.74 1.66 0 2 C0 1.34 0 0.68 0 0 Z " fill="#3E652F" transform="translate(23,81)"/>
<path d="M0 0 C1.32 0 2.64 0 4 0 C3.67 1.65 3.34 3.3 3 5 C1.35 5.33 -0.3 5.66 -2 6 C-2 5.01 -2 4.02 -2 3 C-1.34 3 -0.68 3 0 3 C0 2.01 0 1.02 0 0 Z " fill="#376329" transform="translate(74,37)"/>
<path d="M0 0 C0.99 0 1.98 0 3 0 C2.625 2.9375 2.625 2.9375 2 6 C1.01 6.495 1.01 6.495 0 7 C-0.66 6.34 -1.32 5.68 -2 5 C-1.46428571 1.46428571 -1.46428571 1.46428571 0 0 Z " fill="#577A4C" transform="translate(70,81)"/>
<path d="M0 0 C2.97 0 5.94 0 9 0 C8.67 0.99 8.34 1.98 8 3 C6.02 3.33 4.04 3.66 2 4 C2.33 3.34 2.66 2.68 3 2 C2.01 1.34 1.02 0.68 0 0 Z " fill="#536F46" transform="translate(10,79)"/>
<path d="M0 0 C0.7425 0.0825 1.485 0.165 2.25 0.25 C2.25 1.57 2.25 2.89 2.25 4.25 C1.59 4.25 0.93 4.25 0.25 4.25 C0.25 3.59 0.25 2.93 0.25 2.25 C-1.07 2.58 -2.39 2.91 -3.75 3.25 C-3.75 3.91 -3.75 4.57 -3.75 5.25 C-4.74 4.92 -5.73 4.59 -6.75 4.25 C-3.42692308 0.31153846 -3.42692308 0.31153846 0 0 Z " fill="#537E46" transform="translate(75.75,32.75)"/>
<path d="M0 0 C0.66 0 1.32 0 2 0 C3.4606285 2.64738916 4 3.89448334 4 7 C2.35 6.67 0.7 6.34 -1 6 C-0.34 5.67 0.32 5.34 1 5 C0.67 3.35 0.34 1.7 0 0 Z " fill="#517744" transform="translate(75,46)"/>
<path d="M0 0 C1.32 0 2.64 0 4 0 C3.67 1.65 3.34 3.3 3 5 C0.525 4.01 0.525 4.01 -2 3 C-1.34 2.67 -0.68 2.34 0 2 C0 1.34 0 0.68 0 0 Z " fill="#427032" transform="translate(81,33)"/>
<path d="M0 0 C0.66 0.99 1.32 1.98 2 3 C-2.68965706 4.11658501 -5.53763531 3.80619523 -10 2 C-6.696686 1.11064623 -3.37705625 0.53725895 0 0 Z " fill="#548846" transform="translate(51,80)"/>
<path d="M0 0 C1.65 0 3.3 0 5 0 C5.33 0.99 5.66 1.98 6 3 C5.01 4.485 5.01 4.485 4 6 C2.62437146 4.71034824 1.29233607 3.37310707 0 2 C0 1.34 0 0.68 0 0 Z " fill="#426933" transform="translate(45,83)"/>
</svg>
